<svg version="1.2" xmlns="http://www.w3.org/2000/svg" viewBox="0 0 4833 2886" width="4833" height="2886">
	<title>camp5-svg</title>
	<style>
		.s0 { fill: #f7e5d7 } 
		.s1 { fill: #597361 } 
		.s2 { fill: #65826e } 
		.s3 { fill: #65826d } 
		.s4 { fill: #695140 } 
	</style>
	<g id="221353356351 1">
		<path id="&lt;Path&gt;" fill-rule="evenodd" class="s0" d="m4537.4 1665.6c-0.1 9.5-0.3 19.2-0.9 28.9-0.6 12.7-1.7 25.7-3.1 38.7q-1.6 14.4-3.8 28.9c-1.8 12.8-4.1 25.8-6.6 38.8q-2.9 14.3-6.2 28.9c-2.9 12.8-6.2 25.7-9.7 38.7q-3.9 14.4-8.2 28.9c-3.8 12.8-7.9 25.7-12.2 38.6q-4.8 14.5-10 29-6.9 19.3-14.4 38.7-5.6 14.4-11.6 28.9-7.9 19.4-16.4 38.7-6.5 14.5-13.1 28.9c-0.2 0.3-0.3 0.5-0.4 0.8-21.9 47.3-45.8 93.8-70.9 138.5-102.9 183.3-225 336.8-303.3 393.3 0 0-2879.6 0-3031.4 0-85.1 0-266.6-167-295-393.3-2.4-19.2-3.7-38.8-3.8-58.7q0-12.3 0.6-24.8c0.8-16.4 2.4-33 5-49.8q1.9-12.3 4.5-24.8c3.5-16.4 7.8-33 13.2-49.7 2.6-8.3 5.5-16.6 8.6-24.9 6.2-16.5 13.4-33.1 21.7-49.8q1.9-3.8 3.9-7.7 8.3-16.1 17.9-32.3 10.6-17.7 20.5-34.5c5.5-9.3 10.8-18.4 16-27.3 9.6-16.4 18.7-32.2 27.3-47.3 6.7-11.7 13.1-23.1 19.1-34.1 9.4-17 18.1-33.2 26.2-48.8q6.8-13.2 13.1-25.8c8.8-18 16.8-35.2 23.8-51.7 70-164.4 50.6-265.3-33.9-496.4-23.5-64.5-28.1-133.8-15.9-203.6 50.9-290.5 393.2-587.7 873.1-559.3 472.2 27.8 629.5 157.8 988.9-55 251.1-148.7 1082.2-114.4 1190.2 310.8 50.8 199.7 73.3 321.2 121.6 418.8 9.1 18.4 19.1 36 30.5 53.1 0.1 0.1 0.2 0.3 0.3 0.5q6.9 10.3 14.4 20.5c7.9 10.6 16.3 21 25.4 31.4 31.9 36.5 72 72.5 124.1 111.9 20.2 15.2 42.1 30.9 66 47.3 13.7 9.4 28 19 43 29q17.2 11.3 35.6 23.1c6.9 4.4 13.4 9 19.7 13.9 0.7 0.5 1.5 1.1 2.2 1.6 11.6 9 22.2 18.7 31.8 29 11.5 12.1 21.6 25 30.4 38.7 6 9.3 11.5 18.9 16.4 28.9 6.2 12.4 11.4 25.3 15.9 38.7 3.2 9.4 5.9 19 8.3 28.9q4.5 18.9 7.2 38.7 2 14.2 3.1 28.9c0.9 12.7 1.3 25.6 1.3 38.7z"/>
		<g id="&lt;Group&gt;">
			<g id="&lt;Group&gt;">
				<path id="&lt;Path&gt;" class="s1" d="m4282.4 1927.1c-20.7-24-42.6-54.5-55.6-112.8-4.5-20-8.4-38.9-11.7-54.9q-0.1-0.5-0.2-1.1c-5.6-27.8-9-46.6-9-46.6-4.1-13.7-13.9-20.2-25.4-19.3-3.6 0.2-7.3 1.2-11.1 2.8-10.4 4.5-21.3 14.3-30.4 29.4-9.1-15.1-20.1-24.9-30.5-29.4-3.8-1.6-7.5-2.5-11.1-2.8-11.5-0.8-21.3 5.7-25.4 19.5 0 0-3.3 18.7-8.9 46.6q-0.1 0.5-0.2 1c-3.2 16.1-7.1 35-11.6 55-12.8 58.3-34.7 88.8-55.3 112.9 0 0 40.6 48.6 84.9-14.4-4 15.7-20.6 34.7-28 49.3 0 0 55.2 41.6 86.3 3.2 30.4 42.2 95.3 7.1 95.3 7.1-7.4-14.6-24.2-44-28.2-59.7 44.1 62.9 76.1 14.2 76.1 14.2z"/>
				<path id="&lt;Path&gt;" class="s1" d="m4238.3 1727.3q-0.2-0.4-0.3-0.8c-4.4-10.1-8.2-20.6-12.1-32.4q-0.2-0.6-0.4-1.2c-4.6-14.1-9.3-30-14.7-48.8-7.6-26.6-8.6-52.4-8.6-52.4l-13.1-35.4-5.9-15.9-10.9-29.6-0.4-1-33.2-89.9-33.1 90-0.3 0.9-10.9 29.7-5.8 15.8-13 35.5c0 0-1 25.8-8.6 52.5-5.4 18.7-10 34.6-14.6 48.7q-0.2 0.7-0.4 1.3c-3.8 11.8-7.7 22.3-12 32.4q-0.2 0.4-0.4 0.8c-7.1 16.5-15.5 31.6-27.1 48.4 1.1 7.2 36.5 17.7 46.2-9.7-0.2 0.8-10.1 49.5-15.7 52.2 0 0 3.3-0.8 8.3-3.9 7.6-4.7 19-14.6 29.3-34.8q0.2-0.4 0.4-0.9c4.6-9.3 8.9-20.7 12.5-34.7-0.1 0.5-1.9 21.6-4.1 43q0 0.6-0.1 1.3c-1.7 16.8-3.5 33.6-4.7 40.6 0 0 7.1-7.4 17.5-29.7q0.2-0.6 0.5-1.1c6.3-13.7 13.9-33 21.8-59.5-0.1 0.6-11.8 89.5-13 93.8 0 0 10.2-6.4 21.1-27 15.1-28.4 15.5-37.9 18.6-53.2 1.3-4.9 2.2-9.5 2.5-13.5q0-0.1 0-0.2c4.2 28.3 8.3 41.9 17.8 64.4 10 23.9 22.1 25.9 22.1 25.9-1.2-7-3-23.8-4.7-40.6q-0.1-0.6-0.2-1.3c-2.1-21.4-4-42.5-4.1-43 3.6 14 8 25.4 12.6 34.7q0.2 0.5 0.4 0.9c10.3 20.2 21.7 30.1 29.3 34.7 5 3.2 8.3 4 8.3 4-5.6-2.8-15.6-51.4-15.7-52.2 9.7 27.3 45.1 16.8 46.1 9.5-11.6-16.7-20-31.8-27.2-48.3z"/>
				<path id="&lt;Path&gt;" class="s1" d="m4195.4 1516.3c-2.3-10-4.4-19.8-6.4-29.2q-0.1-0.6-0.2-1.1c-7.8-37.9-12.6-68.8-14.1-78.7h-36l-36 0.1c-1.5 9.9-6.3 40.8-14 78.7q-0.1 0.5-0.2 1.1c-2 9.4-4.1 19.2-6.4 29.2-12.6 55.5-30.5 117.5-53 151.3 0 0 19.7 4.7 37.9-17.1 4.8-5.8 9.6-13.6 13.8-23.7 0 0.6-4.6 42.5-7.9 51.8 0.3-0.3 22.9-20.2 31.1-53.1 0 0.6-2.1 24.8-4.7 53q0 0.7-0.1 1.5c-0.6 6.1-1.2 12.4-1.8 18.7-0.8 8.3-1.6 16.7-2.4 24.5 4.1-4.9 8.9-11.9 13.5-21.7 5.4-11.6 10.5-27.2 14.2-48.4q0.2-0.9 0.3-1.9c1.5-8.8 2.8-18.5 3.7-29.3 0 0 3.4 60.8 12.3 95 8.5-30.8 12.1-95 12.1-95 0.9 10.8 2.2 20.5 3.7 29.3q0.1 0.9 0.3 1.8c3.7 21.3 8.9 36.9 14.3 48.4 4.6 9.9 9.4 16.8 13.5 21.7-0.8-7.8-1.6-16.2-2.4-24.5-0.6-6.3-1.2-12.6-1.8-18.7q-0.1-0.7-0.1-1.5c-2.7-28.2-4.8-52.4-4.8-52.9 8.3 32.8 30.9 52.7 31.2 52.9-3.4-9.2-8-51.1-8.1-51.8 4.3 10.2 9.1 17.9 13.9 23.7 18.3 21.9 37.9 17.1 37.9 17.1-22.5-33.7-40.6-95.7-53.3-151.2z"/>
				<path id="&lt;Path&gt;" class="s1" d="m4240.6 1541.1c0 0-13.6-35.3-26.3-78.9q-0.1-0.6-0.3-1.2c-6.1-20.9-11.9-43.5-15.9-65.1l-61.7-340.6-57.2 340.7c-4 21.6-9.7 44.3-15.7 65.1q-0.2 0.6-0.4 1.2c-12.6 43.7-26.1 79-26.1 79 11 7.5 23.2-1.3 32-11 7.4-8 12.4-16.6 12.6-16.9-2.4 19.6-30.7 81.9-30.7 81.9 8.3 5.4 20.3-1.3 26.1-8.1 3.2-3.7 6.2-7.8 8.9-12.3 7.1-11.4 13.1-24.1 17.7-35.3q0.2-0.5 0.5-1.1c6.4-15.6 10.1-27.7 10.1-27.7-0.6 6.5-2.4 19.7-4.6 34.5q-0.1 0.7-0.3 1.4c-4.6 31.3-10.9 69.1-10.9 69.1 10.1-1.1 26.7-21.6 35.2-49.6q0.2-0.8 0.4-1.5c2.5-8.6 8.8-49.6 9.3-59.3 1.3 13.4 1.5 47.2 6.1 67.9 7 31.8 19.9 41.4 30 42.5 0 0-6.4-37.9-11.1-69.1q-0.1-0.8-0.2-1.5c-2.3-14.8-4.1-27.9-4.7-34.5 0 0 3.7 12.1 10.1 27.7q0.3 0.6 0.5 1.2c4.7 11.1 10.7 23.8 17.7 35.2q4.2 6.8 9 12.3c5.8 6.8 17.5 12.4 24.9 3.5 0 0-27.2-57.7-29.6-77.3 0.1 0.3 5.2 8.9 12.6 16.9 8.8 9.6 21 18.4 32 10.9z"/>
				<path id="&lt;Path&gt;" class="s1" d="m4206.6 1379.6q-0.1-0.3-0.2-0.6c-3-6.9-5.7-14.2-8.4-22.4q-0.1-0.4-0.2-0.8c-3.2-9.8-6.4-20.7-10.2-33.7-5.3-18.4-6-36.2-6-36.2l-9-24.4-4-11-7.6-20.4-0.2-0.7-23-62-22.8 62.1-0.2 0.6-7.5 20.5-4.1 10.9-8.9 24.5c0 0-0.7 17.8-6 36.2-3.7 13-6.9 23.9-10 33.7q-0.2 0.4-0.3 0.8c-2.7 8.2-5.3 15.5-8.3 22.4q-0.1 0.3-0.2 0.6c-5 11.4-10.7 21.8-18.8 33.4 0.8 5 25.2 12.2 31.9-6.7-0.1 0.6-7 34.2-10.8 36.1 0 0 2.3-0.6 5.7-2.8 5.2-3.2 13.2-10 20.2-24q0.2-0.3 0.3-0.6c3.2-6.4 6.2-14.3 8.6-24 0 0.4-1.3 14.9-2.8 29.8q0 0.4 0 0.8c-1.2 11.6-2.5 23.2-3.3 28 0 0 4.9-5 12.1-20.5q0.1-0.3 0.3-0.7c4.4-9.5 9.6-22.8 15.1-41.1-0.1 0.4-13.7 87.1-13.7 87.1 0 0 13.9-14.8 20-30 6.8-16.9 10-37.2 12.1-47.7 0.9-3.4 1.5-6.5 1.7-9.3q0-0.1 0-0.1c3 19.5 5.8 28.9 12.3 44.4 6.9 16.5 15.3 17.9 15.3 17.9-0.8-4.8-2.1-16.4-3.3-28.1q0-0.4-0.1-0.8c-1.5-14.8-2.8-29.4-2.8-29.7 2.4 9.6 5.4 17.5 8.6 23.9q0.2 0.3 0.3 0.7c7.1 13.9 15 20.7 20.3 23.9 3.4 2.2 5.7 2.7 5.7 2.7-3.8-1.8-10.7-35.4-10.9-36 6.7 18.9 31.2 11.6 31.9 6.6-8-11.5-13.8-22-18.8-33.3z"/>
				<path id="&lt;Path&gt;" class="s1" d="m4180.4 1196.1c-1.8-8-3.5-15.9-5.1-23.4 0-0.3 2.6-0.6 2.5-0.9-6.2-30.3-12.8-54.9-14-62.8h-26-26.9c-1.2 8-6.9 32.6-13.1 62.9 0 0.3 1.8 0.6 1.7 0.9-1.5 7.5-3.2 15.3-5 23.4-10.1 44.3-26.3 93.8-44.2 120.8 0 0 15.6 3.8 30.2-13.7 3.9-4.6 7.7-10.8 11.1-18.9-0.1 0.5-10.7 34.3-13.4 41.7 0.3-0.2 25.3-16.4 31.9-42.7 0 0.5-1.7 19.8-3.8 42.3q0 0.6-0.1 1.2c-0.4 4.9-0.9 9.9-1.4 14.9-0.6 6.7-1.3 13.4-1.9 19.6 3.3-3.9 7.1-9.4 10.8-17.3 4.3-9.3 8.4-21.7 11.3-38.7q0.2-0.7 0.3-1.5c1.2-7 2.2-14.8 2.9-23.4 0 0 2.7 48.6 9.8 75.9 6.8-24.6 9.7-75.9 9.7-75.9q1.2 12.9 3 23.4 0.1 0.8 0.2 1.5c3 16.9 7.1 29.4 11.4 38.6 3.7 7.9 7.5 13.4 10.8 17.3-0.6-6.2-1.3-12.8-1.9-19.5-0.5-5-1-10-1.4-14.9q-0.1-0.6-0.2-1.2c-2.1-22.6-3.8-41.9-3.8-42.3 6.6 26.2 36.1 45.1 36.4 45.3-2.7-7.4-17.8-43.9-17.9-44.4 3.4 8.1 7.3 14.3 11.1 18.9 14.6 17.5 30.3 13.6 30.3 13.6-18-26.9-35.1-76.4-45.3-120.7z"/>
				<path id="&lt;Path&gt;" class="s1" d="m4203.9 1203.2c0 0-8.8-22.9-17-51.2q-0.1-0.4-0.3-0.8c-3.9-13.5-7.6-28.3-10.2-42.3l-40.1-220.9-37.1 221c-2.6 14-6.3 28.7-10.2 42.3q-0.1 0.4-0.2 0.7c-8.2 28.4-17 51.3-17 51.3 7.2 4.8 15.1-0.9 20.8-7.1 4.8-5.2 8.1-10.8 8.2-11-1.6 12.7-14.9 57.6-14.9 57.6 4-1.9 8.1-5.3 11.9-9.7 2-2.4 4-5.1 5.8-8 4.5-7.4 8.4-15.7 11.4-22.9q0.2-0.3 0.3-0.7c4.2-10.2 6.6-18 6.6-18-0.4 4.3-1.6 12.8-3 22.4q-0.1 0.4-0.1 0.9c-3.1 20.3-7.1 44.9-7.1 44.9 6.5-0.8 17.3-14.1 22.8-32.3q0.1-0.4 0.3-0.9c1.6-5.6 2.7-11.7 3.1-18 0.3 6.3 1.5 12.4 3.1 18q0.1 0.4 0.3 0.9c5.5 18.2 16.3 31.5 22.9 32.2 0 0-4.1-24.6-7.2-44.8q-0.1-0.5-0.1-1c-1.5-9.6-2.7-18.1-3.1-22.3 0 0 2.4 7.8 6.6 17.9q0.2 0.4 0.3 0.8c3 7.2 6.9 15.4 11.5 22.8 1.8 2.9 3.8 5.6 5.8 8 3.8 4.4 7.9 7.9 11.9 9.7 0 0-13.4-44.9-14.9-57.6 0.1 0.2 3.3 5.8 8.1 11 5.8 6.2 13.7 11.9 20.8 7.1z"/>
			</g>
		</g>
		<g id="&lt;Group&gt;">
			<g id="&lt;Group&gt;">
				<path id="&lt;Path&gt;" class="s1" d="m1924.9 2158.2c-58.5-32.9-120.4-74.8-157-154.6-12.6-27.4-23.8-53.4-32.9-75.3q-0.4-0.8-0.7-1.5c-15.8-38.1-25.4-63.9-25.4-63.9-11.6-18.7-39.2-27.6-71.9-26.5-10.1 0.4-20.6 1.7-31.3 3.9-29.6 6.2-60.5 19.6-86.2 40.3-25.7-20.6-56.6-34-86.2-40.1-10.7-2.3-21.2-3.5-31.3-3.9-32.7-1-60.3 7.9-71.8 26.7 0 0-9.6 25.7-25.4 63.9q-0.3 0.7-0.6 1.5c-9.1 22-20.2 47.9-32.8 75.4-36.5 79.9-98.3 121.8-156.7 154.8 0 0 114.9 66.7 240.4-19.9-11.5 21.6-58.5 47.7-79.5 67.7 0 0 156.1 57 244.3 4.3 85.9 57.8 269.6 9.6 269.6 9.6-21-19.9-68.4-60.4-79.9-81.9 124.7 86.3 215.3 19.5 215.3 19.5z"/>
				<path id="&lt;Path&gt;" class="s2" d="m1800.6 1884.3q-0.5-0.6-1-1.2c-12.2-13.7-23.2-28.2-34.1-44.4q-0.6-0.8-1.2-1.6c-13-19.4-26.1-41.2-41.4-66.9-21.6-36.5-24.4-71.8-24.4-71.8l-37-48.6-16.6-21.7-30.9-40.7-1-1.2-93.9-123.3-93.6 123.5-0.9 1.2-30.9 40.7-16.5 21.7-36.9 48.7c0 0-2.7 35.3-24.4 71.9-15.2 25.8-28.2 47.5-41.2 66.9q-0.6 0.9-1.2 1.7c-10.9 16.2-21.8 30.7-34 44.4q-0.5 0.6-1 1.2c-20.2 22.7-44 43.4-76.8 66.3 3 10 103.2 24.3 130.5-13.2-0.4 1-28.5 67.8-44.3 71.6 0 0 9.3-1.1 23.5-5.4 21.4-6.4 53.9-20 82.7-47.8q0.7-0.6 1.3-1.2c13-12.7 25.3-28.4 35.4-47.7-0.1 0.7-5.5 29.7-11.5 59.1q-0.2 0.8-0.4 1.7c-4.7 23.1-9.9 46.1-13.3 55.7 0 0 20-10.1 49.5-40.8q0.6-0.7 1.3-1.4c18-18.9 39.3-45.4 61.8-81.7-0.2 0.8-33.4 122.8-36.9 128.6 0 0 29.1-8.7 59.9-37 42.5-39 43.8-52 52.5-72.9 3.8-6.7 6.4-13.1 7.2-18.6q0-0.2 0-0.2c11.9 38.7 23.5 57.4 50.1 88.2 28.4 32.8 62.8 35.5 62.8 35.5-3.5-9.6-8.7-32.6-13.5-55.7q-0.2-0.8-0.3-1.7c-6.1-29.4-11.5-58.3-11.7-59 10.2 19.2 22.5 34.9 35.5 47.6q0.6 0.6 1.3 1.2c28.9 27.7 61.4 41.2 82.8 47.6 14.3 4.3 23.6 5.4 23.6 5.4-15.8-3.8-44.1-70.5-44.5-71.5 27.4 37.4 127.5 22.9 130.5 13-32.9-23-56.6-43.6-76.9-66.2z"/>
				<path id="&lt;Path&gt;" class="s1" d="m1679.5 1595c-6.5-13.7-12.5-27.2-18-40.1q-0.3-0.7-0.6-1.4c-22.1-52-35.7-94.3-40-108l-101.8 0.1-101.8 0.1c-4.2 13.7-17.8 56-39.7 108q-0.3 0.7-0.7 1.5c-5.4 12.9-11.4 26.4-17.9 40.1-35.7 76.1-86.6 161.2-150.1 207.4 0 0 55.4 6.6 107.1-23.4 13.7-8 27.1-18.6 39.2-32.6-0.2 0.9-13.1 58.4-22.6 71.1 1-0.4 64.8-27.7 88.2-72.8-0.2 0.8-6 33.9-13.4 72.6q-0.2 1.1-0.4 2.1c-1.6 8.4-3.3 17-5 25.6-2.2 11.5-4.6 22.9-6.8 33.6 11.6-6.7 25.1-16.2 38.1-29.8 15.2-15.8 29.8-37.2 40.4-66.4q0.4-1.2 0.8-2.4c4.2-12.1 7.7-25.5 10.3-40.3 0 0 9.7 83.4 34.7 130.2 24.1-42.2 34.5-130.3 34.5-130.3 2.6 14.8 6.1 28.2 10.4 40.3q0.4 1.2 0.8 2.5c10.6 29.1 25.3 50.4 40.5 66.3 13.1 13.5 26.5 22.9 38.2 29.7-2.3-10.7-4.6-22.2-6.9-33.6-1.7-8.6-3.4-17.2-5-25.6q-0.2-1-0.4-2.1c-7.5-38.6-13.4-71.8-13.5-72.6 23.4 45.1 87.3 72.2 88.3 72.6-9.5-12.7-22.6-70.1-22.8-71 12.1 14 25.6 24.5 39.3 32.5 51.7 29.9 107.2 23.3 107.2 23.3-63.7-46.2-114.7-131.2-150.6-207.2z"/>
				<path id="&lt;Path&gt;" class="s1" d="m1807.4 1629c0 0-38.4-48.5-74.3-108.3q-0.5-0.8-1-1.6c-17-28.6-33.5-59.7-44.8-89.3l-174.1-466.8-162.3 467.2c-11.3 29.6-27.6 60.7-44.6 89.3q-0.5 0.8-1 1.6c-35.8 59.9-74.1 108.4-74.1 108.4 31.3 10.2 65.7-1.9 90.7-15.1 20.9-11 35.2-22.8 35.6-23.2-6.8 26.8-86.9 112.3-86.9 112.3 23.3 7.4 57.3-1.8 73.7-11.1 9-5.1 17.6-10.8 25.4-16.9 19.9-15.7 36.9-33.1 50-48.4q0.7-0.8 1.3-1.5c18.3-21.5 28.6-38.1 28.6-38.1-1.6 9-6.8 27-13 47.3q-0.3 1-0.7 2.1c-13.3 42.7-31.1 94.7-31.1 94.7 28.6-1.6 75.7-29.6 99.8-68.2 0.4-0.6 0.8-1.3 1.2-1.9 7.1-11.9 24.7-68.1 26.2-81.4 3.6 18.4 4.3 64.7 17.2 93.2 19.6 43.6 56.1 56.6 84.8 58.1 0 0-17.9-51.9-31.3-94.7q-0.3-1-0.6-2c-6.4-20.3-11.6-38.3-13.2-47.3 0 0 10.4 16.6 28.7 38q0.6 0.7 1.3 1.5c13.1 15.2 30.1 32.7 50.1 48.3 7.8 6.1 16.4 11.8 25.4 16.9 16.4 9.3 49.5 16.9 70.3 4.8 0 0-76.8-79.2-83.6-106 0.4 0.3 14.7 12.1 35.5 23.1 25.1 13.2 59.6 25.2 90.8 15z"/>
				<path id="&lt;Path&gt;" class="s2" d="m1711.4 1407.5q-0.4-0.4-0.7-0.8c-8.5-9.5-16-19.5-23.6-30.7q-0.4-0.5-0.8-1.1c-9-13.4-18-28.4-28.5-46.2-15-25.2-16.9-49.6-16.9-49.6l-25.6-33.5-11.4-15-21.4-28-0.6-0.9-64.8-85.1-64.7 85.2-0.6 0.9-21.3 28.1-11.4 15-25.5 33.6c0 0-1.9 24.3-16.8 49.6-10.5 17.8-19.5 32.8-28.5 46.2q-0.4 0.6-0.8 1.2c-7.5 11.1-15.1 21.1-23.5 30.6q-0.3 0.5-0.7 0.8c-13.9 15.7-30.3 30-53 45.8 2.1 6.9 71.3 16.8 90.1-9.1-0.3 0.7-19.7 46.8-30.6 49.4 0 0 6.4-0.8 16.3-3.7 14.7-4.4 37.1-13.8 57.1-33q0.4-0.4 0.8-0.8c9-8.8 17.5-19.6 24.5-33-0.1 0.6-3.8 20.5-8 40.8q-0.1 0.6-0.2 1.2c-3.3 15.9-6.9 31.8-9.2 38.4 0 0 13.8-6.9 34.1-28.1q0.5-0.5 0.9-1c12.5-13 27.2-31.3 42.7-56.4-0.2 0.6-38.7 119.5-38.7 119.5 0 0 39.3-20.3 56.6-41.2 19.2-23.2 28.2-51 34.2-65.3 2.6-4.7 4.4-9.1 5-12.9q0-0.1 0-0.1c8.2 26.7 16.2 39.6 34.6 60.8 19.6 22.7 43.3 24.5 43.3 24.5-2.4-6.6-6-22.5-9.3-38.4q-0.1-0.6-0.2-1.1c-4.2-20.3-7.9-40.3-8.1-40.8 7.1 13.3 15.5 24.1 24.6 32.9q0.4 0.4 0.8 0.8c20 19.1 42.4 28.4 57.2 32.9 9.8 2.9 16.3 3.7 16.3 3.7-11-2.6-30.4-48.7-30.7-49.4 18.9 25.8 88 15.9 90.1 9-22.7-15.9-39.1-30.1-53.1-45.7z"/>
				<path id="&lt;Path&gt;" class="s1" d="m1637.5 1155.9c-5.2-11-10-21.7-14.4-32-0.2-0.4 7.3-0.8 7.2-1.2-17.7-41.5-36.3-75.3-39.6-86.2l-73.7 0.1h-76c-3.4 10.9-19.5 44.7-37.1 86.3-0.2 0.4 5 0.8 4.8 1.2-4.4 10.3-9.1 21.1-14.3 32.1-28.5 60.7-74.5 128.7-125.3 165.7 0 0 44.3 5.2 85.6-18.8 10.9-6.4 21.7-14.8 31.3-26-0.1 0.8-30.3 47.1-38 57.3 0.8-0.3 71.8-22.6 90.4-58.6-0.1 0.6-4.8 27.1-10.7 58q-0.1 0.8-0.3 1.7c-1.3 6.6-2.6 13.5-4 20.4-1.8 9.1-3.6 18.3-5.4 26.8 9.3-5.4 20-12.9 30.4-23.8 12.2-12.6 23.9-29.7 32.3-53q0.3-1 0.7-2c3.3-9.7 6.1-20.3 8.2-32.2 0 0 7.7 66.7 27.7 104.1 19.3-33.8 27.6-104.1 27.6-104.1 2 11.8 4.9 22.5 8.2 32.1q0.4 1 0.7 2c8.5 23.3 20.2 40.4 32.4 53 10.4 10.8 21.2 18.4 30.5 23.7-1.8-8.5-3.7-17.6-5.5-26.8-1.4-6.8-2.7-13.7-4-20.4q-0.2-0.9-0.4-1.7c-5.9-30.9-10.6-57.4-10.7-58 18.7 36 102.1 61.8 102.9 62.2-7.7-10.2-50.4-60.2-50.6-60.9 9.7 11.1 20.5 19.6 31.4 25.9 41.3 23.9 85.6 18.6 85.6 18.6-50.8-36.8-99.3-104.8-127.9-165.5z"/>
				<path id="&lt;Path&gt;" class="s1" d="m1704 1165.6c0 0-24.9-31.4-48.2-70.2q-0.3-0.5-0.6-1c-11.1-18.6-21.7-38.7-29.1-58l-112.9-302.8-105.3 303.1c-7.3 19.2-17.9 39.4-29 57.9q-0.3 0.6-0.6 1.1c-23.2 38.8-48.1 70.3-48.1 70.3 20.3 6.6 42.7-1.2 58.9-9.8 13.5-7.2 22.8-14.8 23-15.1-4.4 17.4-42 79.1-42 79.1 11.2-2.6 22.9-7.4 33.5-13.4 5.8-3.3 11.4-7 16.4-11 13-10.1 24-21.5 32.5-31.4q0.4-0.5 0.9-1c11.8-13.9 18.5-24.7 18.5-24.7-1 5.9-4.4 17.6-8.5 30.7q-0.2 0.7-0.4 1.3c-8.6 27.8-20.1 61.5-20.1 61.5 18.5-1 49-19.2 64.6-44.2q0.4-0.6 0.8-1.3c4.6-7.7 7.8-16 8.8-24.6 1 8.6 4.2 16.9 8.8 24.6q0.4 0.6 0.8 1.3c15.7 24.9 46.2 43.1 64.8 44.1 0 0-11.6-33.7-20.3-61.5q-0.2-0.6-0.4-1.3c-4.1-13.1-7.5-24.8-8.5-30.6 0 0 6.7 10.7 18.6 24.6q0.4 0.5 0.8 1c8.6 9.9 19.6 21.2 32.6 31.3 5 4 10.6 7.7 16.4 11 10.7 6 22.3 10.7 33.6 13.3 0 0-37.8-61.6-42.2-79 0.2 0.3 9.5 7.9 23 15 16.3 8.6 38.7 16.4 58.9 9.7z"/>
			</g>
		</g>
		<g id="&lt;Group&gt;">
			<g id="&lt;Group&gt;">
				<path id="&lt;Path&gt;" class="s1" d="m4249.2 1986.7c-68.2-38.4-140.3-87.1-183-180.1-14.7-32-27.7-62.2-38.3-87.7q-0.4-0.9-0.8-1.8c-18.5-44.4-29.6-74.4-29.6-74.4-13.6-21.8-45.7-32.2-83.8-30.9-11.7 0.4-24 1.9-36.4 4.5-34.5 7.3-70.5 22.9-100.4 47.1-30-24.2-66.1-39.7-100.5-46.9-12.5-2.6-24.8-4-36.5-4.4-38.1-1.3-70.2 9.1-83.6 31 0 0-11.2 30-29.6 74.5q-0.3 0.8-0.7 1.7c-10.6 25.6-23.6 55.9-38.2 87.9-42.5 93.1-114.5 141.9-182.6 180.4 0 0 133.9 77.6 280.1-23.2-13.4 25.1-68.2 55.5-92.6 78.8 0 0 181.8 66.5 284.5 5 100.2 67.3 314.2 11.2 314.2 11.2-24.4-23.2-79.6-70.3-93-95.4 145.2 100.6 250.8 22.7 250.8 22.7z"/>
				<path id="&lt;Path&gt;" class="s1" d="m4104.4 1667.6q-0.6-0.7-1.2-1.4c-14.3-16-27-32.9-39.8-51.7q-0.7-0.9-1.3-1.9c-15.2-22.6-30.5-47.9-48.3-77.9-25.2-42.6-28.5-83.7-28.5-83.7l-43.1-56.6-19.3-25.3-36-47.4-1.1-1.4-109.4-143.6-109.1 143.8-1.1 1.5-35.9 47.3-19.3 25.4-43 56.7c0 0-3.2 41.1-28.3 83.8-17.8 30-33 55.3-48.1 77.9q-0.7 1-1.3 2c-12.8 18.8-25.5 35.7-39.7 51.7q-0.6 0.7-1.2 1.4c-23.5 26.4-51.2 50.5-89.4 77.3 3.5 11.6 120.2 28.2 152-15.5-0.5 1.3-33.2 79.1-51.6 83.5 0 0 10.8-1.3 27.4-6.3 24.9-7.5 62.7-23.4 96.4-55.7q0.7-0.7 1.4-1.4c15.2-14.8 29.5-33.1 41.3-55.6-0.2 0.9-6.4 34.6-13.4 68.8q-0.2 1-0.4 2c-5.6 26.9-11.6 53.8-15.6 64.9 0 0 23.3-11.8 57.7-47.5q0.7-0.8 1.5-1.6c20.9-22 45.8-52.9 72-95.2-0.3 1-38.9 143.1-43 149.8 0 0 33.9-10.1 69.8-43 49.6-45.5 51.1-60.7 61.1-85 4.5-7.9 7.5-15.2 8.4-21.7q0.1-0.2 0.1-0.2c13.9 45.1 27.3 66.8 58.4 102.7 33.1 38.3 73 41.4 73 41.4-3.9-11.2-10-38-15.6-64.9q-0.2-0.9-0.4-2c-7.1-34.2-13.4-67.9-13.6-68.8 11.8 22.5 26.1 40.7 41.4 55.5q0.7 0.8 1.4 1.5c33.8 32.2 71.6 48 96.5 55.4 16.6 5 27.5 6.3 27.5 6.3-18.4-4.4-51.3-82.1-51.8-83.4 31.9 43.6 148.5 26.8 152 15.2-38.3-26.7-65.9-50.8-89.5-77.1z"/>
				<path id="&lt;Path&gt;" class="s1" d="m3963.3 1330.6c-7.6-16-14.6-31.7-21-46.7q-0.4-0.9-0.7-1.8c-25.8-60.5-41.7-109.8-46.6-125.7l-118.6 0.1-118.6 0.1c-4.9 15.9-20.7 65.2-46.3 125.9q-0.4 0.8-0.8 1.7c-6.3 15-13.3 30.7-20.8 46.7-41.7 88.6-101 187.8-175 241.7 0 0 64.6 7.6 124.8-27.4 16-9.3 31.7-21.6 45.7-37.9-0.2 1.1-15.3 68-26.4 82.8 1.2-0.5 75.6-32.2 102.8-84.8-0.2 0.9-7 39.6-15.6 84.6q-0.2 1.3-0.5 2.5c-1.8 9.7-3.8 19.8-5.7 29.8-2.7 13.3-5.4 26.6-8 39.1 13.6-7.8 29.2-18.9 44.4-34.7 17.7-18.4 34.8-43.4 47-77.3q0.5-1.5 1-2.9c4.9-14.1 9-29.7 12-46.9 0 0 11.3 97.2 40.5 151.7 28-49.2 40.1-151.8 40.1-151.8 3.1 17.2 7.2 32.8 12.1 46.9q0.5 1.4 1 2.9c12.3 33.9 29.4 58.8 47.2 77.2 15.2 15.8 30.8 26.8 44.5 34.6-2.7-12.4-5.4-25.7-8.1-39.1-2-10-4-20-5.8-29.8q-0.3-1.2-0.5-2.4c-8.7-45.1-15.6-83.7-15.7-84.6 27.3 52.5 101.7 84.1 102.9 84.6-11.1-14.8-26.3-81.7-26.6-82.7 14.1 16.2 29.8 28.5 45.8 37.8 60.2 34.9 124.9 27.1 124.9 27.1-74.2-53.7-133.6-152.8-175.4-241.3z"/>
				<path id="&lt;Path&gt;" class="s2" d="m4112.3 1370.1c0 0-44.8-56.4-86.6-126.1q-0.6-0.9-1.2-1.9c-19.8-33.3-39-69.5-52.1-104l-202.9-543.9-189.1 544.3c-13.1 34.5-32.2 70.8-52 104.1q-0.6 1-1.1 1.9c-41.7 69.8-86.4 126.3-86.4 126.3 36.5 11.9 76.6-2.3 105.8-17.7 24.2-12.8 40.9-26.6 41.3-27-7.9 31.3-101.2 130.9-101.2 130.9 27.2 8.6 66.8-2.1 85.9-13 10.5-5.9 20.5-12.6 29.6-19.7 23.2-18.2 43-38.6 58.3-56.3q0.7-0.9 1.5-1.8c21.3-25 33.3-44.4 33.3-44.4-1.9 10.5-7.9 31.5-15.2 55.1q-0.4 1.2-0.7 2.4c-15.5 49.9-36.3 110.4-36.3 110.4 33.4-1.8 88.2-34.5 116.2-79.4 0.5-0.8 1-1.6 1.4-2.3 8.3-13.9 28.8-79.4 30.6-94.9 4.2 21.6 5 75.5 20 108.6 22.9 50.8 65.4 66 98.8 67.7 0 0-20.9-60.4-36.5-110.3q-0.3-1.2-0.7-2.3c-7.3-23.7-13.4-44.6-15.3-55.1 0 0 12.1 19.3 33.4 44.2q0.8 0.9 1.5 1.8c15.3 17.8 35.1 38.1 58.4 56.3 9.1 7.1 19.1 13.7 29.6 19.7 19.2 10.8 57.6 19.7 81.9 5.6 0 0-89.4-92.3-97.4-123.5 0.5 0.4 17.1 14.1 41.4 26.9 29.2 15.4 69.4 29.4 105.8 17.4z"/>
				<path id="&lt;Path&gt;" class="s1" d="m4000.4 1112.1q-0.4-0.5-0.8-1c-9.9-11-18.7-22.7-27.5-35.7q-0.4-0.6-0.9-1.3c-10.5-15.6-21-33.1-33.3-53.8-17.4-29.4-19.7-57.8-19.7-57.8l-29.8-39-13.2-17.5-24.9-32.7-0.8-1-75.5-99.1-75.3 99.2-0.8 1.1-24.8 32.7-13.3 17.5-29.7 39.1c0 0-2.2 28.4-19.5 57.8-12.3 20.8-22.8 38.3-33.2 53.9q-0.5 0.6-0.9 1.3c-8.8 13-17.6 24.7-27.4 35.8q-0.4 0.4-0.9 0.9c-16.2 18.2-35.3 34.9-61.7 53.4 2.5 8 83 19.4 105-10.7-0.4 0.8-23 54.6-35.7 57.6 0 0 7.5-0.9 19-4.4 17.1-5.1 43.3-16.1 66.5-38.4q0.5-0.4 1-1c10.5-10.2 20.4-22.8 28.5-38.3-0.1 0.6-4.4 23.8-9.3 47.5q-0.1 0.7-0.3 1.4c-3.8 18.5-8 37-10.7 44.7 0 0 16.1-8.1 39.8-32.8q0.5-0.5 1.1-1.1c14.4-15.2 31.6-36.5 49.7-65.7-0.2 0.7-45.2 139.3-45.2 139.3 0 0 45.8-23.7 66.1-48.1 22.3-27 32.8-59.4 39.8-76.1 3-5.5 5.1-10.5 5.8-15q0-0.1 0-0.2c9.6 31.2 18.9 46.2 40.3 71 22.9 26.4 50.5 28.5 50.5 28.5-2.8-7.7-7-26.2-10.9-44.8q-0.1-0.6-0.3-1.3c-4.9-23.7-9.2-46.9-9.3-47.5 8.2 15.5 18 28.1 28.5 38.3q0.6 0.5 1.1 1c23.2 22.2 49.4 33.1 66.6 38.3 11.4 3.4 18.9 4.3 18.9 4.3-12.7-3-35.4-56.7-35.8-57.6 22.1 30.1 102.6 18.5 105 10.5-26.4-18.4-45.5-35.1-61.8-53.2z"/>
				<path id="&lt;Path&gt;" class="s2" d="m3914.3 819c-6.1-12.8-11.7-25.3-16.8-37.3-0.2-0.5 8.6-1 8.4-1.4-20.6-48.4-42.2-87.8-46.2-100.5l-85.8 0.1-88.6 0.1c-3.9 12.7-22.7 52.1-43.2 100.5-0.1 0.5 5.8 0.9 5.7 1.4-5.1 12-10.7 24.5-16.7 37.4-33.3 70.7-86.8 150-146 193 0 0 51.6 6.1 99.7-21.8 12.8-7.4 25.3-17.3 36.5-30.3-0.2 0.9-35.4 54.9-44.2 66.7 0.9-0.4 83.5-26.3 105.2-68.3-0.1 0.7-5.5 31.6-12.4 67.6q-0.2 1-0.4 2c-1.5 7.7-3 15.8-4.6 23.7-2.1 10.7-4.3 21.4-6.4 31.3 10.9-6.2 23.4-15.1 35.5-27.7 14.2-14.7 27.8-34.7 37.6-61.8q0.4-1.1 0.8-2.3c3.9-11.3 7.2-23.7 9.5-37.5 0 0 9.1 77.7 32.4 121.3 22.4-39.4 32.1-121.4 32.1-121.4 2.4 13.8 5.7 26.3 9.6 37.5q0.4 1.2 0.8 2.3c9.9 27.1 23.5 47 37.7 61.8 12.2 12.6 24.7 21.4 35.6 27.6-2.2-10-4.3-20.6-6.5-31.3-1.6-7.9-3.1-16-4.6-23.7q-0.2-1-0.4-2c-7-36-12.5-66.8-12.6-67.6 21.8 42 119 72.1 119.9 72.5-8.9-11.9-58.7-70.1-58.9-71 11.3 13 23.8 22.8 36.6 30.2 48.1 27.9 99.8 21.7 99.8 21.7-59.3-42.9-115.7-122.1-149.1-192.8z"/>
				<path id="&lt;Path&gt;" class="s1" d="m3991.8 830.3c0 0-29-36.6-56.2-81.8q-0.3-0.6-0.7-1.2c-12.9-21.6-25.3-45.1-33.8-67.5l-131.6-352.9-122.7 353.1c-8.5 22.4-20.9 45.9-33.8 67.6q-0.3 0.6-0.7 1.2c-27 45.3-56 81.9-56 81.9 23.6 7.7 49.7-1.4 68.6-11.4 15.7-8.4 26.5-17.3 26.8-17.5-5.1 20.2-49 92-49 92 13.2-3 26.7-8.5 39.1-15.5 6.8-3.9 13.3-8.2 19.2-12.8 15-11.9 27.9-25.1 37.8-36.6q0.5-0.6 1-1.2c13.8-16.2 21.6-28.7 21.6-28.7-1.2 6.8-5.1 20.4-9.9 35.7q-0.2 0.8-0.5 1.5c-10 32.4-23.5 71.7-23.5 71.7 21.7-1.2 57.2-22.4 75.4-51.5q0.5-0.8 0.9-1.5c5.4-9 9.1-18.7 10.3-28.8 1.1 10.1 4.8 19.8 10.2 28.7q0.5 0.8 1 1.5c18.2 29.1 53.8 50.3 75.4 51.4 0 0-13.5-39.2-23.6-71.6q-0.3-0.7-0.5-1.5c-4.8-15.3-8.7-28.9-9.9-35.7 0 0 7.8 12.5 21.6 28.7q0.5 0.6 1 1.1c10 11.6 22.8 24.7 37.9 36.6 5.9 4.6 12.4 8.9 19.2 12.7 12.4 7 26 12.5 39.1 15.5 0 0-44-71.7-49.2-92 0.3 0.3 11.1 9.2 26.9 17.5 18.9 10 45 19.1 68.6 11.3z"/>
			</g>
		</g>
		<g id="&lt;Group&gt;">
			<g id="&lt;Group&gt;">
				<path id="&lt;Path&gt;" class="s1" d="m1673.3 2213.6c-72.9-41.1-150.2-93.2-195.9-192.8-15.7-34.3-29.7-66.6-41.1-94q-0.4-0.9-0.7-1.9-0.1 0-0.1 0c-19.8-47.6-31.7-79.6-31.7-79.6-14.5-23.5-48.9-34.6-89.7-33.1-12.6 0.4-25.7 2-39 4.8-36.9 7.7-75.5 24.5-107.6 50.3-32.1-25.8-70.7-42.4-107.5-50.1-13.4-2.8-26.6-4.4-39.1-4.8-40.8-1.3-75.2 9.8-89.6 33.3 0 0-11.9 32.1-31.6 79.7q0 0-0.1 0-0.3 0.9-0.7 1.9c-11.4 27.4-25.3 59.8-40.9 94.1-45.5 99.6-122.7 152-195.6 193.2 0 0 143.4 83.1 300-24.9-14.3 26.9-73.1 59.5-99.2 84.5 0 0 194.7 71.1 304.7 5.3 107.3 72.1 336.5 12 336.5 12-26.2-24.9-85.3-75.3-99.7-102.2 155.6 107.7 268.6 24.3 268.6 24.3z"/>
				<path id="&lt;Path&gt;" class="s1" d="m1518.3 1871.9q-0.7-0.8-1.3-1.5c-15.3-17.1-28.9-35.2-42.6-55.3q-0.7-1.1-1.4-2.1c-16.3-24.2-32.6-51.3-51.7-83.4-27-45.6-30.5-89.7-30.5-89.7l-46.2-60.6-20.6-27.1-38.6-50.7-1.2-1.6-117.1-153.7-116.9 154-1.2 1.5-38.5 50.8-20.6 27.1-46 60.7c0 0-3.4 44.1-30.4 89.8-19 32.1-35.2 59.3-51.5 83.4q-0.7 1.1-1.4 2.1c-13.6 20.2-27.3 38.3-42.5 55.5q-0.6 0.7-1.3 1.4c-25.2 28.3-54.8 54.1-95.7 82.8 3.8 12.4 128.7 30.2 162.8-16.5-0.5 1.3-35.6 84.6-55.3 89.3 0 0 11.6-1.4 29.4-6.7 26.6-8.1 67.1-25 103.2-59.6q0.8-0.8 1.5-1.5c16.3-16 31.6-35.5 44.3-59.6-0.3 1-6.9 37-14.4 73.7q-0.3 1.1-0.5 2.2c-5.9 28.8-12.4 57.5-16.6 69.4 0 0 24.9-12.6 61.7-50.8q0.8-0.9 1.6-1.8c22.5-23.6 49.1-56.6 77.2-101.9-0.3 1-41.7 153.2-46.1 160.5 0 0 36.3-10.9 74.8-46.2 53-48.6 54.6-65 65.4-91 4.8-8.4 8-16.3 9-23.2q0.1-0.2 0-0.2c14.9 48.3 29.4 71.5 62.6 110 35.4 41 78.3 44.3 78.3 44.3-4.3-12-10.8-40.7-16.8-69.5q-0.2-1-0.5-2.1c-7.6-36.7-14.3-72.8-14.5-73.7 12.7 24 28 43.6 44.3 59.5q0.8 0.7 1.6 1.5c36.1 34.5 76.6 51.4 103.3 59.4 17.8 5.3 29.4 6.6 29.4 6.6-19.7-4.6-54.9-87.9-55.5-89.2 34.2 46.7 159.1 28.7 162.8 16.3-40.9-28.6-70.6-54.4-95.8-82.6z"/>
				<path id="&lt;Path&gt;" class="s2" d="m1367.1 1511c-8.1-17.2-15.6-34-22.4-50.1q-0.4-0.9-0.8-1.8c-27.5-64.9-44.6-117.6-49.9-134.6l-127 0.1-127 0.1c-5.2 17-22.2 69.8-49.6 134.7q-0.4 0.9-0.8 1.9c-6.8 16.1-14.2 32.9-22.3 50.1-44.6 94.9-108.1 201-187.4 258.8 0 0 69.2 8.1 133.6-29.3 17.2-10 34-23.2 49-40.6-0.2 1.1-16.4 72.7-28.2 88.6 1.2-0.5 80.9-34.5 110-90.8-0.2 1-7.5 42.3-16.7 90.6q-0.2 1.3-0.5 2.6c-2 10.5-4.1 21.2-6.2 31.9-2.8 14.4-5.7 28.6-8.5 42 14.5-8.4 31.3-20.3 47.6-37.2 18.9-19.8 37.2-46.5 50.3-82.8q0.6-1.6 1.1-3.1c5.2-15.1 9.6-31.8 12.8-50.3 0 0 12.1 104.1 43.3 162.6 30.1-52.8 43.1-162.7 43.1-162.7 3.2 18.5 7.6 35.2 12.9 50.3q0.5 1.5 1.1 3.1c13.1 36.3 31.4 63 50.5 82.7 16.2 16.9 33 28.7 47.6 37.1-2.8-13.4-5.8-27.6-8.6-41.9-2.1-10.7-4.3-21.5-6.3-31.9q-0.2-1.3-0.5-2.6c-9.3-48.3-16.7-89.6-16.8-90.6 29.2 56.2 108.9 90.1 110.2 90.6-11.9-15.9-28.2-87.5-28.4-88.6 15.1 17.4 31.9 30.6 49 40.5 64.5 37.3 133.7 29 133.7 29-79.4-57.5-143.1-163.6-187.9-258.4z"/>
				<path id="&lt;Path&gt;" class="s1" d="m1526.7 1553.3c0 0-47.9-60.4-92.7-135q-0.6-1-1.2-2c-21.3-35.7-41.8-74.5-55.9-111.4l-217.3-582.5-202.5 582.9c-14 36.9-34.4 75.8-55.6 111.5q-0.6 1-1.3 2c-44.6 74.7-92.5 135.2-92.5 135.2 39.1 12.7 82.1-2.4 113.3-18.9 26-13.7 43.8-28.5 44.3-28.9-8.5 33.5-108.4 140.2-108.4 140.2 29.1 9.2 71.5-2.3 92-13.9 11.3-6.4 21.9-13.5 31.6-21.1 25-19.6 46.1-41.4 62.5-60.4q0.8-0.9 1.6-1.9c22.8-26.8 35.7-47.5 35.7-47.5-2 11.3-8.5 33.7-16.3 59q-0.4 1.3-0.8 2.6c-16.5 53.4-38.8 118.2-38.8 118.2 35.7-2 94.4-37 124.4-85.1 0.5-0.8 1.1-1.6 1.5-2.4h0.1c8.8-14.9 30.8-85 32.7-101.6 4.5 23.1 5.4 80.8 21.4 116.3 24.6 54.4 70.1 70.6 105.8 72.5 0 0-22.3-64.8-39-118.2q-0.4-1.2-0.8-2.5c-7.9-25.3-14.4-47.7-16.4-58.9 0 0 12.9 20.7 35.8 47.4q0.8 0.9 1.6 1.9c16.4 19 37.6 40.8 62.6 60.2 9.7 7.6 20.4 14.7 31.6 21.1 20.5 11.6 61.7 21.1 87.7 6 0 0-95.8-98.8-104.3-132.3 0.5 0.5 18.3 15.2 44.4 28.9 31.2 16.4 74.2 31.4 113.2 18.6z"/>
				<path id="&lt;Path&gt;" class="s2" d="m1406.9 1277q-0.4-0.5-0.9-1c-10.5-11.9-19.9-24.3-29.4-38.3q-0.5-0.7-1-1.4c-11.2-16.6-22.5-35.4-35.6-57.6-18.7-31.4-21.1-61.9-21.1-61.9l-31.9-41.8-14.2-18.7-26.7-35-0.8-1.1-80.8-106.1-80.7 106.3-0.8 1.1-26.6 35-14.2 18.7-31.8 41.9c0 0-2.3 30.5-21 62-13.1 22.2-24.3 40.9-35.5 57.6q-0.5 0.7-1 1.5c-9.4 13.9-18.8 26.4-29.3 38.2q-0.4 0.5-0.9 1c-17.4 19.5-37.8 37.4-66.1 57.2 2.6 8.6 88.9 20.8 112.4-11.4-0.4 0.9-24.6 58.4-38.2 61.6 0 0 8-0.9 20.3-4.6 18.4-5.6 46.4-17.3 71.3-41.2q0.5-0.5 1-1c11.3-11 21.8-24.5 30.5-41.1-0.1 0.6-4.7 25.6-9.9 50.9q-0.1 0.7-0.3 1.4c-4.1 19.9-8.6 39.8-11.5 48 0 0 17.2-8.7 42.6-35.1q0.6-0.6 1.2-1.2c15.4-16.3 33.9-39.1 53.2-70.4-0.2 0.7-48.3 149.1-48.3 149.1 0 0 49-25.4 70.7-51.5 23.9-28.8 35.2-63.5 42.6-81.5 3.3-5.8 5.5-11.2 6.2-16q0-0.1 0-0.2c10.3 33.4 20.3 49.4 43.2 76 24.5 28.3 54 30.6 54 30.6-2.9-8.3-7.4-28.1-11.6-48q-0.1-0.7-0.3-1.4c-5.2-25.4-9.8-50.3-10-50.9 8.8 16.6 19.4 30.1 30.6 41q0.5 0.5 1.1 1.1c24.9 23.8 52.9 35.5 71.3 41 12.3 3.6 20.3 4.6 20.3 4.6-13.6-3.2-37.9-60.7-38.3-61.6 23.6 32.2 109.8 19.8 112.4 11.2-28.3-19.8-48.7-37.6-66.2-57z"/>
				<path id="&lt;Path&gt;" class="s1" d="m1314.7 963.1c-6.5-13.7-12.5-27.1-18-40-0.2-0.5 9.2-1 9-1.4-22-51.9-45.2-94-49.4-107.6l-91.9 0.1-94.9 0.1c-4.2 13.6-24.3 55.8-46.2 107.6-0.2 0.5 6.2 1 6 1.5-5.5 12.8-11.4 26.3-17.9 40-35.6 75.8-93 160.7-156.3 206.8 0 0 55.3 6.5 106.7-23.4 13.7-8 27.1-18.5 39.2-32.4-0.2 0.9-37.9 58.7-47.4 71.4 1-0.4 89.4-28.2 112.7-73.2-0.1 0.8-5.9 33.8-13.3 72.4q-0.2 1.1-0.4 2.1c-1.6 8.4-3.3 16.9-5 25.5-2.2 11.4-4.5 22.8-6.8 33.5 11.6-6.7 25.1-16.2 38-29.7 15.2-15.8 29.8-37.1 40.2-66.2q0.5-1.2 0.9-2.5c4.2-12 7.7-25.3 10.2-40.1 0 0 9.7 83.2 34.7 129.9 24-42.2 34.4-130 34.4-130 2.5 14.8 6 28.1 10.3 40.2q0.4 1.2 0.8 2.4c10.6 29 25.2 50.4 40.4 66.2 13 13.4 26.4 22.9 38.1 29.5-2.3-10.6-4.6-22-6.9-33.4-1.7-8.6-3.4-17.2-5-25.5q-0.2-1.1-0.4-2.1c-7.5-38.6-13.4-71.6-13.5-72.3 23.4 44.9 127.4 77.1 128.4 77.5-9.5-12.7-62.8-75.1-63-76 12 14 25.4 24.5 39.1 32.4 51.5 29.8 106.8 23.2 106.8 23.2-63.4-46-123.9-130.7-159.6-206.5z"/>
				<path id="&lt;Path&gt;" class="s2" d="m1397.7 975.2c0 0-31.1-39.2-60.1-87.6q-0.4-0.6-0.8-1.3c-13.8-23.1-27.1-48.3-36.3-72.2l-140.9-378-131.4 378.2c-9.1 24-22.3 49.2-36.1 72.3q-0.4 0.7-0.8 1.3c-29 48.5-60 87.8-60 87.8 25.3 8.2 53.2-1.6 73.5-12.3 16.8-8.9 28.4-18.5 28.7-18.7-5.5 21.7-52.4 98.6-52.4 98.6 14-3.3 28.5-9.2 41.8-16.7 7.3-4.1 14.2-8.8 20.5-13.7 16.2-12.7 29.9-26.8 40.5-39.2q0.5-0.6 1.1-1.2c14.7-17.4 23.1-30.8 23.1-30.8-1.3 7.3-5.5 21.8-10.5 38.3q-0.3 0.8-0.6 1.6c-10.7 34.7-25.1 76.7-25.1 76.7 23.1-1.2 61.2-24 80.7-55.2q0.5-0.8 1-1.6c5.7-9.6 9.7-19.9 10.9-30.7 1.3 10.7 5.3 21.1 11 30.7q0.5 0.8 1 1.6c19.6 31.2 57.7 53.8 80.8 55 0 0-14.5-42-25.3-76.6q-0.2-0.9-0.5-1.7c-5.1-16.4-9.3-30.9-10.6-38.2 0 0 8.4 13.4 23.2 30.7q0.5 0.6 1 1.3c10.7 12.3 24.4 26.4 40.6 39.1 6.3 4.9 13.3 9.5 20.5 13.6 13.4 7.5 27.9 13.4 41.9 16.6 0 0-47.1-76.8-52.6-98.5 0.3 0.3 11.9 9.8 28.7 18.7 20.3 10.7 48.2 20.4 73.5 12.1z"/>
			</g>
		</g>
		<g id="&lt;Group&gt;">
			<path id="&lt;Path&gt;" class="s3" d="m4032 1632.1c19.1 49.1 1.7 96.9 26.3 144.4 10 19.5 80.1 44.2 107.8 138.6 41.2 140.7-107.8 189.5-107.8 189.5-63.4 7.5-125.2-14-150.7-22.6-82 52.7-189.9 26-252-35.6q-0.1-0.1-0.1-0.1-3.5-3.5-6.9-7.2c-0.3-0.4-0.5-0.8-0.9-1.1-31.1-34.7-48.1-79-39.8-125.9 1.2-7.2 2.9-13.9 4.8-20 25.1-79.9 102.9-76.1 129.9-145.8 23.5-60.9 10-158.6 120.8-180.5 14.7-2.9 31.5-4.5 50.8-4.5 76.6 0.1 101.8 29.8 117.8 70.8z"/>
			<path id="&lt;Path&gt;" class="s3" d="m3612.7 1892.1c59.1-53.6 157.7-96 212.3-136 46.4-34 44.4-131.8 38.4-190.3-110.8 21.9-97.3 119.6-120.8 180.5-27 69.7-104.8 65.9-129.9 145.8z"/>
		</g>
		<g id="&lt;Group&gt;">
			<g id="&lt;Group&gt;">
				<path id="&lt;Path&gt;" class="s4" d="m3907.5 1980.1c-0.6 0-1.2-0.3-1.8-0.8-1.1-1-1.2-2.8-0.2-3.9 6-7 12.4-16.4 18-26.3 10.9-19.4 21.4-42.9 33.1-73.7 6.8-18.1 13.4-37.2 20-58.2 3.4-10.6 5.8-22.1 8.1-33.2 2.7-12.9 5.6-26.3 9.8-38.3 0.5-1.5 2.1-2.2 3.5-1.7 1.4 0.6 2.1 2.2 1.6 3.7-4.1 11.6-6.9 24.8-9.6 37.5-2.3 11.3-4.8 22.9-8.2 33.7-6.7 21.2-13.3 40.3-20.2 58.5-11.7 31.2-22.4 54.8-33.4 74.5-5.8 10.3-12.4 20-18.6 27.2-0.6 0.6-1.3 1-2.1 1z"/>
			</g>
			<g id="&lt;Group&gt;">
				<path id="&lt;Path&gt;" class="s4" d="m3880.4 1990.6c-0.9 0-1.9-0.5-2.4-1.4-2.1-3.9-4.2-7.8-6.4-11.6-3.9-7-7.9-14.1-11.6-21.7-14.1-29.1-28.9-60.3-42.1-94.6l-2.4-6.2c-13.6-35.1-34.1-88.1-27.3-127.2 0.3-1.5 1.7-2.5 3.2-2.2 1.5 0.2 2.4 1.7 2.2 3.2-6.6 37.5 13.6 89.6 26.9 124.1l2.4 6.2c13.2 34.1 28 65.2 42 94.1 3.6 7.5 7.6 14.6 11.4 21.5 2.2 3.8 4.4 7.7 6.5 11.6 0.7 1.4 0.3 3.1-1.1 3.9q-0.6 0.3-1.3 0.3z"/>
			</g>
			<g id="&lt;Group&gt;">
				<path id="&lt;Path&gt;" class="s4" d="m3969.8 1849.4q-0.1 0-0.2 0c-30.9-2.5-35.6-71.4-35.6-112.3 0-1.6 1.2-2.8 2.7-2.8 1.5 0 2.7 1.2 2.7 2.8 0 24.4 2.3 104.4 30.7 106.7 1.5 0.1 2.6 1.4 2.5 3-0.2 1.5-1.3 2.6-2.8 2.6z"/>
			</g>
			<g id="&lt;Group&gt;">
				<path id="&lt;Path&gt;" class="s4" d="m3822.8 1864.8c-1 0-2-0.6-2.4-1.6-0.7-1.3-0.2-3 1.1-3.8 20.6-10.9 47.9-44.8 45.4-79.8-0.2-1.6 1-3 2.5-3.1 1.5-0.1 2.8 1.1 2.9 2.6 2.8 39.2-27.2 74.1-48.3 85.4q-0.6 0.3-1.2 0.3z"/>
			</g>
			<g id="&lt;Group&gt;">
				<path id="&lt;Path&gt;" class="s4" d="m3990.5 1939.8c-9.2 0-18.5-2.9-27.6-5.8-8.6-2.7-16.7-5.2-24.4-5.3-1.6 0-2.8-1.3-2.7-2.9 0-1.5 1.2-2.8 2.7-2.8 8.5 0.1 17.4 2.9 25.9 5.6 15.3 4.8 29.7 9.4 43.1 0.6 16.3-10.7 27.2-25.8 32.4-45 0.4-1.5 1.9-2.3 3.3-1.9 1.5 0.4 2.3 2 1.9 3.5-5.6 20.5-17.3 36.7-34.7 48.2-6.5 4.3-13.2 5.8-19.9 5.8z"/>
			</g>
			<g id="&lt;Group&gt;">
				<path id="&lt;Path&gt;" class="s4" d="m3834.1 1932.3c-10.7 0-21.2-3.2-31.4-9.6-27.5-17.1-51-57.5-61.2-105.3-0.4-1.5 0.5-3 2-3.3 1.5-0.4 2.9 0.6 3.3 2.1 9.9 46.3 32.4 85.3 58.7 101.7 13.8 8.6 28.3 10.9 43 6.7 1.4-0.4 2.9 0.4 3.3 1.9 0.4 1.5-0.4 3.1-1.9 3.5q-7.9 2.3-15.8 2.3z"/>
			</g>
		</g>
	</g>
	<g id="Fire">
	</g>
</svg>