<svg version="1.2" xmlns="http://www.w3.org/2000/svg" viewBox="0 0 2819 1755" width="2819" height="1755">
	<title>New Project</title>
	<style>
		.s0 { fill: #f7e5d7 } 
		.s1 { fill: #597361 } 
		.s2 { fill: #65826e } 
	</style>
	<g id="Layer 1">
		<path id="&lt;Path&gt; copy" fill-rule="evenodd" class="s0" d="m2067.5 848.8c0.3 3.3 0.5 6.7 0.5 10 0.2 4.5 0.1 9 0 13.6q-0.2 5-0.5 10.1c-0.3 4.5-0.8 9.1-1.3 13.6q-0.6 5.1-1.3 10.2c-0.7 4.6-1.5 9.1-2.4 13.7q-0.9 5.1-2 10.3-1.5 6.8-3.2 13.7-1.3 5.2-2.7 10.4-1.9 6.9-3.9 13.8-1.6 5.1-3.3 10.3-2.2 7-4.6 13.9-1.9 5.2-3.8 10.4c0 0.1-0.1 0.2-0.1 0.3-6.3 17-13.3 33.8-20.8 50-30.8 66.4-69 123-94.6 144.8 0 0-999.7 78.2-1052.3 82.4-29.6 2.3-97.1-50.8-113.1-128.5q-2.1-10-3-20.3-0.3-4.3-0.4-8.6c-0.2-5.8-0.1-11.6 0.4-17.5q0.3-4.3 0.8-8.7c0.8-5.8 1.9-11.7 3.3-17.6q1-4.4 2.3-8.9 2.5-8.8 6.2-17.9 0.5-1.3 1.1-2.7 2.5-5.9 5.3-11.7 3.2-6.5 6.2-12.6 2.5-5 4.8-9.9 4.4-8.9 8.2-17.2 3.1-6.3 5.7-12.3c2.8-6.2 5.4-12 7.8-17.7q2-4.7 3.8-9.3c2.6-6.5 4.9-12.6 6.9-18.6 19.8-58.9 10.4-93.4-25.3-171.4-9.9-21.7-13.3-45.6-11-70.2 9.8-102.2 120.5-214.7 287.9-217.9 164.6-3.2 222.8 37.7 341.8-46 83.1-58.4 372.5-69.1 421.6 75.6 23 67.9 34.1 109.5 53.6 142.1 3.6 6.1 7.6 11.9 12 17.6q0.1 0 0.1 0.1 2.7 3.4 5.6 6.8c3 3.4 6.2 6.8 9.6 10.2 12.1 11.8 27 23.2 46.2 35.4 7.4 4.8 15.4 9.6 24.2 14.7 5 2.9 10.2 5.8 15.7 8.9q6.2 3.4 13 7c2.5 1.3 4.9 2.8 7.2 4.3 0.2 0.2 0.5 0.3 0.8 0.5q6.4 4.2 11.8 9.2 6.5 5.8 11.6 12.6 3.5 4.6 6.5 9.6c2.5 4.1 4.6 8.5 6.6 13 1.3 3.2 2.5 6.4 3.6 9.8q2.1 6.4 3.6 13.2 1.1 4.9 1.8 10 1 6.6 1.5 13.4z"/>
		<path id="&lt;Path&gt; copy 2" fill-rule="evenodd" class="s0" d="m749.9 1187.6c-0.3-3.3-0.5-6.7-0.7-10-0.2-4.4-0.3-9-0.2-13.5q0-5 0.3-10.1c0.2-4.5 0.5-9.1 1-13.6q0.5-5.1 1.1-10.2c0.6-4.5 1.3-9.1 2-13.7q0.9-5.1 1.9-10.3 1.3-6.8 2.9-13.7 1.1-5.2 2.4-10.4 1.8-6.9 3.7-13.8 1.4-5.2 3-10.4 2.1-7 4.3-13.9 1.8-5.3 3.6-10.5c0-0.1 0.1-0.1 0.1-0.2 5.9-17.1 12.6-34 19.7-50.3 29.3-66.8 66.2-124 91.3-146.1 0 0 994.2-98.5 1046.6-103.7 29.4-2.9 97.8 48.6 115.3 125.7q2.3 9.8 3.3 20.2 0.5 4.2 0.7 8.5c0.3 5.7 0.3 11.5 0 17.4q-0.3 4.3-0.8 8.7c-0.6 5.8-1.5 11.7-2.8 17.6q-0.9 4.5-2.1 8.9-2.4 8.9-5.8 18-0.5 1.3-1.1 2.7-2.3 5.9-5.1 11.8-3 6.5-5.9 12.6-2.3 5.1-4.6 10-4.1 9-7.8 17.3-2.9 6.4-5.4 12.4c-2.7 6.2-5.1 12.1-7.4 17.7q-1.9 4.8-3.6 9.4c-2.4 6.5-4.6 12.7-6.5 18.7-18.5 59.1-8.4 93.3 28.7 170.2 10.3 21.4 14.3 45.2 12.5 69.7-7.7 102.1-115.7 216.4-282.4 223-163.9 6.5-222.7-33-339.5 52.8-81.6 59.9-369.7 76.5-421.6-66.6-24.3-67.2-36.3-108.4-56.3-140.5-3.7-6-7.8-11.7-12.3-17.3q-0.1 0-0.1-0.1-2.8-3.3-5.7-6.6c-3.1-3.4-6.4-6.7-9.9-10-12.2-11.5-27.3-22.5-46.6-34.4-7.5-4.5-15.6-9.2-24.4-14-5.1-2.8-10.3-5.6-15.9-8.6q-6.3-3.3-13-6.7c-2.6-1.3-5-2.7-7.3-4.2-0.3-0.1-0.6-0.3-0.8-0.4q-6.5-4.1-12-9-6.6-5.7-11.8-12.3-3.6-4.5-6.7-9.4c-2.5-4.1-4.8-8.4-6.8-12.8-1.4-3.2-2.7-6.4-3.8-9.7q-2.2-6.4-3.9-13.1-1.1-4.9-2-9.9-1.1-6.5-1.8-13.3z"/>
		<g id="&lt;Group&gt; copy 2">
			<g id="&lt;Group&gt;">
				<path id="&lt;Path&gt;" class="s1" d="m1434 1352.1c-27.6-15.5-56.9-35.1-74.2-72.7-6-12.9-11.3-25.1-15.6-35.4q-0.2-0.4-0.3-0.7c-7.5-18-12.1-30.1-12.1-30.1-5.5-8.8-18.5-13-33.9-12.4-4.7 0.2-9.7 0.8-14.7 1.9-14 2.9-28.5 9.3-40.6 19.1-12.1-9.7-26.7-16-40.6-18.8-5.1-1.1-10-1.6-14.8-1.8-15.4-0.4-28.4 3.8-33.8 12.7 0 0-4.5 12.1-11.9 30.1q-0.1 0.3-0.3 0.7c-4.2 10.4-9.4 22.6-15.3 35.6-17.1 37.7-46.2 57.5-73.7 73.1 0 0 54.3 31.3 113.3-9.7-5.4 10.2-27.5 22.6-37.4 32 0 0 73.6 26.7 115.1 1.7 40.6 27.2 127 4.2 127 4.2-9.9-9.3-32.3-28.3-37.7-38.5 58.9 40.6 101.5 9 101.5 9z"/>
				<path id="&lt;Path&gt;" class="s2" d="m1375.1 1223.2q-0.3-0.3-0.5-0.6c-5.8-6.4-11-13.2-16.1-20.9q-0.3-0.3-0.6-0.7c-6.1-9.1-12.3-19.4-19.6-31.5-10.2-17.2-11.6-33.8-11.6-33.8l-17.5-22.8-7.8-10.2-14.6-19.2-0.5-0.5-44.4-58-43.9 58.3-0.4 0.5-14.6 19.3-7.7 10.2-17.3 23c0 0-1.3 16.6-11.4 33.9-7.2 12.2-13.3 22.4-19.4 31.6q-0.3 0.4-0.5 0.8c-5.2 7.6-10.3 14.5-16 20.9q-0.2 0.3-0.5 0.6c-9.5 10.7-20.6 20.5-36.1 31.3 1.5 4.7 48.7 11.3 61.5-6.4-0.2 0.5-13.3 32-20.8 33.8 0 0 4.4-0.5 11.1-2.5 10.1-3.1 25.3-9.5 38.9-22.7q0.3-0.2 0.6-0.5c6.1-6 11.9-13.4 16.6-22.5 0 0.3-2.5 14-5.3 27.8q-0.1 0.4-0.2 0.8c-2.2 10.9-4.6 21.8-6.2 26.3 0 0 9.4-4.8 23.3-19.3q0.2-0.3 0.6-0.7c8.4-8.9 18.4-21.4 29-38.5-0.1 0.3-15.6 57.9-17.2 60.6 0 0 13.7-4.1 28.1-17.5 20-18.4 20.6-24.6 24.7-34.4 1.8-3.2 3-6.2 3.3-8.8q0-0.1 0-0.1c5.7 18.2 11.2 27 23.8 41.5 13.4 15.4 29.6 16.7 29.6 16.7-1.7-4.6-4.1-15.4-6.4-26.3q-0.1-0.3-0.2-0.8c-2.9-13.8-5.5-27.4-5.6-27.7 4.9 9 10.7 16.4 16.8 22.3q0.3 0.3 0.6 0.6c13.7 13 29 19.3 39.1 22.3 6.7 2 11.1 2.5 11.1 2.5-7.4-1.7-20.8-33.1-21-33.6 12.9 17.6 60.1 10.6 61.5 6-15.5-10.8-26.7-20.5-36.3-31.1z"/>
				<path id="&lt;Path&gt;" class="s1" d="m1317.7 1087c-3.1-6.4-6-12.8-8.6-18.9q-0.1-0.3-0.3-0.6c-10.4-24.5-16.9-44.4-18.9-50.8l-48 0.1-48 0.2c-1.9 6.5-8.3 26.4-18.5 50.9q-0.2 0.4-0.4 0.7c-2.5 6.1-5.3 12.5-8.3 18.9-16.8 35.9-40.7 76.1-70.5 97.9 0 0 26.1 3.1 50.4-11.1 6.5-3.8 12.8-8.8 18.4-15.4 0 0.4-6.1 27.5-10.5 33.5 0.5-0.2 30.5-13.1 41.5-34.4-0.1 0.4-2.8 16-6.3 34.2q-0.1 0.5-0.2 1c-0.7 4-1.5 8-2.3 12.1-1 5.4-2.1 10.8-3.1 15.8 5.4-3.1 11.8-7.6 17.9-14.1 7.1-7.4 14-17.5 18.9-31.3q0.2-0.6 0.4-1.1c2-5.7 3.6-12.1 4.8-19 0 0 4.7 39.3 16.5 61.3 11.3-19.9 16.1-61.5 16.1-61.5 1.2 7 2.9 13.3 5 19q0.1 0.6 0.3 1.2c5.1 13.7 12 23.7 19.2 31.2 6.2 6.3 12.5 10.7 18 13.9-1.1-5-2.2-10.4-3.3-15.8-0.8-4-1.6-8.1-2.3-12.1q-0.1-0.4-0.2-0.9c-3.6-18.2-6.4-33.9-6.5-34.2 11.1 21.2 41.2 33.9 41.7 34.1-4.5-6-10.7-33-10.8-33.5 5.7 6.6 12.1 11.6 18.5 15.3 24.4 14 50.6 10.9 50.6 10.9-30.1-21.7-54.2-61.7-71.2-97.5z"/>
				<path id="&lt;Path&gt;" class="s1" d="m1378 1102.9c0 0-18.2-22.8-35.2-51q-0.2-0.3-0.5-0.7c-8-13.5-15.8-28.1-21.2-42l-82.6-219.8-75.9 220.4c-5.3 13.9-12.9 28.6-20.9 42.1q-0.2 0.4-0.4 0.8c-16.8 28.2-34.8 51.1-34.8 51.1 14.7 4.8 30.9-1 42.7-7.2 9.8-5.2 16.6-10.8 16.7-11-3.1 12.7-40.8 53-40.8 53 11 3.5 27-0.9 34.7-5.3 4.3-2.4 8.3-5.1 12-8 9.3-7.4 17.3-15.6 23.5-22.8q0.3-0.4 0.6-0.8c8.6-10.1 13.4-17.9 13.4-17.9-0.7 4.2-3.1 12.7-6 22.3q-0.2 0.4-0.4 1c-6.2 20.1-14.5 44.6-14.5 44.6 13.5-0.8 35.6-14 46.9-32.2 0.2-0.3 0.4-0.7 0.6-0.9 3.3-5.7 11.6-32.2 12.2-38.4 1.8 8.6 2.1 30.5 8.3 43.9 9.2 20.5 26.5 26.6 40 27.2 0 0-8.5-24.4-14.9-44.5q-0.1-0.5-0.3-1c-3-9.5-5.5-18-6.2-22.3 0 0 4.9 7.9 13.5 17.9q0.3 0.3 0.6 0.7c6.2 7.2 14.3 15.4 23.7 22.7 3.7 2.9 7.7 5.6 12 7.9 7.7 4.4 23.3 8 33.1 2.2 0 0-36.3-37.2-39.5-49.8 0.2 0.1 6.9 5.7 16.8 10.8 11.8 6.2 28.1 11.8 42.8 7z"/>
				<path id="&lt;Path&gt;" class="s2" d="m1332.5 998.6q-0.2-0.2-0.4-0.3c-4-4.5-7.5-9.2-11.1-14.5q-0.2-0.2-0.4-0.5c-4.3-6.3-8.5-13.4-13.5-21.7-7.1-11.9-8-23.4-8-23.4l-12.1-15.7-5.4-7.1-10.1-13.1-0.3-0.5-30.6-40-30.4 40.2-0.3 0.5-10 13.2-5.4 7.1-11.9 15.9c0 0-0.9 11.4-7.9 23.4-4.9 8.4-9.1 15.4-13.4 21.8q-0.1 0.2-0.3 0.5c-3.6 5.3-7.1 10-11.1 14.5q-0.1 0.2-0.3 0.3c-6.5 7.5-14.2 14.2-24.9 21.7 1 3.2 33.6 7.8 42.4-4.4-0.1 0.3-9.2 22.1-14.3 23.3 0 0 3-0.4 7.6-1.8 7-2 17.5-6.5 26.9-15.6q0.2-0.2 0.4-0.4c4.2-4.1 8.2-9.2 11.5-15.5-0.1 0.3-1.8 9.6-3.7 19.2q-0.1 0.3-0.1 0.6c-1.6 7.5-3.2 15-4.3 18.1 0 0 6.5-3.3 16-13.3q0.3-0.2 0.4-0.5c5.9-6.1 12.8-14.8 20.1-26.6-0.1 0.3-18.1 56.3-18.1 56.3 0 0 18.5-9.6 26.6-19.4 9-11 13.2-24.1 16.1-30.8 1.2-2.3 2-4.3 2.3-6.1q0-0.1 0-0.1c3.9 12.6 7.7 18.7 16.4 28.6 9.2 10.7 20.4 11.5 20.4 11.5-1.1-3.1-2.9-10.6-4.4-18.1q-0.1-0.2-0.1-0.5c-2-9.5-3.8-19-3.9-19.2 3.4 6.3 7.3 11.3 11.6 15.5q0.2 0.2 0.4 0.4c9.5 8.9 20 13.3 27 15.4 4.6 1.3 7.7 1.7 7.7 1.7-5.2-1.2-14.4-22.9-14.5-23.2 8.9 12.1 41.5 7.4 42.4 4.1-10.7-7.5-18.4-14.1-25-21.5z"/>
				<path id="&lt;Path&gt;" class="s1" d="m1297.3 880.2q-3.7-7.8-6.8-15.1c-0.1-0.2 3.5-0.4 3.4-0.6-8.4-19.5-17.2-35.4-18.8-40.5l-34.7 0.1-35.8 0.1c-1.6 5.2-9.1 21.1-17.4 40.7-0.1 0.2 2.4 0.4 2.3 0.6-2.1 4.8-4.3 9.9-6.7 15.1-13.4 28.7-34.9 60.7-58.8 78.2 0 0 20.8 2.4 40.3-8.9 5.1-3 10.2-7 14.7-12.3-0.1 0.4-14.2 22.2-17.8 27 0.3-0.1 33.8-10.7 42.5-27.7-0.1 0.3-2.3 12.8-5 27.4q0 0.3-0.1 0.8c-0.6 3.1-1.2 6.3-1.9 9.6-0.8 4.3-1.7 8.6-2.5 12.6 4.4-2.5 9.4-6.1 14.3-11.2 5.7-6 11.2-14.1 15.1-25.1q0.2-0.4 0.4-0.9c1.5-4.6 2.8-9.6 3.8-15.2 0 0 3.7 31.4 13.2 49 9-15.9 12.8-49 12.8-49 1 5.5 2.4 10.6 3.9 15.1q0.2 0.4 0.4 0.9c4 11 9.5 19 15.3 24.9 4.9 5.1 10 8.7 14.4 11.2-0.8-4-1.8-8.3-2.6-12.6-0.7-3.2-1.3-6.5-1.9-9.7q-0.1-0.4-0.2-0.8c-2.8-14.5-5.1-27-5.1-27.3 8.8 17 48.2 29 48.5 29.2-3.6-4.8-23.8-28.3-23.9-28.6 4.6 5.2 9.7 9.2 14.8 12.1 19.5 11.3 40.4 8.7 40.4 8.7-24-17.3-46.9-49.3-60.5-77.8z"/>
				<path id="&lt;Path&gt;" class="s1" d="m1328.7 884.7c0 0-11.8-14.8-22.8-33q-0.2-0.3-0.3-0.5c-5.3-8.8-10.3-18.2-13.8-27.3l-53.5-142.5-49.3 142.9c-3.4 9.1-8.4 18.6-13.6 27.3q-0.1 0.3-0.3 0.5c-10.8 18.3-22.5 33.2-22.5 33.2 9.5 3.1 20.1-0.6 27.7-4.7 6.4-3.4 10.7-7 10.8-7.1-2 8.2-19.7 37.3-19.7 37.3 5.3-1.2 10.8-3.5 15.8-6.4 2.7-1.5 5.4-3.3 7.7-5.2 6.1-4.7 11.3-10.1 15.3-14.8q0.2-0.2 0.4-0.5c5.5-6.5 8.7-11.6 8.7-11.6-0.5 2.8-2.1 8.3-4 14.5q-0.1 0.3-0.2 0.6c-4 13.1-9.4 29-9.4 29 8.8-0.5 23.1-9.1 30.4-20.9q0.2-0.3 0.4-0.6c2.2-3.7 3.7-7.6 4.1-11.6 0.5 4 2 7.9 4.2 11.5q0.2 0.3 0.4 0.6c7.4 11.8 21.8 20.3 30.6 20.7 0 0-5.6-15.8-9.7-28.9q-0.1-0.3-0.2-0.6c-1.9-6.2-3.5-11.7-4-14.4 0 0 3.2 5 8.8 11.5q0.2 0.3 0.4 0.5c4 4.7 9.2 10 15.4 14.7 2.3 1.9 5 3.6 7.7 5.2 5 2.8 10.5 5 15.8 6.2 0 0-17.8-29-19.9-37.2 0.1 0.2 4.4 3.7 10.8 7.1 7.7 4 18.3 7.7 27.8 4.5z"/>
			</g>
		</g>
		<g id="&lt;Group&gt; copy 4">
			<g id="&lt;Group&gt;">
				<path id="&lt;Path&gt;" class="s1" d="m1766.1 1351.8c-34.4-19.2-70.8-43.7-92.5-90.6-7.4-16.1-14.1-31.3-19.5-44.2q-0.2-0.4-0.3-0.9-0.1 0-0.1 0c-9.3-22.4-15-37.5-15-37.5-6.9-11-23.1-16.2-42.3-15.5-5.9 0.2-12.1 1-18.4 2.4-17.3 3.6-35.5 11.6-50.6 23.8-15.2-12.1-33.4-19.9-50.7-23.5-6.3-1.3-12.5-2-18.4-2.2-19.3-0.6-35.5 4.7-42.2 15.8 0 0-5.6 15.1-14.8 37.6q0 0-0.1 0-0.1 0.4-0.3 0.9c-5.3 12.9-11.8 28.2-19.1 44.4-21.4 46.9-57.7 71.7-92 91.2 0 0 67.7 39 141.4-12.1-6.7 12.7-34.4 28.2-46.7 40 0 0 91.8 33.2 143.6 2.1 50.6 33.8 158.5 5.2 158.5 5.2-12.3-11.7-40.2-35.3-47.1-48 73.5 50.6 126.6 11.1 126.6 11.1z"/>
				<path id="&lt;Path&gt;" class="s1" d="m1692.7 1191q-0.3-0.4-0.6-0.7c-7.3-8-13.7-16.5-20.2-26q-0.3-0.5-0.6-1c-7.7-11.4-15.4-24.1-24.5-39.2-12.8-21.5-14.5-42.2-14.5-42.2l-21.8-28.5-9.7-12.8-18.3-23.8-0.6-0.8-55.3-72.2-54.9 72.7-0.6 0.7-18.1 24-9.6 12.7-21.6 28.7c0 0-1.6 20.8-14.2 42.3-9 15.2-16.6 28-24.2 39.4q-0.3 0.5-0.7 1c-6.3 9.5-12.8 18.1-19.9 26.2q-0.3 0.3-0.6 0.7c-11.9 13.3-25.8 25.5-45 39.1 1.8 5.8 60.7 14.1 76.7-8-0.3 0.6-16.7 39.9-26 42.2 0 0 5.5-0.7 13.9-3.2 12.5-3.9 31.5-11.9 48.5-28.2q0.4-0.4 0.7-0.8c7.7-7.5 14.9-16.7 20.8-28.1-0.1 0.5-3.2 17.5-6.7 34.8q-0.1 0.5-0.2 1c-2.8 13.6-5.8 27.1-7.7 32.7 0 0 11.7-6 29-24q0.3-0.4 0.7-0.8c10.6-11.2 23.1-26.8 36.3-48.2-0.2 0.5-19.5 72.3-21.6 75.7 0 0 17.1-5.2 35.2-21.8 24.9-23 25.7-30.7 30.7-43 2.3-4 3.8-7.7 4.2-10.9q0.1-0.1 0-0.1c7.1 22.7 14 33.6 29.7 51.7 16.7 19.3 36.9 20.8 36.9 20.8-2-5.6-5.1-19.2-8-32.7q-0.1-0.5-0.2-1c-3.6-17.3-6.8-34.3-6.9-34.7 6 11.3 13.2 20.5 20.9 28q0.4 0.3 0.8 0.7c17 16.2 36.1 24.1 48.7 27.8 8.4 2.5 13.9 3.1 13.9 3.1-9.3-2.1-26-41.3-26.3-42 16.2 22 75 13.4 76.7 7.5-19.3-13.4-33.3-25.5-45.2-38.8z"/>
				<path id="&lt;Path&gt;" class="s2" d="m1621 1021.2c-3.8-8.1-7.4-16-10.6-23.6q-0.2-0.4-0.4-0.9c-13-30.5-21.1-55.3-23.7-63.3l-59.8 0.2-59.8 0.2c-2.5 8-10.4 32.9-23.2 63.5q-0.2 0.4-0.4 0.9c-3.2 7.6-6.7 15.5-10.5 23.6-20.9 44.8-50.6 94.9-87.9 122.2 0 0 32.6 3.7 62.9-14 8.1-4.7 16-10.9 23-19.2-0.1 0.6-7.6 34.3-13.2 41.8 0.6-0.2 38.1-16.3 51.7-42.9 0 0.5-3.4 20-7.7 42.7q-0.1 0.6-0.2 1.2c-1 5-1.9 10-2.9 15.1-1.3 6.8-2.7 13.5-4 19.8 6.8-4 14.7-9.6 22.4-17.6 8.9-9.4 17.5-22 23.6-39.1q0.3-0.7 0.5-1.4c2.4-7.2 4.5-15 6-23.8 0 0 5.8 49.1 20.6 76.6 14.1-24.9 20.1-76.7 20.1-76.7 1.5 8.7 3.6 16.6 6.1 23.7q0.3 0.7 0.6 1.4c6.2 17.1 14.8 29.7 23.8 38.9 7.7 8 15.6 13.5 22.5 17.5-1.3-6.3-2.7-13-4.1-19.8-1-5-2-10.1-3-15q-0.1-0.6-0.2-1.2c-4.5-22.8-8-42.2-8.1-42.7 13.9 26.5 51.5 42.3 52.1 42.6-5.6-7.5-13.4-41.2-13.5-41.7 7.1 8.1 15.1 14.3 23.1 19 30.5 17.5 63.1 13.5 63.1 13.5-37.5-27-67.7-76.9-88.9-121.5z"/>
				<path id="&lt;Path&gt;" class="s1" d="m1696.3 1040.9c0 0-22.7-28.4-43.9-63.5q-0.3-0.5-0.6-0.9c-10-16.8-19.7-35.1-26.4-52.4l-103.1-274.2-94.7 274.8c-6.6 17.5-16.1 35.8-26.1 52.7q-0.3 0.4-0.6 0.9c-20.9 35.2-43.4 63.8-43.4 63.8 18.4 5.9 38.7-1.2 53.4-9 12.2-6.5 20.6-13.5 20.8-13.7-4 15.8-50.9 66.2-50.9 66.2 13.7 4.3 33.7-1.2 43.3-6.7 5.3-3 10.3-6.4 14.9-10 11.7-9.2 21.7-19.5 29.4-28.5q0.3-0.4 0.7-0.9c10.7-12.6 16.8-22.4 16.8-22.4-1 5.3-4 15.9-7.6 27.8q-0.2 0.6-0.4 1.2c-7.7 25.2-18.1 55.8-18.1 55.8 16.8-1 44.4-17.6 58.5-40.3 0.2-0.4 0.5-0.7 0.7-1.1 4.1-7 14.4-40.1 15.3-47.9 2.1 10.9 2.6 38 10.2 54.7 11.7 25.7 33.1 33.2 50 34.1 0 0-10.6-30.5-18.6-55.7q-0.2-0.5-0.3-1.1c-3.8-12-6.9-22.5-7.8-27.8 0 0 6.1 9.8 16.9 22.3q0.4 0.4 0.7 0.9c7.8 8.9 17.8 19.2 29.6 28.3 4.6 3.6 9.6 6.9 14.9 9.9 9.7 5.4 29.1 9.9 41.3 2.7 0 0-45.2-46.4-49.3-62.2 0.3 0.2 8.7 7.2 21 13.6 14.7 7.7 35 14.7 53.4 8.6z"/>
				<path id="&lt;Path&gt;" class="s2" d="m1639.5 910.9q-0.2-0.3-0.4-0.5c-5-5.6-9.5-11.4-13.9-18q-0.3-0.3-0.5-0.7c-5.3-7.8-10.7-16.6-16.9-27.1-8.8-14.7-10-29.1-10-29.1l-15.1-19.7-6.7-8.8-12.6-16.4-0.4-0.5-38.2-49.9-37.9 50.2-0.3 0.5-12.5 16.5-6.7 8.8-14.9 19.8c0 0-1.1 14.4-9.8 29.2-6.2 10.5-11.4 19.3-16.7 27.2q-0.2 0.4-0.5 0.7c-4.4 6.6-8.8 12.5-13.7 18.1q-0.2 0.2-0.5 0.4c-8.1 9.3-17.7 17.7-31 27.1 1.2 4 41.9 9.7 52.9-5.5-0.2 0.4-11.5 27.5-17.9 29 0 0 3.8-0.4 9.5-2.2 8.7-2.6 21.9-8.2 33.6-19.5q0.2-0.2 0.5-0.4c5.3-5.2 10.2-11.6 14.3-19.4-0.1 0.3-2.2 12-4.6 24q-0.1 0.3-0.2 0.6c-1.9 9.4-4 18.8-5.3 22.7 0 0 8.1-4.2 20-16.6q0.3-0.3 0.6-0.6c7.2-7.7 15.9-18.5 25-33.2-0.1 0.3-22.6 70.3-22.6 70.3 0 0 23-12.1 33.2-24.4 11.3-13.6 16.5-29.9 20-38.4 1.5-2.8 2.6-5.3 2.9-7.6q0 0 0-0.1c4.9 15.8 9.6 23.3 20.4 35.8 11.6 13.3 25.5 14.3 25.5 14.3-1.4-3.9-3.5-13.2-5.5-22.6q0-0.3-0.1-0.6c-2.5-12-4.7-23.7-4.8-24 4.2 7.8 9.2 14.2 14.5 19.3q0.2 0.2 0.5 0.5c11.7 11.2 24.9 16.7 33.6 19.2 5.8 1.7 9.6 2.2 9.6 2.2-6.4-1.5-17.9-28.6-18.1-29 11.1 15.1 51.7 9.2 52.9 5.1-13.3-9.3-23-17.6-31.2-26.7z"/>
				<path id="&lt;Path&gt;" class="s1" d="m1595.7 763.1c-3.1-6.5-6-12.8-8.6-18.8-0.1-0.3 4.4-0.5 4.3-0.7-10.5-24.4-21.4-44.2-23.4-50.6l-43.3 0.1-44.8 0.2c-1.9 6.4-11.3 26.3-21.6 50.7-0.1 0.3 2.9 0.5 2.8 0.7-2.5 6.1-5.3 12.4-8.3 18.9-16.7 35.8-43.7 75.8-73.4 97.6 0 0 26 3 50.2-11.1 6.5-3.8 12.8-8.8 18.4-15.3-0.1 0.4-17.7 27.7-22.2 33.6 0.5-0.1 42.1-13.3 53-34.6 0 0.4-2.7 16-6.2 34.2q-0.1 0.5-0.2 0.9-1.1 6-2.3 12.1c-1 5.3-2.1 10.7-3.2 15.8 5.5-3.2 11.9-7.7 17.9-14.1 7.2-7.4 14-17.5 18.9-31.2q0.2-0.6 0.4-1.2c2-5.7 3.6-11.9 4.8-18.9 0 0 4.6 39.2 16.5 61.2 11.2-20 16-61.3 16-61.3 1.2 6.9 2.9 13.2 4.9 18.9q0.2 0.6 0.4 1.1c5 13.7 11.9 23.7 19.1 31.2 6.1 6.3 12.5 10.7 18 13.8-1.1-5-2.2-10.3-3.3-15.7-0.8-4.1-1.6-8.1-2.4-12q-0.1-0.5-0.2-1c-3.6-18.2-6.4-33.7-6.4-34.1 11.1 21.2 60.1 36.2 60.6 36.4-4.5-6-29.7-35.3-29.8-35.7 5.7 6.5 12 11.5 18.5 15.2 24.3 14 50.3 10.8 50.3 10.8-29.9-21.6-58.5-61.4-75.4-97.1z"/>
				<path id="&lt;Path&gt;" class="s2" d="m1634.8 768.7c0 0-14.7-18.4-28.4-41.2q-0.2-0.3-0.4-0.6c-6.6-10.9-12.9-22.8-17.2-34l-66.9-177.9-61.4 178.3c-4.3 11.3-10.5 23.2-16.9 34.1q-0.2 0.4-0.4 0.6c-13.6 22.9-28.2 41.5-28.2 41.5 12 3.8 25.1-0.8 34.6-5.9 7.9-4.2 13.4-8.7 13.5-8.8-2.5 10.2-24.5 46.5-24.5 46.5 6.6-1.6 13.4-4.4 19.6-7.9 3.5-2 6.7-4.2 9.7-6.5 7.6-6 14-12.7 19-18.5q0.3-0.3 0.5-0.6c6.9-8.2 10.9-14.5 10.9-14.5-0.6 3.4-2.6 10.2-4.9 18q-0.2 0.4-0.3 0.8c-5 16.3-11.7 36.1-11.7 36.1 10.9-0.6 28.8-11.3 37.9-26.1q0.3-0.3 0.5-0.7c2.7-4.6 4.5-9.4 5.1-14.5 0.6 5 2.5 9.9 5.2 14.4q0.3 0.4 0.5 0.8c9.3 14.7 27.2 25.3 38.1 25.8 0 0-6.9-19.8-12-36q-0.1-0.5-0.2-0.8c-2.4-7.8-4.4-14.6-5.1-18 0 0 4 6.3 11 14.4q0.2 0.3 0.5 0.6c5 5.8 11.5 12.4 19.2 18.4 2.9 2.3 6.2 4.4 9.6 6.4 6.3 3.5 13.2 6.3 19.8 7.7 0 0-22.3-36.1-24.9-46.3 0.1 0.1 5.6 4.6 13.5 8.8 9.6 5 22.8 9.5 34.7 5.6z"/>
			</g>
		</g>
	</g>
</svg>