<svg version="1.2" xmlns="http://www.w3.org/2000/svg" viewBox="0 0 2819 1755" width="2819" height="1755">
	<title>New Project</title>
	<style>
		.s0 { fill: #f7e5d7 } 
		.s1 { fill: #597361 } 
		.s2 { fill: #65826e } 
	</style>
	<g id="Layer 1">
		<path id="&lt;Path&gt; copy" fill-rule="evenodd" class="s0" d="m2323.7 1065.1c0 4.5-0.1 9.2-0.4 13.8-0.3 6.1-0.8 12.3-1.5 18.5q-0.7 6.9-1.8 13.9c-0.9 6.1-2 12.3-3.2 18.6q-1.3 6.8-2.9 13.8c-1.4 6.1-3 12.3-4.7 18.5q-1.8 6.9-3.9 13.8c-1.8 6.2-3.8 12.3-5.8 18.5q-2.3 6.9-4.8 13.9-3.3 9.2-6.9 18.5-2.7 6.9-5.6 13.8-3.7 9.3-7.8 18.6-3.1 6.9-6.3 13.8c-0.1 0.1-0.1 0.2-0.2 0.4-10.5 22.6-21.9 44.9-33.9 66.3-49.3 87.7-107.7 161.2-145.2 188.2 0 0-1378.1 0-1450.8 0-40.7 0-127.6-79.9-141.2-188.2-1.1-9.2-1.8-18.6-1.8-28.1q0-5.9 0.3-11.9c0.4-7.8 1.1-15.8 2.4-23.8q0.9-5.9 2.1-11.9c1.7-7.9 3.8-15.8 6.3-23.8q1.9-5.9 4.2-11.9 4.4-11.9 10.3-23.8 1-1.9 1.9-3.7 4-7.7 8.6-15.5 5.1-8.5 9.8-16.5 3.9-6.7 7.6-13.1 6.9-11.7 13.1-22.6c3.2-5.6 6.3-11.1 9.2-16.3 4.5-8.2 8.6-15.9 12.5-23.4q3.2-6.3 6.3-12.3c4.2-8.6 8-16.9 11.4-24.8 33.5-78.6 24.2-126.9-16.3-237.5-11.2-30.9-13.4-64.1-7.6-97.5 24.4-139 188.2-281.3 417.9-267.7 226 13.3 301.3 75.6 473.3-26.3 120.2-71.2 517.9-54.7 569.6 148.8 24.3 95.5 35.1 153.7 58.2 200.4 4.4 8.8 9.2 17.2 14.6 25.4q0.1 0.1 0.2 0.2 3.3 5 6.8 9.9c3.8 5 7.8 10 12.2 15 15.3 17.5 34.5 34.7 59.4 53.5 9.7 7.3 20.1 14.8 31.6 22.7 6.5 4.5 13.4 9.1 20.6 13.9q8.2 5.4 17 11c3.3 2.1 6.4 4.3 9.4 6.7 0.4 0.2 0.7 0.5 1.1 0.7q8.3 6.5 15.2 13.9 8.2 8.7 14.6 18.5c2.8 4.5 5.5 9.1 7.8 13.9 3 5.9 5.5 12.1 7.6 18.5 1.5 4.5 2.8 9.1 4 13.8q2.1 9.1 3.4 18.5 1 6.8 1.5 13.9 0.6 9.1 0.6 18.5z"/>
		<g id="&lt;Group&gt; copy 2">
			<g id="&lt;Group&gt;">
				<path id="&lt;Path&gt;" class="s1" d="m1387.7 1377c-35.7-20.1-73.4-45.6-95.7-94.3-7.7-16.7-14.5-32.5-20.1-45.9q-0.2-0.5-0.4-0.9c-9.6-23.2-15.5-39-15.5-39-7.1-11.4-23.9-16.8-43.8-16.1-6.2 0.2-12.6 1-19.1 2.4-18.1 3.7-36.9 11.9-52.6 24.5-15.7-12.5-34.5-20.7-52.5-24.4-6.6-1.4-13-2.2-19.1-2.4-20-0.6-36.8 4.8-43.8 16.3 0 0-5.9 15.7-15.5 38.9q-0.2 0.5-0.4 1c-5.5 13.4-12.3 29.2-20 45.9-22.2 48.8-59.9 74.3-95.5 94.4 0 0 70.1 40.7 146.6-12.1-7 13.2-35.7 29.1-48.5 41.3 0 0 95.2 34.7 149 2.6 52.3 35.2 164.3 5.8 164.3 5.8-12.8-12.1-41.7-36.8-48.7-49.9 76.1 52.6 131.3 11.9 131.3 11.9z"/>
				<path id="&lt;Path&gt;" class="s2" d="m1311.9 1210q-0.3-0.4-0.6-0.7c-7.4-8.4-14.1-17.2-20.8-27.1q-0.4-0.5-0.7-1c-7.9-11.8-15.9-25.1-25.3-40.8-13.1-22.2-14.8-43.8-14.8-43.8l-22.6-29.6-10.1-13.2-18.9-24.8-0.6-0.8-57.2-75.1-57.1 75.3-0.5 0.7-18.9 24.8-10 13.2-22.5 29.7c0 0-1.7 21.5-14.9 43.9-9.3 15.7-17.2 28.9-25.1 40.8q-0.4 0.5-0.8 1c-6.6 9.9-13.3 18.7-20.7 27.1q-0.3 0.3-0.6 0.7c-12.3 13.8-26.8 26.5-46.8 40.4 1.8 6.1 62.9 14.8 79.5-8-0.2 0.6-17.3 41.3-27 43.6 0 0 5.7-0.6 14.3-3.3 13.1-3.9 32.9-12.2 50.5-29.1q0.4-0.4 0.8-0.7c7.9-7.8 15.4-17.4 21.5-29.1 0 0.4-3.3 18.1-7 36q-0.1 0.5-0.2 1c-2.9 14.1-6 28.2-8.1 34 0 0 12.2-6.2 30.2-24.9q0.3-0.4 0.8-0.8c10.9-11.5 23.9-27.7 37.6-49.8-0.1 0.4-20.3 74.8-22.5 78.4 0 0 17.8-5.3 36.6-22.6 25.9-23.8 26.7-31.7 32-44.4 2.3-4.1 3.9-8 4.4-11.4q0-0.1 0-0.1c7.2 23.6 14.3 35 30.5 53.8 17.3 20 38.3 21.6 38.3 21.6-2.1-5.8-5.3-19.9-8.2-33.9q-0.2-0.5-0.2-1.1c-3.7-17.9-7-35.5-7.1-35.9 6.2 11.7 13.7 21.2 21.6 29q0.4 0.3 0.8 0.7c17.6 16.9 37.4 25.1 50.5 29 8.7 2.7 14.4 3.3 14.4 3.3-9.7-2.3-26.9-43-27.2-43.6 16.7 22.8 77.8 14 79.6 8-20.1-14.1-34.5-26.6-46.9-40.4z"/>
				<path id="&lt;Path&gt;" class="s1" d="m1238.1 1033.6c-4-8.4-7.6-16.6-11-24.5q-0.2-0.4-0.4-0.8c-13.4-31.7-21.7-57.5-24.4-65.9l-62 0.1-62.1 0.1c-2.6 8.3-10.8 34.1-24.2 65.8q-0.2 0.4-0.4 0.9c-3.3 7.9-7 16.1-10.9 24.5-21.8 46.4-52.8 98.3-91.6 126.4 0 0 33.8 4.1 65.3-14.2 8.4-4.9 16.6-11.4 23.9-19.9-0.1 0.5-7.9 35.6-13.7 43.3 0.6-0.2 39.5-16.8 53.7-44.3-0.1 0.4-3.6 20.6-8.1 44.2q-0.2 0.7-0.3 1.3c-1 5.1-2 10.4-3 15.6-1.4 7-2.8 14-4.2 20.5 7.1-4.1 15.3-9.9 23.3-18.2 9.2-9.6 18.1-22.7 24.6-40.5q0.2-0.7 0.5-1.4c2.5-7.4 4.7-15.6 6.3-24.6 0 0 5.9 50.9 21.1 79.4 14.7-25.7 21.1-79.5 21.1-79.5 1.5 9.1 3.7 17.2 6.3 24.6q0.2 0.7 0.5 1.5c6.4 17.8 15.4 30.8 24.7 40.5 8 8.2 16.1 13.9 23.3 18.1-1.4-6.6-2.8-13.6-4.2-20.5-1.1-5.3-2.1-10.5-3.1-15.6q-0.1-0.6-0.2-1.3c-4.6-23.5-8.2-43.8-8.3-44.3 14.3 27.5 53.3 44.1 53.9 44.3-5.8-7.7-13.8-42.7-13.9-43.3 7.4 8.5 15.6 14.9 23.9 19.8 31.6 18.3 65.4 14.2 65.4 14.2-38.8-28.1-69.9-80-91.8-126.3z"/>
				<path id="&lt;Path&gt;" class="s1" d="m1316.1 1054.3c0 0-23.5-29.5-45.3-66q-0.4-0.5-0.7-1c-10.3-17.4-20.4-36.4-27.3-54.4l-106.1-284.7-99 284.9c-6.9 18.1-16.8 37-27.2 54.5q-0.3 0.4-0.6 0.9c-21.8 36.6-45.2 66.1-45.2 66.1 19.1 6.2 40.1-1.1 55.3-9.2 12.8-6.7 21.5-13.9 21.7-14.1-4.1 16.3-52.9 68.5-52.9 68.5 14.2 4.5 34.9-1.1 44.9-6.8 5.5-3.1 10.7-6.6 15.5-10.3 12.1-9.6 22.5-20.2 30.5-29.5q0.4-0.5 0.8-0.9c11.1-13.2 17.4-23.3 17.4-23.3-1 5.5-4.1 16.5-7.9 28.9q-0.2 0.6-0.5 1.2c-8.1 26.1-18.9 57.8-18.9 57.8 17.4-1 46.1-18.1 60.8-41.6 0.3-0.4 0.5-0.8 0.8-1.2 4.3-7.2 15-41.5 15.9-49.6 2.2 11.2 2.7 39.5 10.5 56.8 12 26.6 34.2 34.5 51.7 35.5 0 0-10.9-31.7-19.1-57.8q-0.1-0.6-0.3-1.2c-3.9-12.4-7.1-23.4-8.1-28.8 0 0 6.4 10.1 17.5 23.1q0.4 0.5 0.8 0.9c8 9.3 18.4 20 30.6 29.5 4.7 3.7 10 7.2 15.5 10.3 10 5.7 30.1 10.3 42.8 2.9 0 0-46.8-48.3-51-64.6 0.3 0.2 9 7.4 21.7 14.1 15.3 8 36.3 15.3 55.4 9.1z"/>
				<path id="&lt;Path&gt;" class="s2" d="m1257.5 919.3q-0.2-0.3-0.4-0.5c-5.2-5.8-9.8-11.9-14.4-18.7q-0.2-0.3-0.5-0.7c-5.5-8.2-11-17.3-17.4-28.2-9.1-15.3-10.3-30.2-10.3-30.2l-15.6-20.4-6.9-9.2-13.1-17.1-0.3-0.5-39.5-51.9-39.5 52-0.4 0.5-12.9 17.1-7 9.2-15.5 20.5c0 0-1.2 14.8-10.3 30.2-6.4 10.9-11.9 20-17.4 28.2q-0.2 0.3-0.5 0.7c-4.5 6.8-9.2 12.9-14.3 18.7q-0.2 0.3-0.4 0.5c-8.5 9.5-18.5 18.2-32.3 27.9 1.3 4.2 43.4 10.2 54.9-5.6-0.2 0.5-12 28.6-18.6 30.2 0 0 3.9-0.5 9.9-2.3 9-2.7 22.6-8.4 34.8-20.1q0.3-0.3 0.5-0.5c5.5-5.4 10.7-12 14.9-20.1 0 0.3-2.3 12.5-4.8 24.8q-0.1 0.4-0.2 0.8c-2 9.7-4.2 19.4-5.6 23.4 0 0 8.4-4.2 20.8-17.1q0.3-0.3 0.6-0.7c7.6-7.9 16.5-19 26-34.3-0.1 0.3-23.6 72.8-23.6 72.8 0 0 24-12.4 34.5-25.1 11.7-14.1 17.2-31.1 20.9-39.8 1.6-2.9 2.6-5.6 3-7.9q0 0 0 0c5 16.2 9.9 24.1 21.1 37 12 13.9 26.4 15 26.4 15-1.5-4.1-3.6-13.8-5.7-23.4q0-0.4-0.1-0.7c-2.5-12.4-4.8-24.6-4.9-24.9 4.3 8.1 9.4 14.7 15 20.1q0.2 0.2 0.5 0.5c12.2 11.6 25.8 17.3 34.8 20 6 1.8 10 2.3 10 2.3-6.7-1.6-18.6-29.7-18.7-30.2 11.5 15.8 53.6 9.7 54.9 5.5-13.8-9.7-23.8-18.3-32.4-27.8z"/>
				<path id="&lt;Path&gt;" class="s1" d="m1212.5 765.9q-4.8-10.1-8.8-19.5c-0.1-0.3 4.4-0.5 4.4-0.8-10.8-25.3-22.2-45.9-24.2-52.5h-44.9-46.3c-2.1 6.7-11.9 27.3-22.7 52.6-0.1 0.3 3.1 0.5 3 0.8-2.7 6.3-5.6 12.8-8.8 19.5-17.3 37.1-45.4 78.5-76.4 101.1 0 0 27.1 3.2 52.2-11.5 6.7-3.9 13.3-9 19.1-15.8 0 0.5-18.5 28.7-23.2 34.9 0.5-0.2 43.8-13.8 55.2-35.7-0.1 0.3-3 16.5-6.6 35.3q0 0.5-0.1 1.1c-0.8 4-1.6 8.2-2.5 12.4-1.1 5.6-2.2 11.2-3.3 16.4 5.7-3.3 12.2-7.9 18.6-14.6 7.4-7.6 14.5-18.1 19.7-32.3q0.1-0.6 0.4-1.2c2-5.9 3.7-12.4 5-19.6 0 0 4.7 40.6 16.9 63.4 11.7-20.6 16.8-63.4 16.8-63.4 1.2 7.2 3 13.7 5 19.5q0.2 0.7 0.4 1.3c5.2 14.2 12.3 24.6 19.8 32.3 6.3 6.6 12.9 11.2 18.6 14.4-1.1-5.2-2.3-10.7-3.4-16.3-0.8-4.2-1.6-8.4-2.4-12.5q-0.1-0.5-0.3-1c-3.6-18.8-6.4-35-6.5-35.4 11.4 22 62.3 37.7 62.8 38-4.7-6.2-30.8-36.7-30.9-37.2 5.9 6.8 12.5 12 19.2 15.8 25.1 14.6 52.1 11.4 52.1 11.4-30.9-22.5-60.5-63.9-77.9-100.9z"/>
				<path id="&lt;Path&gt;" class="s1" d="m1253 771.8c0 0-15.2-19.2-29.4-42.8q-0.2-0.3-0.3-0.6c-6.8-11.4-13.3-23.6-17.8-35.4l-68.8-184.6-64.2 184.8c-4.5 11.7-10.9 24-17.7 35.3q-0.2 0.4-0.4 0.7c-14.1 23.6-29.3 42.8-29.3 42.8 12.4 4 26-0.7 35.9-6 8.2-4.3 13.9-9 14-9.2-2.6 10.7-25.6 48.3-25.6 48.3 6.9-1.6 14-4.5 20.5-8.2 3.5-2 6.9-4.3 10-6.7 7.9-6.2 14.6-13.1 19.8-19.2q0.2-0.3 0.5-0.6c7.2-8.4 11.3-15 11.3-15-0.6 3.6-2.7 10.7-5.2 18.7q-0.1 0.4-0.2 0.8c-5.3 16.9-12.3 37.5-12.3 37.5 11.3-0.6 29.9-11.7 39.4-27q0.2-0.3 0.5-0.8c2.8-4.7 4.7-9.7 5.4-15 0.6 5.3 2.5 10.3 5.3 15q0.3 0.4 0.5 0.8c9.6 15.2 28.2 26.3 39.5 26.9 0 0-7.1-20.5-12.4-37.5q-0.1-0.3-0.2-0.8c-2.5-8-4.6-15.1-5.2-18.6 0 0 4.1 6.5 11.4 15q0.2 0.3 0.4 0.6c5.3 6 12 12.9 19.9 19.1 3.1 2.4 6.5 4.7 10 6.7 6.5 3.6 13.6 6.5 20.5 8.1 0 0-23-37.6-25.7-48.2 0.1 0.2 5.8 4.8 14 9.2 9.9 5.2 23.6 10 35.9 5.9z"/>
			</g>
		</g>
		<g id="&lt;Group&gt; copy 4">
			<g id="&lt;Group&gt;">
				<path id="&lt;Path&gt;" class="s1" d="m1817.6 1377.8c-44.5-25.1-91.6-56.8-119.5-117.6-9.6-20.9-18.1-40.6-25-57.3q-0.3-0.5-0.5-1.1 0 0 0 0c-12.1-29.1-19.4-48.6-19.4-48.6-8.8-14.3-29.8-21.1-54.7-20.2-7.6 0.3-15.6 1.3-23.7 3-22.5 4.7-46.1 14.9-65.6 30.6-19.6-15.7-43.2-25.8-65.6-30.5-8.2-1.7-16.2-2.7-23.8-2.9-24.9-0.8-45.9 5.9-54.7 20.3 0 0-7.2 19.5-19.2 48.6q0 0-0.1 0-0.2 0.5-0.4 1.1c-7 16.7-15.4 36.5-25 57.4-27.7 60.7-74.8 92.7-119.2 117.8 0 0 87.4 50.7 182.9-15.2-8.7 16.4-44.6 36.3-60.5 51.5 0 0 118.7 43.4 185.8 3.3 65.4 43.9 205.2 7.3 205.2 7.3-16-15.2-52-45.9-60.8-62.3 94.9 65.6 163.8 14.8 163.8 14.8z"/>
				<path id="&lt;Path&gt;" class="s1" d="m1723 1169.4q-0.4-0.4-0.7-0.9c-9.4-10.4-17.7-21.4-26-33.7q-0.4-0.7-0.9-1.3c-9.9-14.7-19.8-31.2-31.5-50.8-16.5-27.8-18.6-54.7-18.6-54.7l-28.2-37-12.5-16.5-23.6-30.9-0.7-1-71.4-93.7-71.3 93.9-0.7 0.9-23.5 31-12.5 16.5-28.1 37c0 0-2.1 26.9-18.5 54.8-11.6 19.6-21.5 36.1-31.4 50.8q-0.4 0.7-0.9 1.3c-8.3 12.3-16.6 23.4-25.9 33.9q-0.3 0.4-0.8 0.8c-15.3 17.3-33.4 33-58.3 50.5 2.3 7.6 78.4 18.4 99.2-10.1-0.3 0.8-21.7 51.6-33.7 54.5 0 0 7.1-0.9 17.9-4.1 16.3-4.9 41-15.2 63-36.3q0.5-0.5 0.9-1c9.9-9.7 19.3-21.6 27-36.3-0.2 0.6-4.2 22.6-8.8 44.9q-0.2 0.7-0.3 1.4c-3.6 17.5-7.5 35-10.1 42.3 0 0 15.2-7.7 37.6-31q0.5-0.5 1-1.1c13.7-14.4 29.9-34.5 47.1-62.1-0.2 0.6-25.5 93.4-28.2 97.9 0 0 22.2-6.7 45.7-28.2 32.3-29.6 33.2-39.6 39.8-55.5 3-5.1 4.9-9.9 5.5-14.1q0.1-0.2 0-0.2c9.1 29.5 17.9 43.6 38.2 67.1 21.6 25 47.7 27 47.7 27-2.6-7.3-6.6-24.8-10.2-42.4q-0.1-0.6-0.3-1.2c-4.7-22.4-8.7-44.4-8.9-45 7.8 14.7 17.1 26.6 27.1 36.3q0.4 0.4 0.9 0.9c22 21 46.7 31.4 63 36.2 10.9 3.3 17.9 4.1 17.9 4.1-12-2.9-33.4-53.6-33.8-54.4 20.8 28.4 97 17.5 99.3 9.9-25-17.4-43.1-33.2-58.5-50.4z"/>
				<path id="&lt;Path&gt;" class="s2" d="m1630.9 949.4c-5-10.5-9.6-20.7-13.7-30.6q-0.2-0.5-0.5-1.1c-16.8-39.5-27.2-71.7-30.4-82h-77.4l-77.5 0.1c-3.2 10.4-13.5 42.6-30.2 82.1q-0.3 0.6-0.5 1.2c-4.2 9.8-8.7 20-13.6 30.5-27.2 57.9-65.9 122.6-114.3 157.8 0 0 42.2 5 81.5-17.8 10.5-6.1 20.7-14.2 29.9-24.8-0.2 0.7-10 44.3-17.2 54 0.7-0.3 49.3-21 67-55.3-0.1 0.6-4.5 25.8-10.1 55.2q-0.2 0.8-0.3 1.6c-1.3 6.4-2.5 12.9-3.8 19.4-1.7 8.8-3.5 17.5-5.2 25.7 8.8-5.2 19.1-12.4 29-22.7 11.5-12.1 22.7-28.4 30.7-50.5q0.3-1 0.7-1.9c3.1-9.2 5.8-19.4 7.8-30.7 0 0 7.3 63.5 26.4 99.2 18.3-32.2 26.2-99.2 26.2-99.2 2 11.2 4.7 21.4 7.9 30.6q0.3 1 0.7 1.9c8 22.2 19.1 38.4 30.8 50.5 9.8 10.3 20.1 17.5 29 22.6-1.7-8.2-3.6-16.9-5.3-25.6-1.2-6.5-2.6-13.1-3.8-19.4q-0.1-0.8-0.3-1.6c-5.7-29.5-10.2-54.6-10.2-55.3 17.8 34.3 66.4 55 67.1 55.3-7.2-9.7-17.1-53.4-17.3-54 9.2 10.6 19.5 18.6 29.9 24.7 39.3 22.7 81.5 17.6 81.5 17.6-48.4-35-87.2-99.7-114.5-157.5z"/>
				<path id="&lt;Path&gt;" class="s1" d="m1728.2 975.2c0 0-29.2-36.8-56.6-82.3q-0.3-0.6-0.7-1.2c-13-21.8-25.5-45.5-34.1-68l-132.5-355.1-123.4 355.4c-8.6 22.5-21 46.2-33.9 68q-0.4 0.6-0.8 1.2c-27.2 45.5-56.4 82.4-56.4 82.4 23.8 7.8 50-1.5 69.1-11.5 15.8-8.4 26.7-17.4 27-17.6-5.2 20.4-66.1 85.4-66.1 85.4 17.7 5.7 43.6-1.4 56.1-8.4 6.9-3.9 13.3-8.3 19.2-12.9 15.3-11.9 28.1-25.2 38.1-36.8q0.5-0.6 1-1.2c13.9-16.3 21.8-28.9 21.8-28.9-1.2 6.9-5.2 20.5-9.9 35.9q-0.3 0.8-0.5 1.6c-10.1 32.6-23.7 72.1-23.7 72.1 21.8-1.2 57.6-22.6 75.9-51.9 0.3-0.5 0.6-1 0.9-1.5 5.4-9 18.8-51.8 20-61.9 2.7 14.1 3.3 49.3 13 70.9 15 33.2 42.8 43 64.5 44.2 0 0-13.6-39.5-23.8-72.1q-0.2-0.7-0.4-1.5c-4.9-15.4-8.8-29.1-10-35.9 0 0 7.8 12.6 21.8 28.9q0.5 0.5 1 1.2c10 11.5 22.9 24.8 38.1 36.7 5.9 4.6 12.5 8.9 19.3 12.8 12.5 7.1 37.6 12.9 53.5 3.7 0 0-58.4-60.3-63.6-80.7 0.3 0.3 11.1 9.3 27 17.6 19.1 10 45.3 19.2 69.1 11.4z"/>
				<path id="&lt;Path&gt;" class="s2" d="m1655.1 806.7q-0.2-0.3-0.5-0.6c-6.4-7.2-12.2-14.8-17.9-23.3q-0.4-0.5-0.7-0.9c-6.8-10.1-13.7-21.6-21.7-35.1-11.4-19.2-12.8-37.8-12.8-37.8l-19.5-25.4-8.6-11.4-16.3-21.4-0.5-0.7-49.3-64.7-49.2 64.9-0.5 0.6-16.2 21.4-8.6 11.4-19.4 25.5c0 0-1.4 18.6-12.8 37.8-8 13.6-14.9 25-21.7 35.1q-0.3 0.5-0.6 1c-5.7 8.4-11.5 16.1-17.9 23.3q-0.2 0.3-0.5 0.6c-10.6 11.9-23.1 22.8-40.3 34.8 1.6 5.3 54.2 12.7 68.5-6.9-0.2 0.5-15 35.6-23.3 37.5 0 0 4.9-0.5 12.4-2.8 11.2-3.4 28.3-10.5 43.5-25.1q0.3-0.3 0.6-0.6c6.9-6.7 13.3-14.9 18.6-25-0.1 0.3-2.9 15.6-6 31q-0.1 0.4-0.2 0.8c-2.5 12.2-5.3 24.3-7 29.3 0 0 10.4-5.3 25.9-21.4q0.4-0.4 0.8-0.7c9.4-10 20.6-23.9 32.4-43-0.1 0.5-29.4 91-29.4 91 0 0 29.8-15.5 43.1-31.4 14.5-17.6 21.4-38.8 25.9-49.7 2-3.6 3.4-6.9 3.8-9.8q0-0.1 0-0.1c6.3 20.4 12.4 30.1 26.4 46.3 14.9 17.3 32.9 18.7 32.9 18.7-1.8-5.1-4.5-17.1-7.1-29.3q-0.1-0.4-0.2-0.8c-3.1-15.5-5.9-30.7-6.1-31.1 5.4 10.1 11.9 18.4 18.7 25q0.3 0.3 0.7 0.7c15.1 14.5 32.2 21.6 43.4 25 7.5 2.2 12.4 2.8 12.4 2.8-8.3-1.9-23.1-37-23.3-37.6 14.3 19.7 66.9 12.1 68.5 6.9-17.3-12.1-29.7-23-40.4-34.8z"/>
				<path id="&lt;Path&gt;" class="s1" d="m1598.9 615.3c-4-8.3-7.6-16.5-11-24.4-0.1-0.3 5.6-0.6 5.5-0.8-13.4-31.7-27.5-57.3-30.1-65.6h-56l-57.9 0.1c-2.6 8.3-14.8 34-28.2 65.6-0.1 0.3 3.8 0.6 3.7 0.9-3.4 7.8-7 16.1-10.9 24.4-21.7 46.2-56.7 98-95.3 126.1 0 0 33.7 4 65-14.3 8.4-4.8 16.6-11.2 23.9-19.7-0.1 0.5-23.1 35.8-28.9 43.5 0.6-0.2 54.5-17.2 68.8-44.6-0.1 0.5-3.6 20.6-8.2 44.1q-0.1 0.7-0.2 1.3-1.5 7.7-3 15.6c-1.4 6.9-2.8 13.9-4.2 20.4 7.1-4.1 15.3-9.9 23.2-18.1 9.2-9.7 18.1-22.7 24.5-40.4q0.3-0.7 0.5-1.5c2.6-7.3 4.7-15.4 6.3-24.5 0 0 5.9 50.8 21.1 79.2 14.6-25.7 21-79.2 21-79.2 1.5 9 3.6 17.1 6.3 24.5q0.2 0.7 0.5 1.4c6.4 17.7 15.3 30.8 24.6 40.4 7.9 8.2 16.1 14 23.2 18-1.4-6.5-2.8-13.4-4.2-20.4-1-5.2-2.1-10.5-3-15.5q-0.2-0.7-0.3-1.3c-4.6-23.5-8.2-43.7-8.2-44.1 14.3 27.4 77.7 47 78.3 47.3-5.8-7.8-38.3-45.8-38.4-46.4 7.3 8.6 15.4 15 23.8 19.8 31.4 18.2 65.1 14.1 65.1 14.1-38.6-28-75.5-79.7-97.3-125.9z"/>
				<path id="&lt;Path&gt;" class="s2" d="m1649.5 622.7c0 0-18.9-23.9-36.6-53.4q-0.3-0.4-0.5-0.8c-8.4-14.1-16.5-29.5-22.1-44l-86-230.5-80.1 230.6c-5.5 14.6-13.6 30-22 44.1q-0.2 0.4-0.5 0.8c-17.7 29.5-36.6 53.5-36.6 53.5 15.5 5 32.5-1 44.9-7.5 10.2-5.4 17.3-11.3 17.5-11.4-3.4 13.2-32 60.1-32 60.1 8.5-2 17.4-5.6 25.5-10.2 4.4-2.5 8.6-5.3 12.5-8.3 9.9-7.8 18.2-16.4 24.7-23.9q0.3-0.4 0.7-0.7c8.9-10.7 14-18.8 14-18.8-0.8 4.4-3.3 13.3-6.4 23.3q-0.1 0.5-0.3 1c-6.6 21.2-15.3 46.8-15.3 46.8 14.1-0.8 37.3-14.7 49.2-33.7q0.3-0.5 0.6-1c3.5-5.8 5.9-12.1 6.6-18.7 0.8 6.5 3.3 12.9 6.7 18.7q0.3 0.5 0.6 1c12 19 35.2 32.8 49.3 33.5 0 0-8.8-25.6-15.4-46.7q-0.1-0.5-0.3-1c-3.1-10-5.7-18.8-6.5-23.3 0 0 5.1 8.2 14.2 18.7q0.3 0.4 0.6 0.8c6.5 7.5 14.8 16.1 24.7 23.9 3.9 3 8.1 5.8 12.5 8.3 8.2 4.5 17 8.1 25.6 10.1 0 0-28.7-46.8-32.1-60.1 0.2 0.2 7.3 6 17.5 11.4 12.4 6.5 29.4 12.5 44.8 7.4z"/>
			</g>
		</g>
	</g>
</svg>