<svg version="1.2" xmlns="http://www.w3.org/2000/svg" viewBox="0 0 2819 1755" width="2819" height="1755">
	<title>New Project</title>
	<style>
		.s0 { fill: #f7e5d7 } 
		.s1 { fill: #597361 } 
		.s2 { fill: #65826e } 
	</style>
	<g id="Layer 1">
		<path id="&lt;Path&gt; copy" fill-rule="evenodd" class="s0" d="m2067.5 848.8c0.3 3.3 0.5 6.7 0.5 10 0.2 4.5 0.1 9 0 13.6q-0.2 5-0.5 10.1c-0.3 4.5-0.8 9.1-1.3 13.6q-0.6 5.1-1.3 10.2c-0.7 4.6-1.5 9.1-2.4 13.7q-0.9 5.1-2 10.3-1.5 6.8-3.2 13.7-1.3 5.2-2.7 10.4-1.9 6.9-3.9 13.8-1.6 5.1-3.3 10.3-2.2 7-4.6 13.9-1.9 5.2-3.8 10.4c0 0.1-0.1 0.2-0.1 0.3-6.3 17-13.3 33.8-20.8 50-30.8 66.4-69 123-94.6 144.8 0 0-999.7 78.2-1052.3 82.4-29.6 2.3-97.1-50.8-113.1-128.5q-2.1-10-3-20.3-0.3-4.3-0.4-8.6c-0.2-5.8-0.1-11.6 0.4-17.5q0.3-4.3 0.8-8.7c0.8-5.8 1.9-11.7 3.3-17.6q1-4.4 2.3-8.9 2.5-8.8 6.2-17.9 0.5-1.3 1.1-2.7 2.5-5.9 5.3-11.7 3.2-6.5 6.2-12.6 2.5-5 4.8-9.9 4.4-8.9 8.2-17.2 3.1-6.3 5.7-12.3c2.8-6.2 5.4-12 7.8-17.7q2-4.7 3.8-9.3c2.6-6.5 4.9-12.6 6.9-18.6 19.8-58.9 10.4-93.4-25.3-171.4-9.9-21.7-13.3-45.6-11-70.2 9.8-102.2 120.5-214.7 287.9-217.9 164.6-3.2 222.8 37.7 341.8-46 83.1-58.4 372.5-69.1 421.6 75.6 23 67.9 34.1 109.5 53.6 142.1 3.6 6.1 7.6 11.9 12 17.6q0.1 0 0.1 0.1 2.7 3.4 5.6 6.8c3 3.4 6.2 6.8 9.6 10.2 12.1 11.8 27 23.2 46.2 35.4 7.4 4.8 15.4 9.6 24.2 14.7 5 2.9 10.2 5.8 15.7 8.9q6.2 3.4 13 7c2.5 1.3 4.9 2.8 7.2 4.3 0.2 0.2 0.5 0.3 0.8 0.5q6.4 4.2 11.8 9.2 6.5 5.8 11.6 12.6 3.5 4.6 6.5 9.6c2.5 4.1 4.6 8.5 6.6 13 1.3 3.2 2.5 6.4 3.6 9.8q2.1 6.4 3.6 13.2 1.1 4.9 1.8 10 1 6.6 1.5 13.4z"/>
		<path id="&lt;Path&gt; copy 2" fill-rule="evenodd" class="s0" d="m749.9 1187.6c-0.3-3.3-0.5-6.7-0.7-10-0.2-4.4-0.3-9-0.2-13.5q0-5 0.3-10.1c0.2-4.5 0.5-9.1 1-13.6q0.5-5.1 1.1-10.2c0.6-4.5 1.3-9.1 2-13.7q0.9-5.1 1.9-10.3 1.3-6.8 2.9-13.7 1.1-5.2 2.4-10.4 1.8-6.9 3.7-13.8 1.4-5.2 3-10.4 2.1-7 4.3-13.9 1.8-5.3 3.6-10.5c0-0.1 0.1-0.1 0.1-0.2 5.9-17.1 12.6-34 19.7-50.3 29.3-66.8 66.2-124 91.3-146.1 0 0 994.2-98.5 1046.6-103.7 29.4-2.9 97.8 48.6 115.3 125.7q2.3 9.8 3.3 20.2 0.5 4.2 0.7 8.5c0.3 5.7 0.3 11.5 0 17.4q-0.3 4.3-0.8 8.7c-0.6 5.8-1.5 11.7-2.8 17.6q-0.9 4.5-2.1 8.9-2.4 8.9-5.8 18-0.5 1.3-1.1 2.7-2.3 5.9-5.1 11.8-3 6.5-5.9 12.6-2.3 5.1-4.6 10-4.1 9-7.8 17.3-2.9 6.4-5.4 12.4c-2.7 6.2-5.1 12.1-7.4 17.7q-1.9 4.8-3.6 9.4c-2.4 6.5-4.6 12.7-6.5 18.7-18.5 59.1-8.4 93.3 28.7 170.2 10.3 21.4 14.3 45.2 12.5 69.7-7.7 102.1-115.7 216.4-282.4 223-163.9 6.5-222.7-33-339.5 52.8-81.6 59.9-369.7 76.5-421.6-66.6-24.3-67.2-36.3-108.4-56.3-140.5-3.7-6-7.8-11.7-12.3-17.3q-0.1 0-0.1-0.1-2.8-3.3-5.7-6.6c-3.1-3.4-6.4-6.7-9.9-10-12.2-11.5-27.3-22.5-46.6-34.4-7.5-4.5-15.6-9.2-24.4-14-5.1-2.8-10.3-5.6-15.9-8.6q-6.3-3.3-13-6.7c-2.6-1.3-5-2.7-7.3-4.2-0.3-0.1-0.6-0.3-0.8-0.4q-6.5-4.1-12-9-6.6-5.7-11.8-12.3-3.6-4.5-6.7-9.4c-2.5-4.1-4.8-8.4-6.8-12.8-1.4-3.2-2.7-6.4-3.8-9.7q-2.2-6.4-3.9-13.1-1.1-4.9-2-9.9-1.1-6.5-1.8-13.3z"/>
		<g id="&lt;Group&gt; copy 2">
			<g id="&lt;Group&gt;">
				<path id="&lt;Path&gt;" class="s1" d="m1424.2 1299.6c-23.3-10.9-48.2-25-64.6-54.4-5.6-10.1-10.7-19.7-14.8-27.8q-0.2-0.3-0.3-0.6c-7.2-14.1-11.6-23.6-11.6-23.6-5-6.8-15.8-9.4-28.3-8-3.9 0.4-7.8 1.3-11.9 2.4-11.1 3.3-22.5 9.3-31.7 18-10.4-7.1-22.6-11.3-34.1-12.7-4.2-0.6-8.2-0.8-12.1-0.6-12.5 0.6-22.8 4.8-26.7 12.4 0 0-2.8 10.1-7.7 25.1q-0.1 0.3-0.2 0.6c-2.8 8.7-6.3 18.9-10.3 29.8-11.6 31.6-33.9 49.5-55.3 63.9 0 0 45.9 22 91.3-14.8-3.7 8.6-20.9 19.9-28.3 28.2 0 0 61.3 17.1 93.4-5.6 34.6 19.5 103.4-4.4 103.4-4.4-8.7-7-28-21.1-33-29 50.2 29.3 82.8 1.1 82.8 1.1z"/>
				<path id="&lt;Path&gt;" class="s2" d="m1368.5 1198.6q-0.2-0.2-0.4-0.4c-5-4.9-9.7-10.1-14.3-16q-0.3-0.3-0.5-0.6c-5.6-7-11.2-14.9-17.9-24.3-9.3-13.3-11.4-26.7-11.4-26.7l-15.6-17.5-7-7.7-13-14.7-0.5-0.4-39.5-44.3-32.1 50-0.3 0.5-10.6 16.4-5.7 8.8-12.6 19.7c0 0 0 13.6-7.2 28.3-5 10.3-9.3 18.9-13.7 26.8q-0.2 0.3-0.4 0.6c-3.7 6.6-7.5 12.4-11.7 18q-0.2 0.3-0.4 0.5c-7 9.3-15.5 17.9-27.3 27.6 1.4 3.8 40.1 6.2 49.5-8.9-0.2 0.4-8.9 26.8-14.8 28.7 0 0 3.5-0.7 8.8-2.8 8-3.1 20-9.2 30.2-20.7q0.2-0.3 0.4-0.5c4.6-5.3 8.8-11.6 12.1-19.3 0 0.3-1.2 11.5-2.6 22.9q-0.1 0.3-0.1 0.7c-1.1 9-2.4 17.9-3.4 21.7 0 0 7.3-4.5 17.7-17.1q0.2-0.3 0.4-0.6c6.3-7.7 13.7-18.5 21.2-33.1 0 0.4-9.1 48-10.2 50.3 0 0 10.8-4.2 21.7-15.9 15.1-16.2 15.2-21.2 17.9-29.5 1.3-2.6 2.1-5.2 2.2-7.3q0-0.1 0-0.1c5.7 14.5 10.7 21.3 21.8 32.2 11.8 11.7 25.1 11.7 25.1 11.7-1.7-3.5-4.3-12.2-6.9-20.9q-0.1-0.3-0.1-0.6c-3.2-11-6.2-21.9-6.3-22.2 4.5 7 9.7 12.7 15 17.1q0.3 0.2 0.6 0.5c11.8 9.7 24.6 13.9 33 15.7 5.6 1.2 9.2 1.3 9.2 1.3-6.2-1-19-25.6-19.1-26 11.5 13.5 49.4 5 50.2 1.1-13.2-7.8-22.9-15-31.4-23z"/>
				<path id="&lt;Path&gt;" class="s1" d="m1313.6 1091.7c-2.9-5.1-5.6-10.1-8.1-14.8q-0.1-0.3-0.2-0.5c-10-19.2-16.5-35-18.6-40.1l-38.9 3.1-38.9 3.1c-1.2 5.3-5.1 21.9-11.9 42.4q-0.1 0.3-0.2 0.6c-1.7 5.1-3.6 10.4-5.7 15.9-11.3 30.1-28.2 64.2-51.1 83.7 0 0 21.4 0.9 40.2-12.1 5-3.5 9.8-7.9 14-13.7 0 0.4-3.2 22.8-6.5 27.9 0.4-0.2 23.9-12.5 31.5-30.5 0 0.3-1.2 13.2-2.9 28.2q-0.1 0.4-0.1 0.8c-0.4 3.2-0.8 6.6-1.1 9.9-0.5 4.5-1.1 8.9-1.6 13.1 4.2-2.9 9.1-7 13.6-12.6 5.4-6.5 10.3-15.1 13.5-26.5q0.1-0.5 0.2-1c1.3-4.7 2.2-10 2.7-15.7 0 0 6.2 31.6 17.2 48.7 7.9-16.8 9.3-50.8 9.3-50.8q2.1 8.4 5.2 15.1 0.2 0.4 0.3 0.9c5 10.8 11.2 18.5 17.5 24.1 5.4 4.8 10.8 8 15.5 10.2-1.2-4-2.4-8.3-3.6-12.6-1-3.2-1.9-6.5-2.7-9.6q-0.1-0.4-0.2-0.8c-4.1-14.5-7.3-27-7.4-27.3 10.3 16.5 35.5 24.9 35.9 25.1-4-4.6-10.7-26.2-10.8-26.5 5 5 10.5 8.6 16 11.2 20.6 9.9 41.7 5.7 41.7 5.7-25.8-15.7-47.8-46.7-63.8-74.6z"/>
				<path id="&lt;Path&gt;" class="s1" d="m1363.5 1100.8c0 0-16.1-17.4-31.6-39.1q-0.2-0.3-0.5-0.6c-7.3-10.4-14.5-21.8-19.8-32.8l-80.5-173.2-48 183.4c-3.4 11.7-8.7 24-14.4 35.5q-0.1 0.3-0.3 0.6c-11.9 24-25.1 43.7-25.1 43.7 12.3 2.9 25.1-2.7 34.2-8.5 7.7-4.8 12.8-9.8 12.9-10-1.8 10.5-29.8 45.6-29.8 45.6 9.1 2.1 21.8-2.4 27.8-6.5 3.3-2.2 6.4-4.6 9.2-7.2 7.2-6.6 13.1-13.8 17.7-20q0.2-0.3 0.4-0.6c6.4-8.8 9.8-15.4 9.8-15.4-0.3 3.5-1.8 10.5-3.5 18.4q-0.1 0.4-0.2 0.9c-3.8 16.7-9.1 37.1-9.1 37.1 10.9-1.5 28.1-13.6 36.1-29.1 0.2-0.2 0.3-0.5 0.4-0.7 2.4-4.8 7.4-26.8 7.6-31.9 1.9 6.9 3.6 24.6 9.4 35.1 8.8 16.1 23.1 19.9 34.1 19.7 0 0-8.4-19.3-14.8-35.3q-0.1-0.4-0.3-0.7c-3-7.6-5.6-14.3-6.4-17.7 0 0 4.4 6 12.1 13.6q0.2 0.3 0.5 0.6c5.5 5.4 12.5 11.6 20.6 16.9 3.2 2.1 6.6 4 10.2 5.7 6.6 3.1 19.4 5 27-0.2 0 0-31.7-28-35.1-38 0.2 0.1 6 4.1 14.3 7.7 9.9 4.3 23.5 7.9 35.1 3z"/>
				<path id="&lt;Path&gt;" class="s2" d="m1320.2 1019.1q-0.2-0.2-0.3-0.3c-3.5-3.4-6.7-7-9.9-11.1q-0.2-0.1-0.4-0.3c-3.8-4.9-7.7-10.4-12.3-16.9-6.4-9.1-7.9-18.4-7.9-18.4l-10.8-12-4.8-5.4-9-10.1-0.3-0.3-27.3-30.6-22.1 34.5-0.2 0.4-7.3 11.3-4 6.1-8.7 13.6c0 0 0 9.4-4.9 19.5-3.5 7.1-6.5 13.1-9.5 18.5q-0.2 0.2-0.3 0.5c-2.5 4.4-5.1 8.5-8.1 12.4q-0.1 0.2-0.2 0.3c-4.9 6.4-10.7 12.4-18.9 19.1 1 2.5 27.8 4.3 34.2-6.2-0.1 0.3-6.2 18.5-10.3 19.8 0 0 2.5-0.5 6.2-1.9 5.4-2.1 13.7-6.4 20.8-14.3q0.1-0.2 0.3-0.4c3.2-3.6 6.1-8 8.4-13.3-0.1 0.2-0.9 7.9-1.9 15.8q0 0.3 0 0.5c-0.8 6.2-1.7 12.4-2.4 14.9 0 0 5.1-3 12.2-11.7q0.2-0.2 0.3-0.4c4.4-5.4 9.5-12.8 14.6-22.9 0 0.3-11.2 46.9-11.2 46.9 0 0 14.4-9 20.4-17.5 6.7-9.4 9.3-20.3 11.1-25.9 0.9-1.9 1.5-3.7 1.6-5.1q0-0.1 0-0.1c3.9 10 7.3 14.7 15 22.2 8.2 8.1 17.3 8.1 17.3 8.1-1.1-2.4-3-8.4-4.7-14.4q-0.1-0.2-0.1-0.4c-2.2-7.6-4.2-15.2-4.3-15.4 3.1 4.9 6.6 8.8 10.3 11.9q0.2 0.1 0.4 0.3c8.2 6.7 17 9.5 22.8 10.8 3.9 0.8 6.4 1 6.4 1-4.3-0.7-13.1-17.8-13.3-18 8 9.3 34.2 3.4 34.7 0.7-9.1-5.4-15.8-10.3-21.6-15.8z"/>
				<path id="&lt;Path&gt;" class="s1" d="m1284.4 925.1q-3.5-6.1-6.4-11.8c-0.1-0.1 2.7-0.5 2.7-0.7-8-15.3-16.1-27.6-17.7-31.7l-28.2 2.2-29 2.3c-1 4.3-6.2 17.7-11.6 34.1-0.1 0.2 1.9 0.2 1.8 0.3-1.3 4.1-2.8 8.3-4.5 12.7-9 24.1-24.6 51.4-42.9 67.1 0 0 17.1 0.6 32.2-9.8 3.9-2.7 7.8-6.3 11.1-10.8 0 0.3-10.1 18.9-12.8 23 0.3-0.1 26.8-10.8 32.8-25.1 0 0.2-1 10.5-2.3 22.5q0 0.3-0.1 0.6c-0.3 2.6-0.6 5.3-0.9 8-0.4 3.5-0.8 7.1-1.3 10.4 3.4-2.4 7.3-5.6 10.9-10 4.3-5.2 8.3-12.1 10.8-21.3q0.1-0.4 0.2-0.8c1-3.8 1.7-7.9 2.2-12.5 0 0 4.9 25.3 13.7 39 6.3-13.5 7.4-40.7 7.4-40.7 1.1 4.5 2.5 8.5 4.1 12.1q0.2 0.3 0.3 0.7c4 8.7 8.9 14.8 14 19.3 4.3 3.8 8.6 6.4 12.4 8.1-1-3.2-2-6.6-3-10-0.7-2.6-1.4-5.2-2.1-7.7q-0.1-0.4-0.2-0.7c-3.2-11.6-5.8-21.6-5.8-21.8 8.2 13.2 40.8 20.6 41.2 20.7-3.3-3.7-21.1-21.5-21.2-21.8 4 4 8.4 6.9 12.8 9 16.5 7.9 33.3 4.5 33.3 4.5-20.6-12.5-41.1-37-53.9-59.4z"/>
				<path id="&lt;Path&gt;" class="s1" d="m1310.1 926.8c0 0-10.4-11.2-20.5-25.3q-0.1-0.2-0.3-0.4c-4.8-6.8-9.4-14.2-12.8-21.3l-52.2-112.3-31.2 118.9c-2.2 7.6-5.7 15.6-9.3 23q-0.1 0.3-0.2 0.5c-7.7 15.5-16.3 28.3-16.3 28.3 7.9 1.9 16.3-1.8 22.2-5.5 4.9-3.2 8.3-6.4 8.3-6.5-1.1 6.8-13.6 31.5-13.6 31.5 4.2-1.3 8.5-3.5 12.4-6.1 2.1-1.5 4.1-3 5.9-4.7 4.7-4.3 8.5-9 11.5-13q0.1-0.2 0.3-0.4c4.1-5.7 6.3-10 6.3-10-0.2 2.3-1.1 6.9-2.3 12q-0.1 0.3-0.1 0.5c-2.5 10.9-5.9 24.1-5.9 24.1 7.1-0.9 18.2-8.8 23.4-18.8q0.1-0.3 0.3-0.5c1.5-3.1 2.5-6.4 2.6-9.7 0.6 3.2 2.1 6.3 4.1 9.1q0.2 0.2 0.3 0.5c6.8 9 19 15.1 26.1 14.9 0 0-5.4-12.5-9.6-22.9q-0.1-0.2-0.2-0.5c-1.9-4.8-3.6-9.2-4.1-11.4 0 0 2.8 3.9 7.8 8.8q0.2 0.2 0.3 0.4c3.6 3.5 8.2 7.5 13.4 11 2.1 1.4 4.3 2.6 6.6 3.7 4.3 2 8.9 3.4 13.3 4.1 0 0-16.3-22.4-18.5-29 0.1 0.2 3.9 2.8 9.2 5.1 6.5 2.8 15.3 5.1 22.8 1.9z"/>
			</g>
		</g>
		<g id="&lt;Group&gt; copy 4">
			<g id="&lt;Group&gt;">
				<path id="&lt;Path&gt;" class="s1" d="m1693.7 1279c-29.1-13.6-60.2-31.2-80.6-67.9-7.1-12.6-13.4-24.5-18.6-34.7q-0.1-0.3-0.3-0.7 0 0 0 0c-9-17.6-14.5-29.4-14.5-29.4-6.3-8.6-19.7-11.8-35.3-10-4.8 0.5-9.7 1.5-14.7 3-13.9 4.1-28.2 11.6-39.7 22.5-13-8.9-28.2-14.1-42.5-16-5.2-0.6-10.3-0.9-15.1-0.6-15.7 0.7-28.5 6-33.3 15.4 0 0-3.6 12.6-9.7 31.4q0 0 0 0-0.1 0.3-0.2 0.7c-3.5 10.8-7.9 23.6-12.8 37.2-14.4 39.4-42.4 61.8-69 79.7 0 0 57.3 27.5 113.9-18.5-4.6 10.7-26.1 24.9-35.4 35.3 0 0 76.6 21.3 116.6-7.1 43.2 24.3 129-5.5 129-5.5-10.8-8.8-34.9-26.2-41.2-36.1 62.7 36.5 103.4 1.3 103.4 1.3z"/>
				<path id="&lt;Path&gt;" class="s1" d="m1624.2 1153q-0.2-0.3-0.5-0.5c-6.4-6.1-12.1-12.6-17.9-19.9q-0.3-0.4-0.6-0.7c-7-8.8-14-18.7-22.3-30.4-11.7-16.6-14.3-33.3-14.3-33.3l-19.5-21.8-8.7-9.7-16.2-18.3-0.6-0.5-49.3-55.3-40.1 62.4-0.4 0.6-13.2 20.5-7 11-15.8 24.6c0 0 0 16.9-8.9 35.2-6.3 12.9-11.7 23.7-17.2 33.4q-0.2 0.5-0.5 0.9c-4.6 8.1-9.3 15.4-14.6 22.5q-0.2 0.2-0.4 0.5c-8.8 11.6-19.3 22.3-34.1 34.5 1.8 4.7 50.1 7.7 61.7-11.1-0.1 0.5-11.1 33.4-18.5 35.7 0 0 4.4-0.8 11.1-3.4 9.9-3.9 24.9-11.6 37.6-25.9q0.3-0.3 0.6-0.6c5.7-6.6 11-14.5 15.1-24.1-0.1 0.4-1.5 14.4-3.3 28.6q-0.1 0.4-0.1 0.9c-1.4 11.2-3 22.3-4.3 27 0 0 9.2-5.6 22.1-21.3q0.3-0.3 0.5-0.7c7.9-9.7 17.1-23.1 26.5-41.3-0.1 0.4-11.4 59.8-12.8 62.8 0 0 13.5-5.3 27.2-19.9 18.8-20.2 18.9-26.5 22.2-36.8 1.6-3.3 2.6-6.4 2.8-9.1q0-0.1 0-0.1c7.1 18 13.4 26.5 27.2 40.2 14.8 14.6 31.2 14.6 31.2 14.6-2-4.5-5.3-15.3-8.5-26.1q-0.1-0.4-0.2-0.8c-4-13.8-7.6-27.4-7.8-27.7 5.6 8.8 12.1 15.8 18.8 21.4q0.3 0.2 0.6 0.5c14.8 12.1 30.8 17.4 41.3 19.6 6.9 1.5 11.4 1.7 11.4 1.7-7.7-1.2-23.6-32-23.9-32.4 14.5 16.8 61.7 6.2 62.7 1.3-16.5-9.7-28.6-18.7-39.1-28.7z"/>
				<path id="&lt;Path&gt;" class="s2" d="m1555.7 1019.6c-3.6-6.3-7-12.5-10.1-18.5q-0.2-0.3-0.4-0.6c-12.4-24-20.5-43.6-23.1-50l-48.5 3.9-48.5 3.8c-1.5 6.7-6.4 27.3-14.9 53q-0.2 0.3-0.3 0.7c-2.1 6.4-4.4 13-7 19.8-14.2 37.6-35.3 80.1-63.9 104.5 0 0 26.7 1.1 50.2-15.2 6.3-4.3 12.3-9.8 17.5-16.9 0 0.4-4.1 28.2-8.1 34.7 0.4-0.3 29.9-15.6 39.3-38 0 0.4-1.6 16.4-3.7 35.1q0 0.5-0.1 1c-0.4 4.1-0.9 8.2-1.4 12.4-0.6 5.6-1.3 11.1-2 16.3 5.3-3.7 11.4-8.7 17.1-15.7 6.6-8.1 12.8-18.8 16.7-33.1q0.2-0.6 0.4-1.2c1.5-5.9 2.7-12.5 3.3-19.6 0 0 7.8 39.4 21.5 60.8 9.9-21.1 11.6-63.4 11.6-63.4 1.7 6.9 3.9 13.2 6.4 18.8q0.2 0.5 0.5 1.1c6.1 13.5 13.9 23.2 21.8 30.1 6.7 6 13.5 10 19.3 12.8-1.5-5-3.1-10.4-4.6-15.8-1.1-4-2.2-8.1-3.3-12q-0.1-0.5-0.3-0.9c-5-18.2-9.1-33.8-9.1-34.2 12.8 20.6 44.3 31.2 44.8 31.4-5-5.8-13.4-32.6-13.5-33 6.3 6.1 13.1 10.7 19.9 14 25.8 12.3 52 7 52 7-32.1-19.6-59.6-58.2-79.5-93.1z"/>
				<path id="&lt;Path&gt;" class="s1" d="m1617.9 1031c0 0-20.1-21.6-39.4-48.8q-0.3-0.4-0.6-0.7c-9.2-13-18.2-27.3-24.7-40.9l-100.4-216.1-60 228.8c-4.2 14.5-10.9 30-17.9 44.2q-0.2 0.4-0.4 0.9c-14.8 29.8-31.3 54.4-31.3 54.4 15.3 3.7 31.3-3.4 42.7-10.6 9.5-6 15.9-12.2 16.1-12.4-2.3 13.1-37.3 56.8-37.3 56.8 11.4 2.7 27.3-3 34.8-8 4.1-2.8 7.9-5.9 11.4-9 9-8.3 16.4-17.2 22.1-25q0.3-0.4 0.6-0.8c7.9-10.9 12.2-19.2 12.2-19.2-0.4 4.4-2.3 13.1-4.5 23q-0.1 0.5-0.2 1.1c-4.7 20.9-11.3 46.3-11.3 46.3 13.6-1.8 35-17 45-36.3 0.2-0.3 0.4-0.6 0.5-0.9 2.9-6 9.3-33.4 9.5-39.8 2.4 8.7 4.5 30.7 11.6 43.8 11.1 20 28.9 24.9 42.6 24.5 0 0-10.4-24.1-18.4-44q-0.2-0.4-0.4-0.9c-3.8-9.4-6.9-17.8-8-22 0 0 5.5 7.5 15.1 17q0.3 0.3 0.7 0.7c6.8 6.8 15.6 14.5 25.7 21.1 3.9 2.6 8.2 5 12.7 7.1 8.2 3.9 24.2 6.3 33.7-0.3 0 0-39.6-34.9-43.8-47.4 0.2 0.1 7.4 5.2 17.8 9.7 12.4 5.3 29.3 9.8 43.8 3.7z"/>
				<path id="&lt;Path&gt;" class="s2" d="m1563.9 929q-0.2-0.2-0.4-0.4c-4.4-4.2-8.3-8.6-12.4-13.7q-0.2-0.3-0.4-0.5c-4.8-6-9.7-12.9-15.3-21-8.1-11.4-10-23-10-23l-13.4-15-6-6.7-11.2-12.6-0.4-0.4-34-38.1-27.7 43-0.3 0.5-9.1 14.1-4.8 7.6-10.9 17c0 0 0 11.7-6.2 24.3-4.4 8.9-8.1 16.3-11.9 23.1q-0.1 0.2-0.3 0.6c-3.2 5.6-6.4 10.6-10 15.4q-0.2 0.2-0.4 0.4c-6 8-13.3 15.5-23.5 23.9 1.2 3.2 34.6 5.3 42.6-7.7-0.1 0.3-7.6 23-12.7 24.6 0 0 3-0.5 7.6-2.3 6.8-2.7 17.2-8 26-17.9q0.2-0.2 0.3-0.4c4-4.6 7.6-10 10.5-16.6-0.1 0.2-1.1 9.9-2.3 19.7q0 0.3-0.1 0.6c-0.9 7.7-2.1 15.4-2.9 18.6 0 0 6.3-3.8 15.2-14.6q0.2-0.3 0.4-0.5c5.4-6.7 11.8-16 18.2-28.5 0 0.2-13.9 58.4-13.9 58.4 0 0 17.9-11.2 25.4-21.8 8.3-11.7 11.6-25.3 13.9-32.4 1.1-2.3 1.7-4.5 1.9-6.3q0-0.1 0-0.1c4.9 12.5 9.2 18.3 18.7 27.8 10.2 10 21.6 10 21.6 10-1.4-3.1-3.7-10.5-5.9-18q0-0.2-0.1-0.5c-2.8-9.5-5.3-18.9-5.4-19.1 3.9 6 8.3 10.9 12.9 14.7q0.2 0.2 0.5 0.4c10.2 8.3 21.3 12 28.5 13.5 4.8 1 7.9 1.2 7.9 1.2-5.3-0.8-16.3-22.1-16.5-22.4 10 11.6 42.5 4.3 43.3 0.9-11.4-6.7-19.8-12.9-27-19.8z"/>
				<path id="&lt;Path&gt;" class="s1" d="m1519.2 811.8c-2.8-5-5.5-10-8-14.7-0.1-0.2 3.5-0.7 3.4-0.9-10-19.1-20.1-34.5-22.1-39.6l-35.1 2.8-36.3 2.9c-1.2 5.3-7.6 22-14.4 42.5-0.1 0.2 2.4 0.2 2.3 0.4-1.7 5-3.6 10.4-5.7 15.8-11.3 30-30.7 64.2-53.5 83.7 0 0 21.3 0.8 40.1-12.1 5-3.5 9.8-7.9 14-13.6-0.1 0.4-12.7 23.6-16 28.7 0.4-0.2 33.3-13.4 40.9-31.3 0 0.3-1.3 13.1-2.9 28q-0.1 0.5-0.1 0.8-0.6 4.9-1.2 9.9c-0.5 4.5-1 8.9-1.6 13 4.3-2.9 9.1-6.9 13.7-12.4 5.3-6.5 10.3-15.1 13.4-26.5q0.1-0.5 0.2-1c1.3-4.7 2.2-9.9 2.7-15.7 0 0 6.2 31.6 17.2 48.7 7.9-16.9 9.2-50.8 9.2-50.8 1.4 5.6 3.2 10.6 5.2 15.1q0.2 0.4 0.3 0.9c5 10.8 11.2 18.5 17.5 24.1 5.3 4.7 10.7 7.9 15.4 10.1-1.2-4-2.4-8.3-3.6-12.5-0.9-3.3-1.8-6.5-2.7-9.6q-0.1-0.5-0.2-0.8c-4-14.6-7.3-27-7.3-27.3 10.2 16.5 51 25.7 51.3 25.8-4-4.6-26.2-26.8-26.3-27.1 5 5 10.4 8.6 15.9 11.2 20.6 9.8 41.5 5.6 41.5 5.6-25.6-15.6-51.2-46.2-67.2-74.1z"/>
				<path id="&lt;Path&gt;" class="s2" d="m1551.3 813.9c0 0-13-14-25.6-31.6q-0.1-0.3-0.3-0.5c-6-8.4-11.8-17.7-16-26.5l-65.2-140.3-38.9 148.5c-2.8 9.5-7 19.5-11.6 28.7q-0.2 0.3-0.3 0.5c-9.6 19.4-20.3 35.4-20.3 35.4 9.9 2.4 20.3-2.2 27.7-6.9 6.2-3.9 10.3-7.9 10.4-8-1.4 8.4-17 39.2-17 39.2 5.2-1.6 10.6-4.3 15.4-7.6 2.7-1.8 5.2-3.8 7.5-5.8 5.8-5.4 10.6-11.2 14.3-16.2q0.1-0.3 0.3-0.5c5.1-7.1 8-12.5 8-12.5-0.3 2.8-1.5 8.5-2.9 15q-0.1 0.3-0.2 0.6c-3 13.6-7.3 30-7.3 30 8.8-1.1 22.7-11 29.2-23.5q0.2-0.3 0.3-0.6c1.9-3.8 3.1-7.9 3.3-12.1 0.8 4.1 2.6 7.9 5.1 11.4q0.2 0.3 0.4 0.6c8.5 11.4 23.7 18.9 32.6 18.6 0 0-6.8-15.6-12-28.5q-0.1-0.3-0.3-0.6c-2.4-6.1-4.4-11.6-5.1-14.3 0 0 3.6 4.9 9.7 11q0.2 0.2 0.5 0.5c4.4 4.4 10.1 9.4 16.6 13.7 2.6 1.7 5.4 3.3 8.3 4.6 5.3 2.5 11 4.3 16.5 5.1 0 0-20.3-27.9-23.1-36.1 0.2 0.1 4.9 3.4 11.6 6.3 8.1 3.5 19 6.4 28.4 2.4z"/>
			</g>
		</g>
	</g>
</svg>