<?xml version="1.0" encoding="UTF-8" standalone="no"?>
<svg
   xmlns:dc="http://purl.org/dc/elements/1.1/"
   xmlns:cc="http://creativecommons.org/ns#"
   xmlns:rdf="http://www.w3.org/1999/02/22-rdf-syntax-ns#"
   xmlns:svg="http://www.w3.org/2000/svg"
   xmlns="http://www.w3.org/2000/svg"
   viewBox="0 0 1866.6667 1666.6667"
   height="1666.6667"
   width="1866.6667"
   xml:space="preserve"
   id="svg2"
   version="1.1"><metadata
     id="metadata8"><rdf:RDF><cc:Work
         rdf:about=""><dc:format>image/svg+xml</dc:format><dc:type
           rdf:resource="http://purl.org/dc/dcmitype/StillImage" /></cc:Work></rdf:RDF></metadata><defs
     id="defs6"><clipPath
       id="clipPath26"
       clipPathUnits="userSpaceOnUse"><path
         id="path24"
         d="M 1565,280 H 12915 V 11595 H 1565 Z" /></clipPath></defs><g
     transform="matrix(1.3333333,0,0,-1.3333333,0,1666.6667)"
     id="g10"><g
       transform="scale(0.1)"
       id="g12"><path
         id="path16"
         style="fill:#e6e6e6;fill-opacity:1;fill-rule:nonzero;stroke:none"
         d="M 12130.6,6041.9 C 12059.1,4426 11085,2926.7 9313.2,2104.6 8200.7,1588.4 6906.8,1473.9 5720.9,1786.7 c -708.7,186.8 -1519.7,595.4 -1852.7,1289.6 -365.3,761.3 -188.5,1299.1 86.1,2052.9 741.1,2033.6 -1312.4,2540.3 -408.4,3898.3 583.4,876.3 1441.1,1564.6 2425.1,1926 19.9,7.4 39.9,14.5 60,21.5 296.1,104.3 603.4,179 917.7,220.4 1569.7,206.7 3033.1,-623.3 4009.5,-1830 404,-499.1 701.5,-1027.8 896.2,-1565.7 211.5,-583.7 301.9,-1178.3 276.2,-1757.8" /><path
         id="path18"
         style="fill:#e6e6e6;fill-opacity:1;fill-rule:nonzero;stroke:none"
         d="m 3148.32,4634.74 c 415.8,647.68 723.25,2019.35 -128.13,2858.91 -532.41,525 -1094.83,-1231.69 -756.79,-2353.12 338.04,-1121.44 488.73,-1122.9 884.92,-505.79" /><g
         id="g20"><g
           clip-path="url(#clipPath26)"
           id="g22">
          <path
             id="path116"
             style="fill:#cccccc;fill-opacity:1;fill-rule:nonzero;stroke:none"
             d="m 6275,1672.6 c -186.61,27.9 -371.56,66 -554.1,114.1 -31.8,8.4 -63.75,17.2 -95.9,26.5 V 4005 h 650 V 1672.6 m 0,2492.4 h -650 v 3480 h 650 V 4165 m 0,3640 h -650 v 3005.7 c 113.4,52.1 228.77,99.7 346,142.8 19.9,7.4 39.9,14.5 60,21.5 80.53,28.4 161.89,54.6 244,78.5 V 7805" /><path
             id="path118"
             style="fill:#cccccc;fill-opacity:1;fill-rule:nonzero;stroke:none"
             d="M 8975,1962.1 V 4005 h 550 V 2208 c -69.28,-35.5 -139.89,-70 -211.8,-103.4 -111.02,-51.5 -223.85,-99 -338.2,-142.5 M 9525,4165 h -550 v 3480 h 550 V 4165 m 0,3640 h -550 v 820 h 550 v -820" /><path
             id="path120"
             style="fill:#dbdbdb;fill-opacity:1;fill-rule:nonzero;stroke:none"
             d="m 7067.4,1613.7 c -265.16,0 -530.25,19.5 -792.4,58.9 V 4005 H 8805 V 1900.8 c -96.94,-33.1 -194.75,-63.3 -293.45,-90.7 V 2225 h -444.14 v -518.1 c -329.43,-62 -664.8,-93.2 -1000.01,-93.2 m 254.49,611.3 v -560 h 444.15 v 560 h -444.15 m -745.51,0 v -560 h 444.14 v 560 h -444.14 m 1491.03,880 v -560 h 444.14 v 560 h -444.14 m -745.52,0 v -560 h 444.15 v 560 h -444.15 m -745.51,0 v -560 h 444.14 v 560 h -444.14 m 1491.03,880 v -560 h 444.14 v 560 h -444.14 m -745.52,0 v -560 h 444.15 v 560 h -444.15 m -745.51,0 v -560 h 444.14 v 560 H 6576.38 M 8805,4165 H 6275 V 7645 H 8805 V 4165 m -737.59,700 v -560 h 444.14 v 560 h -444.14 m -745.52,0 v -560 h 444.15 v 560 h -444.15 m -745.51,0 v -560 h 444.14 v 560 h -444.14 m 1491.03,880 v -560 h 444.14 v 560 h -444.14 m -745.52,0 v -560 h 444.15 v 560 h -444.15 m -745.51,0 v -560 h 444.14 v 560 h -444.14 m 1491.03,880 v -560 h 444.14 v 560 h -444.14 m -745.52,0 v -560 h 444.15 v 560 h -444.15 m -745.51,0 v -560 h 444.14 v 560 h -444.14 m 1491.03,880 v -560 h 444.14 v 560 h -444.14 m -745.52,0 v -560 h 444.15 v 560 h -444.15 m -745.51,0 v -560 h 444.14 v 560 H 6576.38 M 8805,7805 H 6275 v 3248.5 c 219.78,64 444.88,111.8 673.7,141.9 161.72,21.3 322.53,31.6 481.57,31.6 475.83,0 937.7,-92 1374.73,-256.7 V 7805 m -737.59,580 v -560 h 444.14 v 560 h -444.14 m -745.52,0 v -560 h 444.15 v 560 h -444.15 m -745.51,0 v -560 h 444.14 v 560 h -444.14 m 1491.03,880 v -560 h 444.14 v 560 h -444.14 m -745.52,0 v -560 h 444.15 v 560 h -444.15 m -745.51,0 v -560 h 444.14 v 560 h -444.14 m 1491.03,880 v -560 h 444.14 v 560 h -444.14 m -745.52,0 v -560 h 444.15 v 560 h -444.15 m -745.51,0 v -560 h 444.14 v 560 h -444.14 m 1491.03,880 v -560 h 444.14 v 560 h -444.14 m -745.52,0 v -560 h 444.15 v 560 h -444.15 m -745.51,0 v -560 h 444.14 v 560 h -444.14" /><path
             id="path122"
             style="fill:#cccccc;fill-opacity:1;fill-rule:nonzero;stroke:none"
             d="m 6576.38,10465 h 444.141 v 560 H 6576.38 Z" />
             
             <path
             id="path124"
             style="fill:#cccccc;fill-opacity:1;fill-rule:nonzero;stroke:none"
             d="m 7321.89,10465 h 444.148 v 560 H 7321.89 Z" /><path
             id="path126"
             style="fill:#cccccc;fill-opacity:1;fill-rule:nonzero;stroke:none"
             d="m 8067.41,10465 h 444.141 v 560 H 8067.41 Z" /><path
             id="path128"
             style="fill:#cccccc;fill-opacity:1;fill-rule:nonzero;stroke:none"
             d="m 6576.38,9585 h 444.141 v 560 H 6576.38 Z" /><path
             id="path130"
             style="fill:#cccccc;fill-opacity:1;fill-rule:nonzero;stroke:none"
             d="m 7321.89,9585 h 444.148 v 560 H 7321.89 Z" /><path
             id="path132"
             style="fill:#cccccc;fill-opacity:1;fill-rule:nonzero;stroke:none"
             d="m 8067.41,9585 h 444.141 v 560 H 8067.41 Z" /><path
             id="path134"
             style="fill:#cccccc;fill-opacity:1;fill-rule:nonzero;stroke:none"
             d="m 6576.38,8705 h 444.141 v 560 H 6576.38 Z" /><path
             id="path136"
             style="fill:#cccccc;fill-opacity:1;fill-rule:nonzero;stroke:none"
             d="m 7321.89,8705 h 444.148 v 560 H 7321.89 Z" /><path
             id="path138"
             style="fill:#cccccc;fill-opacity:1;fill-rule:nonzero;stroke:none"
             d="m 8067.41,8705 h 444.141 v 560 H 8067.41 Z" /><path
             id="path140"
             style="fill:#cccccc;fill-opacity:1;fill-rule:nonzero;stroke:none"
             d="m 6576.38,7825 h 444.141 v 560 H 6576.38 Z" /><path
             id="path142"
             style="fill:#cccccc;fill-opacity:1;fill-rule:nonzero;stroke:none"
             d="m 7321.89,7825 h 444.148 v 560 H 7321.89 Z" /><path
             id="path144"
             style="fill:#cccccc;fill-opacity:1;fill-rule:nonzero;stroke:none"
             d="m 8067.41,7825 h 444.141 v 560 H 8067.41 Z" /><path
             id="path146"
             style="fill:#cccccc;fill-opacity:1;fill-rule:nonzero;stroke:none"
             d="m 6576.38,6945 h 444.141 v 560 H 6576.38 Z" /><path
             id="path148"
             style="fill:#cccccc;fill-opacity:1;fill-rule:nonzero;stroke:none"
             d="m 7321.89,6945 h 444.148 v 560 H 7321.89 Z" /><path
             id="path150"
             style="fill:#cccccc;fill-opacity:1;fill-rule:nonzero;stroke:none"
             d="m 8067.41,6945 h 444.141 v 560 H 8067.41 Z" /><path
             id="path152"
             style="fill:#cccccc;fill-opacity:1;fill-rule:nonzero;stroke:none"
             d="m 6576.38,6065 h 444.141 v 560 H 6576.38 Z" /><path
             id="path154"
             style="fill:#cccccc;fill-opacity:1;fill-rule:nonzero;stroke:none"
             d="m 7321.89,6065 h 444.148 v 560 H 7321.89 Z" /><path
             id="path156"
             style="fill:#cccccc;fill-opacity:1;fill-rule:nonzero;stroke:none"
             d="m 8067.41,6065 h 444.141 v 560 H 8067.41 Z" /><path
             id="path158"
             style="fill:#cccccc;fill-opacity:1;fill-rule:nonzero;stroke:none"
             d="m 6576.38,5185 h 444.141 v 560 H 6576.38 Z" /><path
             id="path160"
             style="fill:#cccccc;fill-opacity:1;fill-rule:nonzero;stroke:none"
             d="m 7321.89,5185 h 444.148 v 560 H 7321.89 Z" /><path
             id="path162"
             style="fill:#cccccc;fill-opacity:1;fill-rule:nonzero;stroke:none"
             d="m 8067.41,5185 h 444.141 v 560 H 8067.41 Z" /><path
             id="path164"
             style="fill:#cccccc;fill-opacity:1;fill-rule:nonzero;stroke:none"
             d="m 6576.38,4305 h 444.141 v 560 H 6576.38 Z" /><path
             id="path166"
             style="fill:#cccccc;fill-opacity:1;fill-rule:nonzero;stroke:none"
             d="m 7321.89,4305 h 444.148 v 560 H 7321.89 Z" /><path
             id="path168"
             style="fill:#cccccc;fill-opacity:1;fill-rule:nonzero;stroke:none"
             d="m 8067.41,4305 h 444.141 v 560 H 8067.41 Z" /><path
             id="path170"
             style="fill:#cccccc;fill-opacity:1;fill-rule:nonzero;stroke:none"
             d="m 6576.38,3425 h 444.141 v 560 H 6576.38 Z" /><path
             id="path172"
             style="fill:#cccccc;fill-opacity:1;fill-rule:nonzero;stroke:none"
             d="m 7321.89,3425 h 444.148 v 560 H 7321.89 Z" /><path
             id="path174"
             style="fill:#cccccc;fill-opacity:1;fill-rule:nonzero;stroke:none"
             d="m 8067.41,3425 h 444.141 v 560 H 8067.41 Z" /><path
             id="path176"
             style="fill:#cccccc;fill-opacity:1;fill-rule:nonzero;stroke:none"
             d="m 6576.38,2545 h 444.141 v 560 H 6576.38 Z" /><path
             id="path178"
             style="fill:#cccccc;fill-opacity:1;fill-rule:nonzero;stroke:none"
             d="m 7321.89,2545 h 444.148 v 560 H 7321.89 Z" /><path
             id="path180"
             style="fill:#cccccc;fill-opacity:1;fill-rule:nonzero;stroke:none"
             d="m 8067.41,2545 h 444.141 v 560 H 8067.41 Z" /><path
             id="path182"
             style="fill:#cccccc;fill-opacity:1;fill-rule:nonzero;stroke:none"
             d="m 6576.38,1665 h 444.141 v 560 H 6576.38 Z" /><path
             id="path184"
             style="fill:#cccccc;fill-opacity:1;fill-rule:nonzero;stroke:none"
             d="m 7321.89,1665 h 444.148 v 560 H 7321.89 Z" /><path
             id="path186"
             style="fill:#cccccc;fill-opacity:1;fill-rule:nonzero;stroke:none"
             d="M 8067.41,1706.9 V 2225 h 444.14 v -414.9 c -146.42,-40.7 -294.76,-75.1 -444.14,-103.2" /><path
             id="path188"
             style="fill:#dbdbdb;fill-opacity:1;fill-rule:nonzero;stroke:none"
             d="M 10415.9,2778.83 V 2905 H 9965 v 280 h 450.9 v 800 H 9965 v 20 h 1544.2 c -93.9,-154.14 -198,-303.75 -312.4,-448.29 V 3985 h -465.2 v -800 h 136.8 c -139.6,-142.11 -290.6,-277.9 -452.5,-406.17" /><path
             id="path190"
             style="fill:#dbdbdb;fill-opacity:1;fill-rule:nonzero;stroke:none"
             d="M 11602,4165 H 9965 v 100 h 450.9 v 800 H 9965 v 280 h 450.9 v 800 H 9965 v 280 h 450.9 v 800 H 9965 v 280 h 450.9 v 140 h 315.7 v -140 h 465.2 v 140 h 315.6 v -140 h 438.3 c 123.2,-422.86 184,-849.12 184.2,-1269.03 0,-64.85 -1.4,-129.55 -4.3,-194.07 -14.7,-332.17 -67.5,-659.45 -157.6,-976.9 h -460.6 v -800 h 143.2 c -17.4,-33.49 -35.3,-66.88 -53.6,-100 m -870.4,900 v -800 h 465.2 v 800 h -465.2 m 780.8,1080 v -800 h 465.2 v 800 h -465.2 m -780.8,0 v -800 h 465.2 v 800 h -465.2 m 780.8,1080 v -800 h 465.2 v 800 h -465.2 m -780.8,0 v -800 h 465.2 v 800 h -465.2 m 780.8,580 h -315.6 v 500 h -465.2 v -500 h -315.7 v 500 H 9965 v 311.73 h 445 V 8615 h 1064.5 c 59,-102.62 114,-206.02 165,-310 h -127.1 v -500" /><path
             id="path192"
             style="fill:#dbdbdb;fill-opacity:1;fill-rule:nonzero;stroke:none"
             d="M 11474.5,8615 H 10410 v 420 h 797.3 c 96.8,-138.3 185.8,-278.42 267.2,-420" /><path
             id="path194"
             style="fill:#dbdbdb;fill-opacity:1;fill-rule:nonzero;stroke:none"
             d="M 11207.3,9035 H 10900 v 401.19 c 19.6,-23.42 39,-47.07 58.2,-70.79 88.1,-108.78 171.1,-219.02 249.1,-330.4" /><path
             id="path196"
             style="fill:#cccccc;fill-opacity:1;fill-rule:nonzero;stroke:none"
             d="M 10415.9,7505 H 9965 v 140 h 450.9 v -140 m 0,300 H 9965 v 500 h 450.9 v -500" /><path
             id="path198"
             style="fill:#cccccc;fill-opacity:1;fill-rule:nonzero;stroke:none"
             d="m 11196.8,7505 h -465.2 v 140 h 465.2 v -140 m 0,300 h -465.2 v 500 h 465.2 v -500" /><path
             id="path200"
             style="fill:#cccccc;fill-opacity:1;fill-rule:nonzero;stroke:none"
             d="m 11950.7,7505 h -438.3 v 140 h 395.1 c 15.2,-46.63 29.6,-93.27 43.2,-140 m -98.2,300 h -340.1 v 500 h 127.1 c 81.1,-165.36 152,-332.22 213,-500" /><path
             id="path202"
             style="fill:#cccccc;fill-opacity:1;fill-rule:nonzero;stroke:none"
             d="m 9965,6425 h 450.898 v 800 H 9965 Z" /><path
             id="path204"
             style="fill:#cccccc;fill-opacity:1;fill-rule:nonzero;stroke:none"
             d="m 10731.6,6425 h 465.199 v 800 H 10731.6 Z" /><path
             id="path206"
             style="fill:#cccccc;fill-opacity:1;fill-rule:nonzero;stroke:none"
             d="m 11512.4,6425 h 465.199 v 800 H 11512.4 Z" /><path
             id="path208"
             style="fill:#cccccc;fill-opacity:1;fill-rule:nonzero;stroke:none"
             d="m 9965,5345 h 450.898 v 800 H 9965 Z" /><path
             id="path210"
             style="fill:#cccccc;fill-opacity:1;fill-rule:nonzero;stroke:none"
             d="m 10731.6,5345 h 465.199 v 800 H 10731.6 Z" /><path
             id="path212"
             style="fill:#cccccc;fill-opacity:1;fill-rule:nonzero;stroke:none"
             d="m 11512.4,5345 h 465.199 v 800 H 11512.4 Z" /><path
             id="path214"
             style="fill:#cccccc;fill-opacity:1;fill-rule:nonzero;stroke:none"
             d="m 9965,4265 h 450.898 v 800 H 9965 Z" /><path
             id="path216"
             style="fill:#cccccc;fill-opacity:1;fill-rule:nonzero;stroke:none"
             d="m 10731.6,4265 h 465.199 v 800 H 10731.6 Z" /><path
             id="path218"
             style="fill:#cccccc;fill-opacity:1;fill-rule:nonzero;stroke:none"
             d="m 11655.6,4265 h -143.2 v 800 h 460.6 c -78.1,-275.13 -184,-542.76 -317.4,-800" /><path
             id="path220"
             style="fill:#cccccc;fill-opacity:1;fill-rule:nonzero;stroke:none"
             d="m 9965,3185 h 450.898 v 800 H 9965 Z" /><path
             id="path222"
             style="fill:#cccccc;fill-opacity:1;fill-rule:nonzero;stroke:none"
             d="m 10868.4,3185 h -136.8 v 800 h 465.2 v -428.29 c -101.5,-128.18 -210.9,-252.19 -328.4,-371.71" /><path
             id="path224"
             style="fill:#cccccc;fill-opacity:1;fill-rule:nonzero;stroke:none"
             d="M 9965,2459.3 V 2905 h 450.9 V 2778.83 C 10274,2666.43 10123.7,2559.77 9965,2459.3" /><path
             id="path226"
             style="fill:#dbdbdb;fill-opacity:1;fill-rule:nonzero;stroke:none"
             d="m 4865,2117.9 c -23.06,12.3 -46.04,25 -68.81,37.8 V 2945 h -437.11 v -487.3 c -109.59,93.22 -209.63,195.35 -296.62,306.94 V 2945 h -123.71 c -25.41,42.58 -48.99,86.34 -70.55,131.3 -24.24,50.51 -46.09,100.03 -65.68,148.7 h 259.94 v 780 h 296.62 v -780 h 437.11 v 780 H 4865 V 2117.9" /><path
             id="path228"
             style="fill:#dbdbdb;fill-opacity:1;fill-rule:nonzero;stroke:none"
             d="M 4865,4165 H 3678.2 c 6.11,46.58 13.78,93.16 22.89,140 h 361.37 v 800 h -116.97 c 2.93,8.05 5.86,16.1 8.81,24.2 32.12,88.12 58.94,173.22 81.03,255.8 h 27.13 v 110.65 c 39.37,176.79 56.53,340.93 56.52,494.66 -0.01,181.74 -24.05,348.86 -63.8,504.69 H 4575 4865 V 4165 m -505.92,940 v -800 h 437.11 v 800 h -437.11 m 0,1080 v -800 h 437.11 v 800 h -437.11" /><path
             id="path230"
             style="fill:#dbdbdb;fill-opacity:1;fill-rule:nonzero;stroke:none"
             d="m 4575,6495 h -519.82 c -48.86,191.54 -121.48,366.06 -202.49,530 H 4575 v -530" /><path
             id="path232"
             style="fill:#dbdbdb;fill-opacity:1;fill-rule:nonzero;stroke:none"
             d="m 3625,7446.08 c -31.01,55.59 -61.27,110.49 -90,165.07 V 7645 h 90 v -198.92 m 0,358.92 h -90 v 230 h 90 v -230" /><path
             id="path234"
             style="fill:#cccccc;fill-opacity:1;fill-rule:nonzero;stroke:none"
             d="m 4062.46,5385 h -27.13 c 9.98,37.34 19.06,74.39 27.13,110.65 V 5385" /><path
             id="path236"
             style="fill:#cccccc;fill-opacity:1;fill-rule:nonzero;stroke:none"
             d="m 4359.08,5385 h 437.109 v 800 H 4359.08 Z" /><path
             id="path238"
             style="fill:#cccccc;fill-opacity:1;fill-rule:nonzero;stroke:none"
             d="m 4062.46,4305 h -361.37 c 48.98,252 139.03,510.22 244.4,800 h 116.97 v -800" /><path
             id="path240"
             style="fill:#cccccc;fill-opacity:1;fill-rule:nonzero;stroke:none"
             d="m 4359.08,4305 h 437.109 v 800 H 4359.08 Z" /><path
             id="path242"
             style="fill:#cccccc;fill-opacity:1;fill-rule:nonzero;stroke:none"
             d="m 4062.46,3225 h -259.94 c -99.52,247.2 -140.82,472.33 -140.92,692.21 -0.02,29.35 0.7,58.59 2.12,87.79 h 398.74 v -780" /><path
             id="path244"
             style="fill:#cccccc;fill-opacity:1;fill-rule:nonzero;stroke:none"
             d="m 4359.08,3225 h 437.109 v 780 H 4359.08 Z" /><path
             id="path246"
             style="fill:#cccccc;fill-opacity:1;fill-rule:nonzero;stroke:none"
             d="m 4062.46,2764.64 c -44.89,57.59 -86.31,117.72 -123.71,180.36 h 123.71 v -180.36" /><path
             id="path248"
             style="fill:#cccccc;fill-opacity:1;fill-rule:nonzero;stroke:none"
             d="m 4796.19,2155.7 c -155.39,87.8 -303.32,188.2 -437.11,302 V 2945 h 437.11 v -789.3" /><path
             id="path250"
             style="fill:#fafafa;fill-opacity:1;fill-rule:nonzero;stroke:none"
             d="m 5305,1919.5 c -148.74,56.1 -297.01,122.1 -440,198.4 V 4005 h 440 V 1919.5 m 0,2245.5 h -440 v 2330 1150 h 440 V 4165 m 0,3640 h -440 v 2570.1 c 141.87,98.9 288.71,190.4 440,274 V 7805" /><path
             id="path252"
             style="fill:#fafafa;fill-opacity:1;fill-rule:nonzero;stroke:none"
             d="m 9525,2208 v 1797 h 440 V 2459.3 C 9824.84,2370.5 9678.14,2286.6 9525,2208 m 440,1957 h -440 v 3480 h 440 v -140 -280 -800 -280 -800 -280 -800 -100 m 0,3640 h -440 v 820 1996.9 c 151.25,-90.1 298.07,-188.7 440,-295 V 8616.73 8305 7805" /><path
             id="path254"
             style="fill:#fafafa;fill-opacity:1;fill-rule:nonzero;stroke:none"
             d="M 11907.5,7645 H 3517.36 c -27.61,53.54 -53.52,106.7 -77.1,160 h 94.74 90 1240 440 320 650 2530 170 550 440 450.9 315.7 465.2 315.6 340.1 c 0.6,-1.77 1.3,-3.53 1.9,-5.3 18.7,-51.48 36.4,-103.07 53.1,-154.7" /><path
             id="path256"
             style="fill:#fafafa;fill-opacity:1;fill-rule:nonzero;stroke:none"
             d="M 11509.2,4005 H 3663.72 c 2.59,53.42 7.5,106.7 14.48,160 h 1186.8 440 320 650 2530 170 550 440 1637 c -29.7,-53.78 -60.7,-107.22 -92.8,-160" /></g></g><path
         id="path260"
         style="fill:#f9aa81;fill-opacity:1;fill-rule:nonzero;stroke:none"
         d="m 6543.82,8110.37 c 0,0 -7.67,-711.01 -279.39,-716.07 -271.71,-5.06 -442.44,220.17 -434.42,354.75 8.03,134.57 -20.06,473.11 270.11,527.46 196.69,36.85 460.92,-105.13 443.7,-166.14" /><path
         id="path262"
         style="fill:#000000;fill-opacity:1;fill-rule:nonzero;stroke:none"
         d="m 5916.2,7890.91 38.28,50.04 41.47,193.63 c 0,0 255.76,-181.43 262.29,-124.01 6.53,57.41 -25.56,85.12 -25.56,85.12 0,0 155.07,-147.91 206.33,-121.24 51.26,26.67 16.67,83.44 16.67,83.44 0,0 111.82,-145.88 159.12,-101.02 47.3,44.88 65.49,310.93 -235.78,471.56 -301.27,160.62 -412.88,-25.75 -412.88,-25.75 0,0 -104.25,-4.96 -182.68,-122.06 C 5671.41,8113.33 5805,7696.2 5805,7696.2 l 38.94,-22.24 11.8,41.8 60.46,175.15" /><path
         id="path264"
         style="fill:#f9aa81;fill-opacity:1;fill-rule:nonzero;stroke:none"
         d="m 5937.24,7888.21 c 0,0 -104.79,95.45 -157.13,30.74 -52.34,-64.73 -52.91,-171.32 90.04,-179.88 142.95,-8.55 67.09,149.14 67.09,149.14" /><path
         id="path266"
         style="fill:#000000;fill-opacity:1;fill-rule:nonzero;stroke:none"
         d="m 6338.41,7652.59 c -22.35,0 -41.53,9.7 -42.56,10.21 -1.84,0.95 -2.56,3.22 -1.62,5.05 0.95,1.86 3.22,2.56 5.05,1.63 0.3,-0.16 29.71,-14.98 56.14,-7.02 4.55,1.37 7.39,3.43 8.7,6.31 3.5,7.7 -3.14,22.3 -10.17,37.75 -5.3,11.67 -11.32,24.9 -14.45,38.11 -8.57,36.16 -7.49,68.49 -7.43,69.84 0.07,2.07 2,3.73 3.88,3.62 2.07,-0.08 3.68,-1.82 3.61,-3.89 -0.01,-0.32 -1.09,-32.72 7.24,-67.83 2.97,-12.51 8.82,-25.38 13.98,-36.74 8.09,-17.79 15.07,-33.16 10.17,-43.97 -2.22,-4.89 -6.72,-8.38 -13.37,-10.39 -6.42,-1.92 -12.92,-2.68 -19.17,-2.68" /><path
         id="path268"
         style="fill:#000000;fill-opacity:1;fill-rule:nonzero;stroke:none"
         d="m 6243.62,7827.16 c -2.03,-16.44 -13,-28.62 -24.51,-27.19 -11.5,1.42 -19.19,15.9 -17.16,32.33 2.03,16.44 13.01,28.62 24.51,27.19 11.51,-1.41 19.19,-15.9 17.16,-32.33" /><path
         id="path270"
         style="fill:#000000;fill-opacity:1;fill-rule:nonzero;stroke:none"
         d="m 6453.27,7803.67 c -2.03,-16.43 -13,-28.61 -24.51,-27.19 -11.5,1.42 -19.19,15.9 -17.16,32.34 2.03,16.43 13,28.61 24.51,27.19 11.51,-1.42 19.19,-15.9 17.16,-32.34" /><path
         id="path272"
         style="fill:#000000;fill-opacity:1;fill-rule:nonzero;stroke:none"
         d="m 6268.33,7910.42 c -1.46,0 -2.94,0.25 -4.39,0.79 -0.32,0.12 -44.77,15.45 -120.44,-0.03 -6.75,-1.39 -13.36,2.97 -14.75,9.75 -1.38,6.76 2.98,13.36 9.74,14.74 84.09,17.19 133.75,-0.87 134.23,-1.05 6.46,-2.42 9.74,-9.63 7.31,-16.08 -1.88,-5.02 -6.64,-8.12 -11.7,-8.12" /><path
         id="path274"
         style="fill:#000000;fill-opacity:1;fill-rule:nonzero;stroke:none"
         d="m 6523.93,7869.51 c -3.44,0 -6.85,1.41 -9.32,4.16 -26.04,29.08 -84.61,14.96 -96.08,11.85 -1.07,-0.3 -2.92,-0.64 -4.03,-0.64 -6.9,0 -12.5,5.6 -12.5,12.5 0,5.95 4.15,10.92 9.72,12.19 20.27,5.5 86.69,19.67 121.51,-19.22 4.61,-5.14 4.17,-13.05 -0.97,-17.65 -2.39,-2.13 -5.37,-3.19 -8.33,-3.19" /><path
         id="path276"
         style="fill:#000000;fill-opacity:1;fill-rule:nonzero;stroke:none"
         d="m 5883.69,7848.56 -2.2,0.52 -62.62,30.81 c -2.48,1.21 -3.5,4.21 -2.28,6.69 1.22,2.48 4.23,3.49 6.69,2.28 l 62.62,-30.81 c 2.48,-1.21 3.5,-4.21 2.28,-6.69 -0.87,-1.77 -2.64,-2.8 -4.49,-2.8" /><path
         id="path278"
         style="fill:#000000;fill-opacity:1;fill-rule:nonzero;stroke:none"
         d="m 6299.04,7552.54 c -25.04,0 -70.53,11.48 -121.56,79.03 -1.25,1.65 -0.92,4.01 0.73,5.25 1.66,1.27 4,0.92 5.25,-0.74 71.99,-95.29 132.56,-73.79 133.17,-73.52 1.93,0.72 4.1,-0.24 4.83,-2.17 0.74,-1.92 -0.21,-4.09 -2.14,-4.83 -0.86,-0.35 -8.19,-3.02 -20.28,-3.02" /><path
         id="path280"
         style="fill:#f9aa81;fill-opacity:1;fill-rule:nonzero;stroke:none"
         d="M 5780.7,7267.37 C 5670,7100 5850,6930 5850,6930 c 0,0 409.98,80.05 340,220 -30,60 -33.09,116.35 -24.22,156.9 7.72,36.37 18.47,65.71 27.46,86.22 9.31,21.37 16.54,33.07 16.54,33.07 l -364.51,240.93 c 0,0 26.36,-262.25 -64.57,-399.75" /><path
         id="path282"
         style="fill:#000000;fill-opacity:1;fill-rule:nonzero;stroke:none"
         d="m 5972.9,7478.25 c 0,0 74.78,-128.34 192.88,-171.35 7.72,36.37 18.47,65.71 27.46,86.22 -40.15,-0.54 -123.42,9.53 -220.34,85.13" /><path
         id="path284"
         style="fill:#000000;fill-opacity:1;fill-rule:nonzero;stroke:none"
         d="m 5974.48,8399.84 c 0,0 -80.67,102.88 -102.91,63.95 -22.24,-38.94 102.91,-63.95 102.91,-63.95" /><path
         id="path286"
         style="fill:#000000;fill-opacity:1;fill-rule:nonzero;stroke:none"
         d="m 5974.48,8399.84 c 0,0 30.57,80.67 -11.14,89 -41.72,8.34 11.14,-89 11.14,-89" /><path
         id="path288"
         style="fill:#ffffff;fill-opacity:1;fill-rule:nonzero;stroke:none"
         d="m 4779.8,1643.3 533.67,2149.59 c 14.26,57.45 -20.75,115.59 -78.2,129.85 -57.45,14.26 -115.59,-20.75 -129.85,-78.2 -0.31,-1.23 -0.68,-2.88 -0.94,-4.11 L 4655.73,1671.5 c -7.12,-34.4 15.01,-68.1 49.42,-75.2 33.55,-6.9 66.42,14.1 74.65,47" /><path
         id="path290"
         style="fill:#000000;fill-opacity:1;fill-rule:nonzero;stroke:none"
         d="m 5209.45,3920.91 c -45.84,0 -87.65,-31.12 -99.18,-77.57 -0.29,-1.18 -0.65,-2.77 -0.9,-3.96 L 4660.63,1670.5 c -6.55,-31.6 13.88,-62.7 45.53,-69.3 30.9,-6.3 61.13,12.6 68.79,43.3 l 533.67,2149.59 c 13.57,54.69 -19.87,110.23 -74.56,123.8 -8.23,2.04 -16.48,3.02 -24.61,3.02 z M 4718.2,1590 c -4.64,0 -9.34,0.5 -14.06,1.4 -37.06,7.7 -60.97,44.1 -53.31,81.1 l 448.75,2168.95 c 0.28,1.3 0.66,3.01 0.98,4.28 14.91,60.04 75.86,96.76 135.91,81.87 60.04,-14.91 96.76,-75.88 81.86,-135.91 L 4784.65,1642.1 c -7.79,-31.2 -35.55,-52.1 -66.45,-52.1" /><path
         id="path292"
         style="fill:#ffffff;fill-opacity:1;fill-rule:nonzero;stroke:none"
         d="m 5628.49,1643.3 533.67,2149.59 c 14.26,57.45 -20.75,115.59 -78.2,129.85 -57.46,14.26 -115.6,-20.75 -129.86,-78.2 -0.31,-1.23 -0.67,-2.88 -0.94,-4.11 L 5504.42,1671.5 c -7.12,-34.4 15,-68.1 49.42,-75.2 33.54,-6.9 66.42,14.1 74.65,47" /><path
         id="path294"
         style="fill:#000000;fill-opacity:1;fill-rule:nonzero;stroke:none"
         d="m 6058.14,3920.91 c -45.85,0 -87.65,-31.12 -99.18,-77.57 -0.3,-1.19 -0.65,-2.77 -0.91,-3.96 L 5509.32,1670.5 c -6.55,-31.6 13.87,-62.7 45.53,-69.3 30.92,-6.3 61.12,12.6 68.79,43.3 l 533.66,2149.59 c 13.58,54.69 -19.86,110.22 -74.55,123.8 -8.23,2.04 -16.49,3.02 -24.61,3.02 z M 5566.89,1590 c -4.64,0 -9.34,0.5 -14.07,1.4 -37.05,7.7 -60.96,44.1 -53.3,81.1 l 448.75,2168.95 c 0.28,1.3 0.66,3.02 0.98,4.3 14.91,60.03 75.87,96.78 135.91,81.85 60.04,-14.91 96.75,-75.88 81.85,-135.91 L 5633.33,1642.1 c -7.79,-31.2 -35.55,-52.1 -66.44,-52.1" /><path
         id="path296"
         style="fill:#ffffff;fill-opacity:1;fill-rule:nonzero;stroke:none"
         d="M 7413.57,1643.3 6879.9,3792.89 c -14.27,57.45 20.75,115.59 78.2,129.85 57.46,14.26 115.59,-20.75 129.85,-78.2 0.31,-1.23 0.68,-2.88 0.94,-4.11 L 7537.64,1671.5 c 7.12,-34.4 -15.01,-68.1 -49.42,-75.2 -33.55,-6.9 -66.42,14.1 -74.65,47" /><path
         id="path298"
         style="fill:#000000;fill-opacity:1;fill-rule:nonzero;stroke:none"
         d="m 7418.43,1644.5 c 7.65,-30.7 37.84,-49.6 68.77,-43.3 31.66,6.6 52.09,37.7 45.54,69.3 l -448.75,2168.91 c -0.24,1.16 -0.59,2.74 -0.88,3.92 -13.58,54.69 -69.1,88.11 -123.8,74.56 -54.69,-13.58 -88.13,-69.11 -74.56,-123.8 L 7418.43,1644.5 Z m 56.73,-54.5 c -30.89,0 -58.64,20.9 -66.44,52.1 v 0 l -533.68,2149.59 c -14.9,60.03 21.82,121 81.85,135.91 60.06,14.92 121.01,-21.83 135.92,-81.86 0.32,-1.27 0.7,-2.99 0.97,-4.27 L 7542.54,1672.5 c 7.66,-37 -16.25,-73.4 -53.31,-81.1 -4.72,-0.9 -9.43,-1.4 -14.07,-1.4" /><path
         id="path300"
         style="fill:#000000;fill-opacity:1;fill-rule:nonzero;stroke:none"
         d="m 5099.59,3925.05 -121.24,692.8 19.7,3.46 121.24,-692.8 -19.7,-3.46" /><path
         id="path302"
         style="fill:#000000;fill-opacity:1;fill-rule:nonzero;stroke:none"
         d="m 6658.4,3925.05 -121.24,692.8 19.7,3.46 121.24,-692.8 -19.7,-3.46" /><path
         id="path304"
         style="fill:#f75c25;fill-opacity:1;fill-rule:nonzero;stroke:none"
         d="m 4961.6,3822.86 h 2218.21 c 33.14,0 60,26.86 60,60 v 87.84 c 0,33.14 -26.86,60 -60,60 H 4961.6 c -33.14,0 -60,-26.86 -60,-60 v -87.84 c 0,-33.14 26.86,-60 60,-60" /><path
         id="path306"
         style="fill:#f75c25;fill-opacity:1;fill-rule:nonzero;stroke:none"
         d="m 4807.93,4446.39 h 1902.38 c 132.3,0 233.28,118.23 212.59,248.9 l -277.48,1751.86 c -16.57,104.57 -106.72,181.57 -212.59,181.57 H 4530.46 c -132.31,0 -233.29,-118.24 -212.59,-248.92 l 277.48,-1751.85 c 16.56,-104.57 106.71,-181.56 212.58,-181.56" /><path
         id="path308"
         style="fill:#f9aa81;fill-opacity:1;fill-rule:nonzero;stroke:none"
         d="m 7802.12,2155.6 69.18,-305.9 329.72,-142.5 40.44,105.6 -157.59,519.1 -281.75,-176.3" /><path
         id="path310"
         style="fill:#f9aa81;fill-opacity:1;fill-rule:nonzero;stroke:none"
         d="m 6008.05,2192.5 -55.24,-465.8 277.26,22.1 88.51,521.3 -310.53,-77.6" /><path
         id="path312"
         style="fill:#000000;fill-opacity:1;fill-rule:nonzero;stroke:none"
         d="m 5357.46,5088.11 c 0,0 -220.2,-660.61 19.15,-909.54 239.35,-248.92 473.91,-172.33 473.91,-172.33 0,0 -90.95,-392.54 -52.65,-799.43 38.29,-406.91 119.67,-1120.21 119.67,-1120.21 0,0 134.04,-52.6 248.93,-62.2 114.89,-9.6 181.9,9.6 181.9,9.6 l 406.9,1981.81 h 382.97 c 0,0 -57.45,-382.96 43.08,-694.12 100.53,-311.15 617.53,-1268.59 617.53,-1268.59 0,0 124.46,-33.5 239.35,-4.8 114.89,28.8 205.84,91 205.84,91 0,0 -244.14,1187.17 -296.79,1536.63 -52.66,349.46 -14.36,809.01 -172.34,890.39 -157.97,81.39 -1235.05,493.06 -1254.2,493.06 -19.15,0 -1163.25,28.73 -1163.25,28.73" /><path
         id="path314"
         style="fill:#f9aa81;fill-opacity:1;fill-rule:nonzero;stroke:none"
         d="M 7081.74,6302.73 7240,5740 c 0,0 1142.87,-259.36 1300.84,-350.31 157.97,-90.95 363.81,-172.34 268.07,-215.41 -95.74,-43.09 -292.01,47.87 -292.01,47.87 0,0 -234.26,-31.3 -736.9,-12.15 -502.64,19.15 -880,210 -880,210 l -250.04,649.45 431.78,233.28" /><path
         id="path316"
         style="fill:#ffffff;fill-opacity:1;fill-rule:nonzero;stroke:none"
         d="m 6170,7220 c 0,0 88.08,-164.37 -180,-150 -268.08,14.37 -230,150 -230,150 0,0 -650,-60 -740,-250 -76.15,-160.77 -35,-815 -35,-815 l 255,15 45.65,-1215.93 c 0,0 612.64,-41.01 938.26,-33.5 325.63,7.5 473.92,76.59 473.92,76.59 L 6793.57,6026.37 7140,6230 c 0,0 -270.7,743.3 -409.41,841.22 C 6567.83,7186.1 6170,7220 6170,7220" /><path
         id="path318"
         style="fill:#000000;fill-opacity:1;fill-rule:nonzero;stroke:none"
         d="m 5938.21,1815.4 c 0,0 -11.1,-77.7 -11.1,-133.1 0,-55.5 11.1,-88.7 11.1,-88.7 h 598.88 c 0,0 55.45,66.5 33.27,110.9 -22.18,44.3 -121.99,44.3 -177.44,110.9 -55.46,66.5 -99.82,144.2 -144.18,144.2 -44.36,0 -122,-33.3 -133.09,-88.8 -11.08,-55.4 -22.18,-99.8 -55.45,-99.8 -33.27,0 -121.99,44.4 -121.99,44.4" /><path
         id="path320"
         style="fill:#000000;fill-opacity:1;fill-rule:nonzero;stroke:none"
         d="m 7841.31,1858.2 c 0,0 -30.54,-56.6 -30.15,-121.4 0.16,-25.8 5.81,-51.1 12.55,-72.2 10.54,-33 39.89,-56.4 74.36,-60.1 93.48,-10.1 298.45,-30.2 481.21,-34.4 246.19,-5.7 484.92,12.3 449.87,74.1 -35.06,61.8 -232.19,93.3 -322,163.8 -89.81,70.5 -207.23,179.1 -254.53,164.2 -47.31,-14.9 -77.97,-66.2 -66.57,-135.4 11.41,-69.2 -344.74,21.4 -344.74,21.4" /><path
         id="path322"
         style="fill:#ffffff;fill-opacity:1;fill-rule:nonzero;stroke:none"
         d="m 6755.27,4010.81 -1.52,0.23 c -2.63,0.84 -4.08,3.66 -3.24,6.29 1.04,3.27 103.08,328.04 1.6,411.09 -103.81,84.92 -445.89,284.75 -449.34,286.77 -2.38,1.38 -3.19,4.45 -1.8,6.83 1.41,2.38 4.46,3.19 6.84,1.8 3.45,-2.01 346.21,-202.24 450.63,-287.67 106.72,-87.31 5.94,-408.24 1.6,-421.86 -0.68,-2.12 -2.65,-3.48 -4.77,-3.48" /><path
         id="path324"
         style="fill:#000000;fill-opacity:1;fill-rule:nonzero;stroke:none"
         d="M 4701.64,4992.36 H 9685 v 181.92 H 4701.64 v -181.92" /><path
         id="path326"
         style="fill:#000000;fill-opacity:1;fill-rule:nonzero;stroke:none"
         d="m 6759.74,5943.42 -9.48,3.16 c 39.12,117.38 -39.36,503.53 -40.16,507.41 l 9.8,2.02 c 3.27,-15.98 79.81,-392.7 39.84,-512.59" /><path
         id="path328"
         style="fill:#f9aa81;fill-opacity:1;fill-rule:nonzero;stroke:none"
         d="M 5201.11,6172.71 C 5362.12,6180.38 5500,6160 5500,6160 c 0,0 20,-90 30,-170 4.45,-35.61 18.84,-113.46 20,-130 59.85,3.54 186.05,16.78 357.75,25.42 44.56,2.24 87.7,6.21 127.83,11 69.68,12.39 162.24,28.48 248.48,48.16 144.65,32.99 351.48,155.93 410.57,137.25 59.1,-18.69 163.64,-94.67 230.7,-151.11 29.65,-24.95 78.73,-89.02 115.39,-129.6 54.28,-60.07 128.21,-128.97 102.44,-148.33 -46.08,-34.63 -124.68,29.83 -154.25,73.36 -45.13,30.16 -83.64,63.33 -83.64,63.33 0,0 31.86,-174.33 -20.02,-177.26 -51.87,-2.93 -79.3,57.57 -79.3,57.57 0,0 -41.27,-102.41 -92.14,-105.27 -51.87,-2.93 -46.14,37.42 -46.14,37.42 0,0 -63.33,-83.63 -109.48,-46.21 -46.14,37.43 34.5,98.03 34.5,98.03 0,0 36,36.05 7.16,50.44 -28.83,14.38 -91.92,-93.03 -143.79,-95.96 -51.88,-2.93 -130.22,10.59 -130.22,10.59 l -77.62,-31.13 C 6149.83,5534.01 5969.6,5476.92 5870,5440 c -178.65,-66.22 -425.15,-78.1 -520,-40 -94.85,38.1 -159.21,173.1 -240,380 -61.7,158.07 -60,360 -60,360 0,0 -51.04,23.09 151.11,32.71" /><path
         id="path330"
         style="fill:#000000;fill-opacity:1;fill-rule:nonzero;stroke:none"
         d="m 6881.54,5607.11 c -52.05,0 -79,58.09 -80.15,60.62 l 9.11,4.14 c 0.26,-0.59 26.92,-57.01 74.47,-54.66 4.89,0.27 8.95,2.54 12.39,6.9 22,27.96 9.62,128.2 3,164.47 l -2.55,13.93 10.73,-9.24 c 0.38,-0.33 38.81,-33.33 83.15,-62.96 l 1.36,-1.35 c 19.7,-29.02 66.49,-73.05 108.8,-80.09 15.08,-2.53 27.96,0.16 38.31,7.92 1.99,1.5 3.02,3.38 3.24,5.92 1.69,19.33 -39.86,63.69 -76.53,102.82 -10.13,10.81 -20.3,21.66 -29.86,32.24 -12.98,14.38 -27.8,32.02 -42.13,49.08 -26.5,31.55 -53.91,64.18 -72.77,80.04 l 6.43,7.66 c 19.53,-16.43 47.22,-49.39 74,-81.28 14.27,-16.99 29.03,-34.56 41.89,-48.8 9.53,-10.53 19.65,-21.35 29.74,-32.11 43.61,-46.54 81.27,-86.74 79.2,-110.52 -0.47,-5.35 -2.95,-9.86 -7.2,-13.04 -12.62,-9.48 -28.09,-12.78 -45.96,-9.8 -44.83,7.46 -93.86,53.04 -114.88,83.53 -30.71,20.59 -58.51,42.67 -72.93,54.49 5.39,-35.11 16.92,-128.47 -7.19,-159.09 -5.24,-6.66 -11.86,-10.26 -19.67,-10.7 -1.35,-0.08 -2.69,-0.12 -4,-0.12" /><path
         id="path332"
         style="fill:#000000;fill-opacity:1;fill-rule:nonzero;stroke:none"
         d="m 9350,1595 h -30 v 3490 h 30 V 1595" /><path
         id="path334"
         style="fill:#000000;fill-opacity:1;fill-rule:nonzero;stroke:none"
         d="m 5500.3,6145.46 -38.07,25.38 5.54,8.32 21.93,-14.62 -9.7,310.3 10,0.32 10.3,-329.7" /><path
         id="path336"
         style="fill:#ffffff;fill-opacity:1;fill-rule:nonzero;stroke:none"
         d="m 6699.22,5178.43 h 866.1 v 72.18 h -866.1 v -72.18" /><path
         id="path338"
         style="fill:#000000;fill-opacity:1;fill-rule:nonzero;stroke:none"
         d="m 7391.79,5168.43 h 1858.5 L 9597.35,6230 H 7738.85 L 7391.79,5168.43" /><path
         id="path340"
         style="fill:#ffffff;fill-opacity:1;fill-rule:nonzero;stroke:none"
         d="m 8550.74,5787.44 c -64.07,0 -126.88,-52.17 -139.99,-116.3 -6.36,-31.09 -0.13,-60.13 17.52,-81.77 17.12,-20.96 43.15,-32.51 73.28,-32.51 64.08,0 126.88,52.16 139.99,116.29 6.36,31.1 0.14,60.14 -17.52,81.77 -17.12,20.97 -43.14,32.52 -73.28,32.52 z m -49.19,-240.58 c -33.2,0 -61.97,12.85 -81.03,36.2 -19.59,24 -26.54,55.99 -19.56,90.09 14.01,68.53 81.2,124.29 149.78,124.29 33.2,0 61.97,-12.85 81.03,-36.2 19.59,-24 26.54,-56 19.57,-90.1 -14.02,-68.52 -81.21,-124.28 -149.79,-124.28" /><path
         id="path342"
         style="fill:#ffffff;fill-opacity:1;fill-rule:nonzero;stroke:none"
         d="M 9280,5177.86 H 7370.5 v 10 H 9280 v -10" /><path
         id="path344"
         style="fill:#000000;fill-opacity:1;fill-rule:nonzero;stroke:none"
         d="m 11315,9722.35 v -2064.7 c 0,-137.74 -111.7,-249.32 -249.4,-249.32 H 7674.4 c -137.73,0 -249.4,111.58 -249.4,249.32 v 2064.7 c 0,137.74 111.67,249.32 249.4,249.32 h 3391.2 c 137.7,0 249.4,-111.58 249.4,-249.32" /><path
         id="path346"
         style="fill:#f7f7f7;fill-opacity:1;fill-rule:nonzero;stroke:none"
         d="M 11315,9626.23 H 7425 v 103.87 c 0,133.44 108.17,241.6 241.6,241.6 h 3406.8 c 133.4,0 241.6,-108.16 241.6,-241.6 v -103.87" /><path
         id="path348"
         style="fill:#000000;fill-opacity:1;fill-rule:nonzero;stroke:none"
         d="m 7430,9631.23 h 3880 v 98.87 c 0,130.46 -106.1,236.6 -236.6,236.6 H 7666.6 c -130.46,0 -236.6,-106.14 -236.6,-236.6 z m 3890,-10 H 7420 v 108.87 c 0,135.97 110.63,246.6 246.6,246.6 h 3406.8 c 136,0 246.6,-110.63 246.6,-246.6 v -108.87" /><path
         id="path350"
         style="fill:#ffffff;fill-opacity:1;fill-rule:nonzero;stroke:none"
         d="m 8928.95,8691.44 v 53.14 h 144.03 v -53.14 h -144.03" /><path
         id="path352"
         style="fill:#bdbdbd;fill-opacity:1;fill-rule:nonzero;stroke:none"
         d="m 9033.26,8216.35 h -10 V 8548 h 10 v -331.65" /><path
         id="path354"
         style="fill:#ffffff;fill-opacity:1;fill-rule:nonzero;stroke:none"
         d="m 9020.14,8525.61 v 53.15 h 128.2 v -53.15 h -128.2" /><path
         id="path356"
         style="fill:#f75c25;fill-opacity:1;fill-rule:nonzero;stroke:none"
         d="m 9254.55,8525.61 v 53.15 h 593.47 v -53.15 h -593.47" /><path
         id="path358"
         style="fill:#ffffff;fill-opacity:1;fill-rule:nonzero;stroke:none"
         d="m 9943.24,8525.61 v 53.15 h 247.16 v -53.15 h -247.16" /><path
         id="path360"
         style="fill:#ffffff;fill-opacity:1;fill-rule:nonzero;stroke:none"
         d="m 10285.8,8525.61 v 53.15 h 168.5 v -53.15 h -168.5" /><path
         id="path362"
         style="fill:#ffffff;fill-opacity:1;fill-rule:nonzero;stroke:none"
         d="m 9022.48,8193.96 v 53.15 h 197.29 v -53.15 h -197.29" /><path
         id="path364"
         style="fill:#ffffff;fill-opacity:1;fill-rule:nonzero;stroke:none"
         d="m 9325.97,8193.96 v 53.15 h 434.56 v -53.15 h -434.56" /><path
         id="path366"
         style="fill:#bdbdbd;fill-opacity:1;fill-rule:nonzero;stroke:none"
         d="m 8657.63,8050.52 h -10 v 822.22 h 10 v -822.22" /><path
         id="path368"
         style="fill:#ffffff;fill-opacity:1;fill-rule:nonzero;stroke:none"
         d="m 8643.06,8857.26 v 53.15 h 559.63 v -53.15 h -559.63" /><path
         id="path370"
         style="fill:#ffffff;fill-opacity:1;fill-rule:nonzero;stroke:none"
         d="m 10356.6,8691.44 v 53.14 h 511.3 v -53.14 h -511.3" /><path
         id="path372"
         style="fill:#ffffff;fill-opacity:1;fill-rule:nonzero;stroke:none"
         d="m 9289.37,8857.26 v 53.15 h 142.9 v -53.15 h -142.9" /><path
         id="path374"
         style="fill:#ffffff;fill-opacity:1;fill-rule:nonzero;stroke:none"
         d="m 9144.61,8691.44 v 53.14 h 484.65 v -53.14 h -484.65" /><path
         id="path376"
         style="fill:#ffffff;fill-opacity:1;fill-rule:nonzero;stroke:none"
         d="m 8643.39,9188.91 v 53.15 h 383.94 v -53.15 h -383.94" /><path
         id="path378"
         style="fill:#ffffff;fill-opacity:1;fill-rule:nonzero;stroke:none"
         d="m 9849.18,9188.91 v 53.15 h 133.77 v -53.15 h -133.77" /><path
         id="path380"
         style="fill:#ffffff;fill-opacity:1;fill-rule:nonzero;stroke:none"
         d="m 9099.15,9188.91 v 53.15 h 665.42 v -53.15 h -665.42" /><path
         id="path382"
         style="fill:#ffffff;fill-opacity:1;fill-rule:nonzero;stroke:none"
         d="m 10098.3,9188.91 v 53.15 h 449.8 v -53.15 h -449.8" /><path
         id="path384"
         style="fill:#f75c25;fill-opacity:1;fill-rule:nonzero;stroke:none"
         d="m 9456.37,9023.09 v 53.15 h 172.89 v -53.15 h -172.89" /><path
         id="path386"
         style="fill:#ffffff;fill-opacity:1;fill-rule:nonzero;stroke:none"
         d="m 10168,9023.09 v 53.15 h 172.9 v -53.15 H 10168" /><path
         id="path388"
         style="fill:#f75c25;fill-opacity:1;fill-rule:nonzero;stroke:none"
         d="m 8923.99,9023.09 v 53.15 h 454.98 v -53.15 h -454.98" /><path
         id="path390"
         style="fill:#ffffff;fill-opacity:1;fill-rule:nonzero;stroke:none"
         d="m 9207.69,8359.79 v 53.15 h 473.33 v -53.15 h -473.33" /><path
         id="path392"
         style="fill:#ffffff;fill-opacity:1;fill-rule:nonzero;stroke:none"
         d="m 10527.4,8359.79 v 53.15 h 207.2 v -53.15 h -207.2" /><path
         id="path394"
         style="fill:#ffffff;fill-opacity:1;fill-rule:nonzero;stroke:none"
         d="m 9764.53,8359.79 v 53.15 h 692.57 v -53.15 h -692.57" /><path
         id="path396"
         style="fill:#ffffff;fill-opacity:1;fill-rule:nonzero;stroke:none"
         d="m 9734.8,9023.09 v 53.15 h 360.8 v -53.15 h -360.8" /><path
         id="path398"
         style="fill:#ffffff;fill-opacity:1;fill-rule:nonzero;stroke:none"
         d="m 9193.81,7862.3 v 53.16 h 587.46 v -53.16 h -587.46" /><path
         id="path400"
         style="fill:#ffffff;fill-opacity:1;fill-rule:nonzero;stroke:none"
         d="m 8923.99,7862.3 v 53.16 h 192.43 v -53.16 h -192.43" /><path
         id="path402"
         style="fill:#ffffff;fill-opacity:1;fill-rule:nonzero;stroke:none"
         d="m 9859.17,7862.3 v 53.16 h 132.74 v -53.16 h -132.74" /><path
         id="path404"
         style="fill:#ffffff;fill-opacity:1;fill-rule:nonzero;stroke:none"
         d="m 9518.49,8857.26 v 53.15 h 471.3 v -53.15 h -471.3" /><path
         id="path406"
         style="fill:#ffffff;fill-opacity:1;fill-rule:nonzero;stroke:none"
         d="m 8643.06,8028.12 v 53.16 h 276.34 v -53.16 h -276.34" /><path
         id="path408"
         style="fill:#ffffff;fill-opacity:1;fill-rule:nonzero;stroke:none"
         d="m 9006.08,8028.12 v 53.16 h 633.47 v -53.16 h -633.47" /><path
         id="path410"
         style="fill:#f75c25;fill-opacity:1;fill-rule:nonzero;stroke:none"
         d="m 9938.85,8028.12 v 53.16 h 477.95 v -53.16 h -477.95" /><path
         id="path412"
         style="fill:#ffffff;fill-opacity:1;fill-rule:nonzero;stroke:none"
         d="m 10491.6,8028.12 v 53.16 h 381.2 v -53.16 h -381.2" /><path
         id="path414"
         style="fill:#f75c25;fill-opacity:1;fill-rule:nonzero;stroke:none"
         d="m 9725.77,8028.12 v 53.16 h 131.34 v -53.16 h -131.34" /><path
         id="path416"
         style="fill:#ffffff;fill-opacity:1;fill-rule:nonzero;stroke:none"
         d="m 10072.6,8857.26 v 53.15 h 111.3 v -53.15 h -111.3" /><path
         id="path418"
         style="fill:#000000;fill-opacity:1;fill-rule:nonzero;stroke:none"
         d="m 7805.02,9785.15 c 0,-15.27 -12.38,-27.64 -27.64,-27.64 -15.27,0 -27.64,12.37 -27.64,27.64 0,15.26 12.37,27.63 27.64,27.63 15.26,0 27.64,-12.37 27.64,-27.63" /><path
         id="path420"
         style="fill:#000000;fill-opacity:1;fill-rule:nonzero;stroke:none"
         d="m 7936.3,9785.15 c 0,-15.27 -12.38,-27.64 -27.64,-27.64 -15.27,0 -27.64,12.37 -27.64,27.64 0,15.26 12.37,27.63 27.64,27.63 15.26,0 27.64,-12.37 27.64,-27.63" /><path
         id="path422"
         style="fill:#000000;fill-opacity:1;fill-rule:nonzero;stroke:none"
         d="m 8067.57,9785.15 c 0,-15.27 -12.37,-27.64 -27.63,-27.64 -15.27,0 -27.64,12.37 -27.64,27.64 0,15.26 12.37,27.63 27.64,27.63 15.26,0 27.63,-12.37 27.63,-27.63" /><path
         id="path424"
         style="fill:#ffffff;fill-opacity:1;fill-rule:nonzero;stroke:none"
         d="m 8261.04,9188.91 v 53.15 h 96.08 v -53.15 h -96.08" /><path
         id="path426"
         style="fill:#ffffff;fill-opacity:1;fill-rule:nonzero;stroke:none"
         d="m 7825.75,9188.91 v 53.15 h 372.45 v -53.15 h -372.45" /><path
         id="path428"
         style="fill:#ffffff;fill-opacity:1;fill-rule:nonzero;stroke:none"
         d="m 7973.17,9023.09 v 53.15 h 383.95 v -53.15 h -383.95" /><path
         id="path430"
         style="fill:#ffffff;fill-opacity:1;fill-rule:nonzero;stroke:none"
         d="m 7881.02,8857.26 v 53.15 h 476.1 v -53.15 h -476.1" /><path
         id="path432"
         style="fill:#ffffff;fill-opacity:1;fill-rule:nonzero;stroke:none"
         d="m 8039.94,8691.44 v 53.15 h 317.18 v -53.15 h -317.18" /><path
         id="path434"
         style="fill:#ffffff;fill-opacity:1;fill-rule:nonzero;stroke:none"
         d="m 7881.02,8691.44 v 53.15 h 89.17 v -53.15 h -89.17" /><path
         id="path436"
         style="fill:#ffffff;fill-opacity:1;fill-rule:nonzero;stroke:none"
         d="m 8136.67,8525.61 v 53.15 h 220.45 v -53.15 h -220.45" /><path
         id="path438"
         style="fill:#ffffff;fill-opacity:1;fill-rule:nonzero;stroke:none"
         d="m 8046.85,8359.79 v 53.15 h 310.27 v -53.15 h -310.27" /><path
         id="path440"
         style="fill:#ffffff;fill-opacity:1;fill-rule:nonzero;stroke:none"
         d="m 7805.02,8193.96 v 53.15 h 344.81 v -53.15 h -344.81" /><path
         id="path442"
         style="fill:#ffffff;fill-opacity:1;fill-rule:nonzero;stroke:none"
         d="m 8212.67,8193.96 v 53.15 h 144.45 v -53.15 h -144.45" /><path
         id="path444"
         style="fill:#ffffff;fill-opacity:1;fill-rule:nonzero;stroke:none"
         d="m 7973.17,8028.12 v 53.16 h 383.95 v -53.16 h -383.95" /><path
         id="path446"
         style="fill:#ffffff;fill-opacity:1;fill-rule:nonzero;stroke:none"
         d="m 8102.12,7862.3 v 53.16 h 255 v -53.16 h -255" /><path
         id="path448"
         style="fill:#ffffff;fill-opacity:1;fill-rule:nonzero;stroke:none"
         d="m 7970.84,7862.3 v 53.16 h 75.36 v -53.16 h -75.36" /><path
         id="path450"
         style="fill:#fbb03b;fill-opacity:1;fill-rule:nonzero;stroke:none"
         d="M 12215,7035 H 9515 v 750 h 2700 v -750" /><path
         id="path452"
         style="fill:#000000;fill-opacity:1;fill-rule:nonzero;stroke:none"
         d="m 10070.6,7475.64 h -263.24 v 95.74 h 263.24 v -95.74" /><path
         id="path454"
         style="fill:#000000;fill-opacity:1;fill-rule:nonzero;stroke:none"
         d="m 10405.7,7475.64 h -191.5 v 95.74 h 191.5 v -95.74" /><path
         id="path456"
         style="fill:#000000;fill-opacity:1;fill-rule:nonzero;stroke:none"
         d="m 11027.9,7475.64 h -323.1 v 95.74 h 323.1 v -95.74" /><path
         id="path458"
         style="fill:#000000;fill-opacity:1;fill-rule:nonzero;stroke:none"
         d="m 11710,7475.64 h -514.6 v 95.74 h 514.6 v -95.74" /><path
         id="path460"
         style="fill:#000000;fill-opacity:1;fill-rule:nonzero;stroke:none"
         d="m 10136.4,7473.07 c -2.1,2.11 -3.1,4.64 -3.1,7.6 0,2.97 1,5.48 3.1,7.54 2,2.06 4.6,3.1 7.5,3.1 3,0 5.5,-1.04 7.6,-3.1 2.1,-2.06 3.2,-4.57 3.2,-7.54 0,-2.96 -1.1,-5.49 -3.2,-7.6 -2.1,-2.11 -4.6,-3.17 -7.6,-3.17 -2.9,0 -5.5,1.06 -7.5,3.17" /><path
         id="path462"
         style="fill:#000000;fill-opacity:1;fill-rule:nonzero;stroke:none"
         d="m 11126.5,7480.39 c 0,3.07 1,5.63 3.2,7.68 2.1,2.06 4.6,3.08 7.4,3.08 2.9,0 5.4,-1.02 7.6,-3.08 2.1,-2.05 3.2,-4.52 3.2,-7.4 0,-2.87 -1.3,-6.36 -3.9,-10.47 l -8.6,-14.22 h -8.3 l 5.3,14.94 c -3.9,1.81 -5.9,4.97 -5.9,9.47" /><path
         id="path464"
         style="fill:#000000;fill-opacity:1;fill-rule:nonzero;stroke:none"
         d="m 10561.9,7559.94 c 2.7,-1.72 4,-4.04 4,-6.97 0,-2.91 -0.9,-5.22 -2.6,-6.89 -1.7,-1.67 -3.9,-2.51 -6.4,-2.51 -2.6,0 -4.8,0.8 -6.6,2.45 -1.8,1.62 -2.6,3.75 -2.6,6.38 0,2.64 0.8,5.2 2.5,7.68 l 8.5,12.21 h 8.8 l -5.6,-12.35" /><path
         id="path466"
         style="fill:#000000;fill-opacity:1;fill-rule:nonzero;stroke:none"
         d="m 11088.4,7559.94 c 2.7,-1.72 4,-4.04 4,-6.97 0,-2.91 -0.8,-5.22 -2.6,-6.89 -1.7,-1.67 -3.8,-2.51 -6.4,-2.51 -2.6,0 -4.8,0.8 -6.6,2.45 -1.7,1.62 -2.6,3.75 -2.6,6.38 0,2.64 0.8,5.2 2.6,7.68 l 8.4,12.21 h 8.8 l -5.6,-12.35" /><path
         id="path468"
         style="fill:#000000;fill-opacity:1;fill-rule:nonzero;stroke:none"
         d="m 10656.7,7587.51 h 14.4 l -62.2,-133.25 h -14.4 l 62.2,133.25" /><path
         id="path470"
         style="fill:#000000;fill-opacity:1;fill-rule:nonzero;stroke:none"
         d="m 10510.5,7578.52 c -6,0 -8.9,-2.74 -8.9,-8.19 v -31.16 c 0,-6.71 -3.2,-10.63 -9.5,-11.78 6.3,-1.05 9.5,-4.93 9.5,-11.63 v -33.75 c 0,-2.48 0.7,-4.2 2.1,-5.16 1.3,-0.95 4,-1.44 7.9,-1.44 v -13.36 h -4.9 c -13,0 -19.5,6.33 -19.5,18.97 v 31.01 c 0,3.16 -0.6,5.38 -1.7,6.68 -1.2,1.29 -3,1.93 -5.5,1.93 h -3.4 V 7534 h 3.4 c 2.5,0 4.3,0.67 5.5,2.02 1.1,1.32 1.7,3.63 1.7,6.88 v 29.87 c 0,12.64 6.5,18.95 19.5,18.95 h 4.9 v -13.35 l -1.1,0.15" /><path
         id="path472"
         style="fill:#000000;fill-opacity:1;fill-rule:nonzero;stroke:none"
         d="m 11799.5,7462.05 h -4.9 v 13.36 c 3.9,0 6.6,0.49 8,1.44 1.4,0.96 2,2.68 2,5.16 v 33.75 c 0,6.7 3.2,10.58 9.5,11.63 -6.3,1.15 -9.5,5.07 -9.5,11.78 v 31.16 c 0,2.97 -0.7,5.1 -2.3,6.39 -1.6,1.29 -3.2,1.93 -4.7,1.93 h -0.4 l -2.6,-0.28 v 13.35 h 4.9 c 13,0 19.5,-6.31 19.5,-18.95 v -29.87 c 0,-3.25 0.6,-5.56 1.7,-6.88 1.2,-1.35 3,-2.02 5.5,-2.02 h 3.4 v -13.36 h -3.4 c -2.5,0 -4.3,-0.64 -5.5,-1.93 -1.1,-1.3 -1.7,-3.52 -1.7,-6.68 v -31.01 c 0,-12.64 -6.5,-18.97 -19.5,-18.97" /><path
         id="path474"
         style="fill:#000000;fill-opacity:1;fill-rule:nonzero;stroke:none"
         d="m 10549.3,7236.32 h -502.6 v 95.73 h 502.6 v -95.73" /><path
         id="path476"
         style="fill:#000000;fill-opacity:1;fill-rule:nonzero;stroke:none"
         d="m 11482.6,7236.32 h -287.2 v 95.73 h 287.2 v -95.73" /><path
         id="path478"
         style="fill:#000000;fill-opacity:1;fill-rule:nonzero;stroke:none"
         d="m 11817.7,7236.32 h -179.5 v 95.73 h 179.5 v -95.73" /><path
         id="path480"
         style="fill:#000000;fill-opacity:1;fill-rule:nonzero;stroke:none"
         d="m 11039.9,7236.32 h -371 v 95.73 h 371 v -95.73" /><path
         id="path482"
         style="fill:#000000;fill-opacity:1;fill-rule:nonzero;stroke:none"
         d="m 10603.1,7233.74 c -2.1,2.1 -3.1,4.64 -3.1,7.61 0,2.97 1,5.48 3.1,7.54 2,2.06 4.5,3.08 7.5,3.08 3,0 5.5,-1.02 7.6,-3.08 2.1,-2.06 3.2,-4.57 3.2,-7.54 0,-2.97 -1.1,-5.51 -3.2,-7.61 -2.1,-2.1 -4.6,-3.15 -7.6,-3.15 -3,0 -5.5,1.05 -7.5,3.15" /><path
         id="path484"
         style="fill:#000000;fill-opacity:1;fill-rule:nonzero;stroke:none"
         d="m 11133.9,7322.89 c -3.8,-11.92 -5.7,-23.39 -5.7,-34.39 0,-11.02 1.9,-22.48 5.7,-34.4 3.8,-11.91 8.5,-21.76 14.1,-29.51 h -17.1 c -4.7,6.51 -9,15.8 -12.8,27.86 -3.9,12.06 -5.9,24.07 -5.9,36.05 0,11.96 2,23.98 5.9,36.03 3.8,12.07 8.1,21.35 12.8,27.86 h 17.1 c -5.6,-7.75 -10.3,-17.59 -14.1,-29.5" /><path
         id="path486"
         style="fill:#000000;fill-opacity:1;fill-rule:nonzero;stroke:none"
         d="m 11576.7,7322.89 c -3.9,-11.92 -5.8,-23.39 -5.8,-34.39 0,-11.02 1.9,-22.48 5.8,-34.4 3.8,-11.91 8.5,-21.76 14,-29.51 h -17.1 c -4.6,6.51 -8.9,15.8 -12.8,27.86 -3.9,12.06 -5.8,24.07 -5.8,36.05 0,11.96 1.9,23.98 5.8,36.03 3.9,12.07 8.2,21.35 12.8,27.86 h 17.1 c -5.5,-7.75 -10.2,-17.59 -14,-29.5" /><path
         id="path488"
         style="fill:#000000;fill-opacity:1;fill-rule:nonzero;stroke:none"
         d="m 11877.7,7254.1 c 3.9,11.92 5.8,23.38 5.8,34.4 0,11 -1.9,22.47 -5.8,34.39 -3.8,11.91 -8.5,21.75 -14,29.5 h 17.1 c 4.6,-6.51 8.9,-15.79 12.8,-27.86 3.9,-12.05 5.8,-24.07 5.8,-36.03 0,-11.98 -1.9,-23.99 -5.8,-36.05 -3.9,-12.06 -8.2,-21.35 -12.8,-27.86 h -17.1 c 5.5,7.75 10.2,17.6 14,29.51" />
         <path
         id="path534"
         style="fill:#000000;fill-opacity:1;fill-rule:nonzero;stroke:none"
         d="m 3922.5,8375 h 1486.69 v 990 H 3922.5 Z m 1496.69,-10 H 3912.5 V 9375 H 5419.19 V 8365" /><path
         id="path536"
         style="fill:#000000;fill-opacity:1;fill-rule:nonzero;stroke:none"
         d="M 5417.5,9215.79 H 3920.81 v 10 H 5417.5 v -10" /><path
         id="path538"
         style="fill:#000000;fill-opacity:1;fill-rule:nonzero;stroke:none"
         d="m 4153.26,9287.09 c 0,-3.66 -2.96,-6.63 -6.62,-6.63 -3.66,0 -6.63,2.97 -6.63,6.63 0,3.65 2.97,6.62 6.63,6.62 3.66,0 6.62,-2.97 6.62,-6.62" /><path
         id="path540"
         style="fill:#000000;fill-opacity:1;fill-rule:nonzero;stroke:none"
         d="m 4103.26,9287.09 c 0,-3.66 -2.96,-6.63 -6.62,-6.63 -3.66,0 -6.63,2.97 -6.63,6.63 0,3.65 2.97,6.62 6.63,6.62 3.66,0 6.62,-2.97 6.62,-6.62" /><path
         id="path542"
         style="fill:#000000;fill-opacity:1;fill-rule:nonzero;stroke:none"
         d="m 4053.26,9287.09 c 0,-3.66 -2.96,-6.63 -6.62,-6.63 -3.66,0 -6.63,2.97 -6.63,6.63 0,3.65 2.97,6.62 6.63,6.62 3.66,0 6.62,-2.97 6.62,-6.62" /><path
         id="path544"
         style="fill:#c9c9c9;fill-opacity:1;fill-rule:nonzero;stroke:none"
         d="m 5260,8530 h -510 v 560 h 510 v -560" /><path
         id="path546"
         style="fill:#c9c9c9;fill-opacity:1;fill-rule:nonzero;stroke:none"
         d="M 4670,9032.86 H 4050 V 9090 h 620 v -57.14" /><path
         id="path548"
         style="fill:#c9c9c9;fill-opacity:1;fill-rule:nonzero;stroke:none"
         d="m 4670,8907.14 h -620 v 57.15 h 620 v -57.15" /><path
         id="path550"
         style="fill:#c9c9c9;fill-opacity:1;fill-rule:nonzero;stroke:none"
         d="m 4670,8781.43 h -620 v 57.14 h 620 v -57.14" /><path
         id="path552"
         style="fill:#c9c9c9;fill-opacity:1;fill-rule:nonzero;stroke:none"
         d="m 4670,8655.71 h -620 v 57.15 h 620 v -57.15" /><path
         id="path554"
         style="fill:#c9c9c9;fill-opacity:1;fill-rule:nonzero;stroke:none"
         d="m 4670,8530 h -620 v 57.14 h 620 V 8530" /><path
         id="path556"
         style="fill:#ffffff;fill-opacity:1;fill-rule:nonzero;stroke:none"
         d="M 6975,8791.09 H 4665 V 9808.91 H 6975 V 8791.09" /><path
         id="path558"
         style="fill:#fbb03b;fill-opacity:1;fill-rule:nonzero;stroke:none"
         d="m 5514.65,8968.11 h -663.79 v 663.78 h 663.79 v -663.78" /><path
         id="path560"
         style="fill:#000000;fill-opacity:1;fill-rule:nonzero;stroke:none"
         d="m 5505.81,8971.95 c -1.28,0 -2.56,0.49 -3.54,1.47 l -646.09,646.09 c -1.96,1.95 -1.96,5.12 0,7.07 1.95,1.96 5.11,1.96 7.07,0 l 646.09,-646.09 c 1.95,-1.95 1.95,-5.12 0,-7.07 -0.98,-0.98 -2.26,-1.47 -3.53,-1.47" /><path
         id="path562"
         style="fill:#000000;fill-opacity:1;fill-rule:nonzero;stroke:none"
         d="m 4859.71,8971.95 c -1.28,0 -2.56,0.49 -3.53,1.47 -1.96,1.95 -1.96,5.12 0,7.07 l 646.09,646.09 c 1.95,1.96 5.12,1.96 7.07,0 1.95,-1.95 1.95,-5.12 0,-7.07 l -646.09,-646.09 c -0.98,-0.98 -2.26,-1.47 -3.54,-1.47" /><path
         id="path564"
         style="fill:#000000;fill-opacity:1;fill-rule:nonzero;stroke:none"
         d="M 6003.6,9576.74 H 6560 v 48.23 h -556.4 v -48.23" /><path
         id="path566"
         style="fill:#fbb03b;fill-opacity:1;fill-rule:nonzero;stroke:none"
         d="m 5719.42,9576.74 h 184.77 v 48.23 h -184.77 v -48.23" /><path
         id="path568"
         style="fill:#fbb03b;fill-opacity:1;fill-rule:nonzero;stroke:none"
         d="M 6408.01,9426.26 H 6560 v 48.24 h -151.99 v -48.24" /><path
         id="path570"
         style="fill:#000000;fill-opacity:1;fill-rule:nonzero;stroke:none"
         d="m 5719.42,9426.26 h 589.19 v 48.24 h -589.19 v -48.24" /><path
         id="path572"
         style="fill:#000000;fill-opacity:1;fill-rule:nonzero;stroke:none"
         d="m 5719.42,9275.79 h 721.38 v 48.23 h -721.38 v -48.23" /><path
         id="path574"
         style="fill:#000000;fill-opacity:1;fill-rule:nonzero;stroke:none"
         d="M 5719.42,8970 H 6150 v 48.23 H 5719.42 V 8970" /><path
         id="path576"
         style="fill:#000000;fill-opacity:1;fill-rule:nonzero;stroke:none"
         d="M 6408.01,9117.2 H 6560 v 48.23 h -151.99 v -48.23" /><path
         id="path578"
         style="fill:#fbb03b;fill-opacity:1;fill-rule:nonzero;stroke:none"
         d="m 6308.61,9165.43 h -589.19 v -48.23 h 589.19 v 48.23" /></g></g></svg>