<svg version="1.2" xmlns="http://www.w3.org/2000/svg" viewBox="0 0 2819 1755" width="2819" height="1755">
	<title>New Project</title>
	<style>
		.s0 { fill: #f7e5d7 } 
		.s1 { fill: #597361 } 
		.s2 { fill: #65826e } 
	</style>
	<g id="Layer 1">
		<path id="&lt;Path&gt; copy" fill-rule="evenodd" class="s0" d="m2594.2 1199.8c0 5.5-0.1 11.1-0.5 16.6-0.3 7.3-1 14.8-1.8 22.2q-0.9 8.3-2.1 16.6c-1.1 7.4-2.4 14.8-3.8 22.3q-1.7 8.2-3.6 16.6c-1.6 7.3-3.5 14.7-5.5 22.2q-2.3 8.3-4.8 16.6c-2.1 7.3-4.5 14.7-7 22.1q-2.7 8.4-5.7 16.7-4 11.1-8.3 22.2-3.2 8.3-6.6 16.6-4.6 11.1-9.4 22.2-3.8 8.3-7.6 16.6c-0.1 0.2-0.1 0.3-0.2 0.4-12.6 27.2-26.3 53.9-40.7 79.5-59 105.3-129.1 193.4-174.1 225.8 0 0-1652.9 0-1740 0-48.8 0-153-95.9-169.3-225.8-1.4-11-2.1-22.2-2.2-33.6q0-7.1 0.3-14.3c0.5-9.4 1.4-18.9 2.9-28.6q1.1-7 2.6-14.2c2-9.4 4.5-18.9 7.6-28.5q2.2-7.2 4.9-14.3 5.3-14.2 12.5-28.6 1.1-2.2 2.2-4.4 4.8-9.3 10.3-18.6 6.1-10.1 11.7-19.8 4.8-8 9.2-15.6 8.3-14.2 15.7-27.2c3.8-6.7 7.5-13.2 11-19.6 5.4-9.7 10.4-19 15-28q3.9-7.6 7.5-14.8c5.1-10.3 9.7-20.2 13.7-29.7 40.2-94.3 29-152.2-19.5-284.9-13.5-37-16.1-76.8-9.1-116.9 29.2-166.7 225.7-337.3 501.2-321 271 16 361.3 90.6 567.6-31.6 144.1-85.3 621.2-65.6 683.2 178.4 29.1 114.7 42 184.4 69.7 240.4 5.3 10.6 11 20.7 17.6 30.5q0 0.1 0.1 0.3 4 5.9 8.3 11.8c4.5 6 9.4 12 14.6 18 18.3 20.9 41.3 41.6 71.2 64.2 11.6 8.7 24.2 17.7 37.9 27.2 7.9 5.4 16.1 10.9 24.7 16.6q9.8 6.5 20.4 13.3c4 2.5 7.7 5.1 11.3 7.9 0.4 0.3 0.9 0.7 1.3 1q10 7.7 18.2 16.6 9.9 10.4 17.5 22.2c3.4 5.4 6.6 10.9 9.4 16.6 3.6 7.1 6.5 14.5 9.1 22.2 1.9 5.4 3.4 10.9 4.8 16.6q2.6 10.9 4.1 22.2 1.2 8.2 1.8 16.6 0.8 11 0.7 22.2z"/>
		<g id="&lt;Group&gt; copy 2">
			<g id="&lt;Group&gt;">
				<path id="&lt;Path&gt;" class="s1" d="m1485.3 1340.3c-31.1-17.5-64-39.8-83.4-82.1-6.7-14.6-12.7-28.4-17.5-40q-0.2-0.5-0.4-0.8c-8.3-20.3-13.4-34-13.4-34-6.2-9.9-20.9-14.6-38.2-14-5.4 0.2-11 0.9-16.7 2-15.7 3.3-32.1 10.4-45.7 21.4-13.7-10.9-30.1-18-45.8-21.3-5.7-1.2-11.3-1.8-16.6-2-17.4-0.6-32.1 4.2-38.2 14.2 0 0-5.1 13.6-13.4 33.9q-0.2 0.4-0.4 0.8c-4.8 11.7-10.7 25.4-17.4 40-19.4 42.5-52.2 64.7-83.2 82.2 0 0 61 35.5 127.7-10.5-6.1 11.4-31.1 25.3-42.3 35.9 0 0 82.9 30.3 129.8 2.3 45.6 30.7 143.2 5.1 143.2 5.1-11.2-10.6-36.4-32.1-42.5-43.5 66.2 45.8 114.4 10.4 114.4 10.4z"/>
				<path id="&lt;Path&gt;" class="s2" d="m1419.3 1194.8q-0.3-0.3-0.6-0.6c-6.5-7.3-12.3-15-18.1-23.6q-0.3-0.4-0.6-0.9c-6.9-10.3-13.9-21.8-22-35.5-11.5-19.4-13-38.1-13-38.1l-19.6-25.8-8.8-11.6-16.4-21.6-0.6-0.6-49.8-65.5-49.7 65.6-0.5 0.6-16.4 21.7-8.8 11.5-19.6 25.8c0 0-1.4 18.8-13 38.2-8 13.7-14.9 25.3-21.8 35.6q-0.3 0.4-0.7 0.9c-5.8 8.6-11.5 16.3-18 23.5q-0.3 0.4-0.6 0.7c-10.7 12-23.3 23-40.7 35.2 1.6 5.3 54.8 12.9 69.3-7-0.2 0.5-15.2 36-23.6 38 0 0 5-0.6 12.5-2.9 11.4-3.4 28.6-10.6 43.9-25.4q0.4-0.3 0.7-0.6c6.9-6.7 13.5-15.1 18.8-25.3 0 0.3-2.9 15.7-6.1 31.4q-0.1 0.4-0.2 0.9c-2.5 12.2-5.3 24.4-7.1 29.5 0 0 10.7-5.3 26.3-21.6q0.3-0.4 0.7-0.8c9.6-10 20.9-24.1 32.8-43.4-0.1 0.5-17.7 65.3-19.6 68.3 0 0 15.5-4.6 31.9-19.6 22.5-20.7 23.2-27.6 27.8-38.7 2.1-3.6 3.4-7 3.9-9.9q0-0.1 0-0.1c6.3 20.5 12.4 30.5 26.6 46.8 15 17.4 33.3 18.9 33.3 18.9-1.8-5.1-4.6-17.3-7.2-29.6q-0.1-0.4-0.1-0.9c-3.3-15.6-6.1-31-6.2-31.3 5.4 10.2 11.9 18.5 18.8 25.2q0.3 0.4 0.7 0.7c15.4 14.7 32.6 21.9 44 25.3 7.6 2.2 12.5 2.8 12.5 2.8-8.4-2-23.4-37.4-23.6-37.9 14.5 19.8 67.7 12.1 69.3 6.9-17.5-12.3-30.1-23.2-40.8-35.2z"/>
				<path id="&lt;Path&gt;" class="s1" d="m1354.9 1041.2c-3.4-7.3-6.6-14.5-9.5-21.3q-0.2-0.4-0.3-0.8c-11.8-27.6-19-50-21.3-57.3h-54l-54.1 0.1c-2.2 7.3-9.5 29.7-21.1 57.3q-0.1 0.4-0.4 0.8c-2.8 6.9-6 14.1-9.5 21.3-18.9 40.4-46 85.6-79.7 110.2 0 0 29.4 3.5 56.9-12.5 7.3-4.2 14.4-9.8 20.8-17.3-0.1 0.5-6.9 31-12 37.8 0.5-0.2 34.4-14.7 46.9-38.7-0.1 0.5-3.2 18-7.2 38.6q-0.1 0.6-0.2 1.1c-0.8 4.5-1.7 9-2.6 13.6-1.2 6.1-2.5 12.2-3.6 17.8 6.1-3.5 13.3-8.6 20.2-15.8 8.1-8.4 15.8-19.7 21.4-35.2q0.3-0.7 0.5-1.3c2.2-6.4 4.1-13.6 5.4-21.4 0 0 5.2 44.3 18.5 69.1 12.8-22.4 18.3-69.2 18.3-69.2 1.4 7.9 3.2 15 5.5 21.4q0.2 0.7 0.4 1.4c5.7 15.4 13.5 26.7 21.5 35.2 7 7.1 14.1 12.1 20.3 15.7-1.2-5.6-2.4-11.8-3.6-17.8-0.9-4.6-1.8-9.1-2.7-13.6q-0.1-0.5-0.2-1.1c-4-20.5-7.1-38.2-7.2-38.6 12.5 24 46.4 38.4 46.9 38.6-5-6.8-12-37.2-12.1-37.7 6.4 7.4 13.6 13 20.9 17.2 27.4 15.9 56.9 12.4 56.9 12.4-33.8-24.5-60.9-69.7-80-110z"/>
				<path id="&lt;Path&gt;" class="s1" d="m1422.9 1059.2c0 0-20.4-25.7-39.5-57.5q-0.3-0.4-0.5-0.8c-9.1-15.2-17.8-31.7-23.8-47.5l-92.5-247.9-86.2 248.2c-6 15.7-14.6 32.2-23.6 47.4q-0.3 0.4-0.6 0.8c-19 31.8-39.3 57.6-39.3 57.6 16.6 5.4 34.9-1 48.1-8 11.1-5.9 18.7-12.1 18.9-12.3-3.6 14.2-46.1 59.6-46.1 59.6 12.4 3.9 30.4-1 39.1-5.9 4.8-2.7 9.4-5.7 13.5-9 10.6-8.3 19.6-17.6 26.6-25.7q0.3-0.4 0.7-0.8c9.7-11.4 15.2-20.2 15.2-20.2-0.9 4.8-3.7 14.3-7 25.1q-0.1 0.5-0.3 1.1c-7.1 22.7-16.5 50.3-16.5 50.3 15.1-0.8 40.2-15.7 53-36.2 0.2-0.3 0.4-0.7 0.6-1 3.8-6.3 13.1-36.2 13.9-43.2 1.9 9.7 2.3 34.3 9.1 49.5 10.5 23.1 29.8 30 45.1 30.8 0 0-9.5-27.6-16.6-50.3q-0.2-0.5-0.4-1c-3.4-10.8-6.1-20.4-7-25.2 0 0 5.6 8.9 15.3 20.2q0.3 0.4 0.7 0.8c6.9 8.1 15.9 17.4 26.6 25.7 4.1 3.2 8.7 6.2 13.5 8.9 8.7 5 26.2 9 37.3 2.6 0 0-40.8-42.1-44.4-56.3 0.2 0.2 7.8 6.4 18.8 12.3 13.4 7 31.7 13.3 48.3 7.9z"/>
				<path id="&lt;Path&gt;" class="s2" d="m1371.9 941.6q-0.2-0.2-0.4-0.4c-4.5-5.1-8.5-10.4-12.5-16.3q-0.2-0.3-0.4-0.6c-4.8-7.1-9.6-15.1-15.2-24.5-7.9-13.4-9-26.4-9-26.4l-13.6-17.8-6-7.9-11.4-14.9-0.3-0.5-34.4-45.2-34.4 45.3-0.3 0.4-11.3 15-6 7.9-13.6 17.9c0 0-1 12.9-8.9 26.3-5.6 9.5-10.4 17.4-15.1 24.5q-0.3 0.4-0.5 0.7c-4 5.9-8 11.2-12.4 16.2q-0.2 0.3-0.4 0.5c-7.4 8.3-16.1 15.9-28.2 24.3 1.1 3.6 37.9 8.9 47.9-4.9-0.2 0.4-10.5 24.9-16.3 26.3 0 0 3.4-0.4 8.7-2 7.8-2.3 19.7-7.3 30.3-17.5q0.2-0.2 0.4-0.4c4.8-4.7 9.3-10.4 13-17.6 0 0.4-2 10.9-4.2 21.7q-0.1 0.3-0.1 0.6c-1.8 8.5-3.7 16.9-4.9 20.4 0 0 7.3-3.6 18.1-14.9q0.3-0.2 0.5-0.5c6.6-6.9 14.4-16.6 22.7-30-0.1 0.4-20.6 63.5-20.6 63.5 0 0 20.9-10.8 30.1-21.9 10.2-12.3 14.9-27.1 18.1-34.7 1.4-2.5 2.4-4.8 2.7-6.8q0-0.1 0-0.1c4.3 14.2 8.6 21.1 18.4 32.3 10.4 12.1 23 13 23 13-1.3-3.5-3.2-11.9-5-20.4q0-0.3-0.1-0.5c-2.2-10.8-4.2-21.4-4.3-21.7 3.8 7.1 8.2 12.8 13.1 17.5q0.2 0.2 0.4 0.4c10.6 10.1 22.5 15.1 30.4 17.5 5.2 1.5 8.6 1.9 8.6 1.9-5.8-1.4-16.1-25.8-16.3-26.2 10.1 13.7 46.8 8.4 47.9 4.8-12.1-8.5-20.8-16-28.2-24.3z"/>
				<path id="&lt;Path&gt;" class="s1" d="m1332.6 808q-4.1-8.8-7.6-17c-0.1-0.2 3.9-0.4 3.8-0.6-9.4-22.1-19.3-40-21-45.8h-39.2-40.3c-1.8 5.8-10.4 23.8-19.7 45.9-0.1 0.2 2.6 0.4 2.5 0.6-2.3 5.5-4.8 11.2-7.6 17-15.1 32.3-39.5 68.4-66.5 88 0 0 23.5 2.8 45.5-9.9 5.7-3.4 11.5-7.9 16.6-13.9-0.1 0.5-16.1 25.1-20.2 30.5 0.4-0.2 38.1-12 48-31.1-0.1 0.3-2.5 14.4-5.7 30.8q0 0.4-0.1 0.9c-0.7 3.5-1.4 7.1-2.2 10.8-0.9 4.8-1.9 9.7-2.8 14.2 4.9-2.8 10.6-6.8 16.1-12.6 6.5-6.7 12.7-15.8 17.2-28.2q0.1-0.5 0.3-1c1.8-5.2 3.3-10.8 4.4-17.1 0 0 4.1 35.4 14.7 55.3 10.3-18 14.7-55.3 14.7-55.3 1 6.2 2.6 11.9 4.3 17q0.2 0.6 0.4 1.1c4.5 12.4 10.7 21.4 17.2 28.1 5.5 5.8 11.3 9.8 16.2 12.6-1-4.5-2-9.3-2.9-14.2-0.8-3.6-1.5-7.3-2.2-10.8q-0.1-0.5-0.2-0.9c-3.1-16.5-5.6-30.5-5.6-30.8 9.9 19.1 54.2 32.8 54.6 33-4.1-5.4-26.8-32-26.9-32.4 5.2 5.9 10.9 10.5 16.7 13.8 21.9 12.7 45.5 9.9 45.5 9.9-27-19.6-52.8-55.7-68-87.9z"/>
				<path id="&lt;Path&gt;" class="s1" d="m1368 813.1c0 0-13.3-16.6-25.6-37.2q-0.2-0.3-0.4-0.6c-5.9-9.9-11.5-20.5-15.4-30.8l-60-160.8-55.9 161c-3.9 10.2-9.5 20.9-15.4 30.7q-0.2 0.3-0.3 0.6c-12.3 20.6-25.6 37.3-25.6 37.3 10.8 3.6 22.7-0.6 31.3-5.2 7.2-3.8 12.1-7.8 12.2-8-2.3 9.3-22.3 42-22.3 42 6-1.3 12.2-3.9 17.8-7.1 3.1-1.7 6.1-3.7 8.7-5.8 6.9-5.4 12.8-11.4 17.3-16.7q0.2-0.3 0.5-0.5c6.2-7.4 9.8-13.1 9.8-13.1-0.5 3.1-2.3 9.3-4.5 16.3q-0.1 0.3-0.2 0.6c-4.6 14.8-10.7 32.7-10.7 32.7 9.8-0.5 26-10.2 34.3-23.5q0.2-0.3 0.4-0.7c2.5-4 4.2-8.5 4.7-13 0.5 4.5 2.2 9 4.7 13q0.2 0.4 0.4 0.7c8.3 13.3 24.5 22.9 34.4 23.5 0 0-6.2-17.9-10.8-32.7q-0.1-0.3-0.2-0.7c-2.2-7-4-13.2-4.5-16.2 0 0 3.6 5.6 9.9 13q0.2 0.3 0.4 0.5c4.6 5.3 10.4 11.3 17.3 16.7 2.7 2.1 5.6 4.1 8.7 5.8 5.7 3.2 11.9 5.7 17.9 7.1 0 0-20.1-32.7-22.4-42 0.1 0.2 5 4.2 12.2 8 8.6 4.6 20.5 8.7 31.3 5.1z"/>
			</g>
		</g>
		<g id="&lt;Group&gt; copy 4">
			<g id="&lt;Group&gt;">
				<path id="&lt;Path&gt;" class="s1" d="m1859.7 1341c-38.8-21.9-79.8-49.5-104.1-102.4-8.3-18.2-15.7-35.4-21.8-50q-0.2-0.4-0.4-1 0 0 0 0c-10.5-25.2-16.9-42.2-16.9-42.2-7.7-12.5-25.9-18.4-47.6-17.6-6.7 0.2-13.6 1-20.7 2.5-19.6 4.1-40.1 13-57.2 26.7-17-13.7-37.5-22.5-57-26.6-7.2-1.4-14.2-2.3-20.8-2.5-21.7-0.7-39.9 5.2-47.6 17.7 0 0-6.3 17-16.8 42.3q0 0 0 0-0.2 0.5-0.4 1c-6 14.6-13.4 31.8-21.7 50-24.2 52.9-65.2 80.7-103.9 102.6 0 0 76.2 44.1 159.3-13.2-7.6 14.2-38.8 31.6-52.7 44.8 0 0 103.4 37.8 161.9 2.8 56.9 38.3 178.7 6.4 178.7 6.4-14-13.2-45.3-40-53-54.3 82.6 57.2 142.7 13 142.7 13z"/>
				<path id="&lt;Path&gt;" class="s1" d="m1777.3 1159.5q-0.3-0.4-0.6-0.8c-8.2-9.1-15.4-18.7-22.7-29.4q-0.3-0.6-0.7-1.1c-8.7-12.8-17.3-27.2-27.5-44.3-14.3-24.2-16.2-47.6-16.2-47.6l-24.5-32.2-10.9-14.4-20.5-26.9-0.7-0.9-62.2-81.6-62 81.8-0.7 0.8-20.4 27-11 14.4-24.4 32.2c0 0-1.8 23.4-16.1 47.7-10.1 17-18.7 31.5-27.4 44.3q-0.4 0.6-0.7 1.1c-7.3 10.7-14.5 20.3-22.6 29.5q-0.3 0.3-0.7 0.7c-13.4 15-29.1 28.7-50.8 44 2 6.6 68.3 16 86.4-8.8-0.2 0.7-18.9 44.9-29.3 47.4 0 0 6.1-0.7 15.6-3.5 14.1-4.3 35.6-13.3 54.8-31.7q0.4-0.4 0.8-0.8c8.6-8.5 16.8-18.8 23.5-31.6-0.1 0.5-3.7 19.6-7.6 39.1q-0.2 0.6-0.3 1.2c-3.1 15.3-6.6 30.5-8.8 36.8 0 0 13.2-6.6 32.8-26.9q0.4-0.5 0.8-1c12-12.5 26.1-30 41-54.1-0.2 0.5-22.1 81.4-24.5 85.2 0 0 19.3-5.8 39.7-24.5 28.2-25.8 29-34.5 34.8-48.3 2.5-4.5 4.2-8.7 4.8-12.3q0-0.2 0-0.2c7.9 25.7 15.6 38 33.2 58.5 18.8 21.7 41.6 23.5 41.6 23.5-2.3-6.4-5.8-21.6-8.9-36.9q-0.2-0.6-0.3-1.1c-4-19.5-7.6-38.7-7.7-39.2 6.7 12.8 14.9 23.2 23.5 31.6q0.4 0.4 0.9 0.8c19.1 18.3 40.6 27.3 54.8 31.6 9.5 2.8 15.6 3.5 15.6 3.5-10.4-2.5-29.1-46.7-29.4-47.4 18.1 24.8 84.5 15.2 86.4 8.7-21.7-15.2-37.5-28.9-50.9-43.9z"/>
				<path id="&lt;Path&gt;" class="s2" d="m1697 967.8c-4.3-9.1-8.2-18-11.8-26.6q-0.3-0.5-0.5-0.9c-14.6-34.5-23.7-62.5-26.5-71.5h-67.4l-67.5 0.1c-2.7 9-11.8 37.1-26.3 71.5q-0.2 0.5-0.4 1c-3.6 8.6-7.6 17.5-11.9 26.6-23.7 50.4-57.4 106.8-99.5 137.5 0 0 36.8 4.3 71-15.6 9.1-5.3 18-12.3 26-21.5-0.1 0.5-8.7 38.6-15 47 0.6-0.3 43-18.3 58.4-48.2-0.1 0.5-4 22.5-8.8 48.1q-0.2 0.7-0.3 1.4c-1.1 5.6-2.2 11.2-3.3 16.9-1.5 7.7-3 15.2-4.5 22.3 7.7-4.4 16.6-10.7 25.3-19.7 10-10.5 19.7-24.7 26.7-44q0.3-0.8 0.6-1.6c2.7-8.1 5.1-16.9 6.8-26.8 0 0 6.4 55.3 22.9 86.4 16-28 22.9-86.4 22.9-86.4 1.7 9.8 4.1 18.7 6.9 26.7q0.3 0.8 0.6 1.7c6.9 19.2 16.6 33.4 26.8 43.9 8.6 8.9 17.5 15.2 25.3 19.7-1.5-7.1-3.1-14.7-4.6-22.3-1.1-5.7-2.3-11.4-3.3-16.9q-0.2-0.7-0.3-1.4c-4.9-25.6-8.9-47.6-8.9-48.1 15.5 29.8 57.8 47.8 58.5 48.1-6.3-8.4-15-46.5-15.1-47.1 8 9.3 16.9 16.3 26 21.6 34.3 19.8 71 15.4 71 15.4-42.1-30.6-76-86.9-99.8-137.3z"/>
				<path id="&lt;Path&gt;" class="s1" d="m1781.8 990.3c0 0-25.4-32.1-49.2-71.7q-0.3-0.5-0.7-1.1c-11.3-18.9-22.2-39.5-29.6-59.1l-115.4-309.4-107.6 309.6c-7.4 19.6-18.3 40.2-29.5 59.2q-0.3 0.5-0.7 1.1c-23.7 39.6-49.1 71.8-49.1 71.8 20.7 6.7 43.6-1.3 60.1-10.1 13.9-7.2 23.3-15.1 23.6-15.3-4.5 17.8-57.6 74.4-57.6 74.4 15.5 4.9 38-1.2 48.9-7.3 6-3.4 11.6-7.2 16.7-11.2 13.3-10.5 24.5-22 33.2-32.1q0.5-0.5 0.9-1c12.1-14.3 18.9-25.3 18.9-25.3-1 6-4.5 17.9-8.6 31.4q-0.2 0.7-0.4 1.4c-8.8 28.3-20.6 62.7-20.6 62.7 18.9-1 50.1-19.6 66-45.2 0.3-0.4 0.6-0.8 0.8-1.2h0.1c4.6-8 16.3-45.2 17.3-54 2.4 12.3 2.9 42.9 11.4 61.8 13.1 28.9 37.2 37.5 56.2 38.5 0 0-11.9-34.4-20.7-62.8q-0.2-0.6-0.5-1.3c-4.1-13.5-7.6-25.4-8.7-31.3 0 0 6.9 11 19 25.2q0.5 0.4 0.9 1c8.7 10.1 20 21.6 33.2 31.9 5.2 4.1 10.9 7.8 16.8 11.2 10.9 6.2 32.8 11.2 46.6 3.2 0 0-50.9-52.4-55.4-70.2 0.3 0.2 9.7 8 23.6 15.3 16.6 8.7 39.4 16.7 60.1 9.9z"/>
				<path id="&lt;Path&gt;" class="s2" d="m1718.2 843.6q-0.2-0.3-0.5-0.6c-5.6-6.3-10.6-12.9-15.6-20.3q-0.3-0.4-0.5-0.7c-6-8.9-12-18.8-18.9-30.6-10-16.7-11.2-32.9-11.2-32.9l-17-22.2-7.5-9.9-14.2-18.6-0.4-0.6-42.9-56.4-42.9 56.5-0.4 0.6-14.2 18.6-7.5 9.9-16.9 22.2c0 0-1.2 16.2-11.1 33-7 11.8-12.9 21.7-18.9 30.6q-0.3 0.3-0.5 0.8c-5 7.3-10 14-15.6 20.2q-0.2 0.3-0.5 0.6c-9.2 10.3-20 19.8-35.1 30.4 1.4 4.5 47.3 11 59.7-6.1-0.2 0.5-13 31-20.3 32.7 0 0 4.3-0.5 10.8-2.4 9.8-3 24.7-9.2 37.9-21.9q0.3-0.3 0.5-0.5c6-5.9 11.6-13.1 16.2-21.9 0 0.4-2.5 13.6-5.2 27.1q-0.1 0.3-0.2 0.7c-2.2 10.6-4.6 21.1-6.1 25.5 0 0 9.1-4.6 22.6-18.6q0.3-0.4 0.7-0.7c8.1-8.6 18-20.7 28.2-37.4-0.1 0.4-25.6 79.2-25.6 79.2 0 0 26-13.5 37.5-27.3 12.7-15.3 18.7-33.8 22.6-43.3 1.8-3.1 2.9-6 3.3-8.5q0-0.1 0-0.1c5.5 17.7 10.8 26.2 23 40.3 13 15.1 28.6 16.3 28.6 16.3-1.5-4.4-3.9-14.9-6.1-25.5q-0.1-0.4-0.2-0.7c-2.7-13.5-5.2-26.8-5.3-27.1 4.7 8.8 10.3 16 16.3 21.8q0.2 0.3 0.5 0.6c13.3 12.6 28.1 18.8 37.9 21.8 6.5 1.9 10.8 2.4 10.8 2.4-7.2-1.7-20.1-32.2-20.4-32.7 12.6 17.1 58.4 10.5 59.7 5.9-15-10.5-25.8-19.9-35.1-30.2z"/>
				<path id="&lt;Path&gt;" class="s1" d="m1669.2 676.9c-3.4-7.3-6.6-14.4-9.5-21.3-0.1-0.2 4.8-0.5 4.7-0.7-11.6-27.6-24-49.9-26.2-57.2l-48.8 0.1h-50.4c-2.2 7.3-12.9 29.7-24.5 57.2-0.1 0.3 3.3 0.5 3.2 0.8-3 6.8-6.1 14-9.5 21.2-19 40.3-49.4 85.4-83.1 109.8 0 0 29.4 3.5 56.7-12.4 7.3-4.2 14.4-9.8 20.8-17.2-0.1 0.5-20.1 31.2-25.1 37.9 0.5-0.2 47.4-14.9 59.8-38.8 0 0.4-3.1 17.9-7.1 38.4q-0.1 0.6-0.2 1.1-1.3 6.7-2.6 13.6c-1.2 6-2.4 12.1-3.6 17.8 6.1-3.6 13.3-8.6 20.1-15.8 8.1-8.4 15.9-19.7 21.4-35.2q0.3-0.6 0.5-1.3c2.2-6.4 4.1-13.4 5.4-21.3 0 0 5.1 44.2 18.4 69 12.8-22.4 18.3-69 18.3-69 1.3 7.8 3.2 14.9 5.5 21.3q0.2 0.6 0.4 1.3c5.6 15.4 13.4 26.7 21.4 35.1 6.9 7.1 14.1 12.2 20.3 15.7-1.3-5.6-2.5-11.7-3.7-17.7-0.9-4.6-1.8-9.2-2.7-13.6q-0.1-0.6-0.2-1.1c-3.9-20.5-7.1-38-7.1-38.4 12.4 23.9 67.6 41 68.2 41.2-5.1-6.8-33.4-39.9-33.5-40.4 6.4 7.4 13.5 13 20.8 17.2 27.3 15.8 56.7 12.3 56.7 12.3-33.7-24.4-65.8-69.4-84.8-109.6z"/>
				<path id="&lt;Path&gt;" class="s2" d="m1713.3 683.3c0 0-16.5-20.8-31.9-46.5q-0.2-0.3-0.4-0.7c-7.4-12.3-14.4-25.7-19.3-38.4l-74.8-200.7-69.8 200.8c-4.9 12.8-11.9 26.2-19.2 38.4q-0.2 0.4-0.4 0.7c-15.4 25.8-31.9 46.7-31.9 46.7 13.4 4.3 28.3-0.9 39-6.6 9-4.7 15.1-9.8 15.3-9.9-2.9 11.5-27.8 52.4-27.8 52.4 7.4-1.8 15.1-4.9 22.2-8.9 3.8-2.2 7.5-4.7 10.8-7.3 8.6-6.7 15.9-14.2 21.6-20.8q0.2-0.3 0.5-0.6c7.8-9.3 12.3-16.4 12.3-16.4-0.7 3.9-2.9 11.6-5.6 20.3q-0.1 0.5-0.3 0.9c-5.7 18.4-13.3 40.7-13.3 40.7 12.2-0.6 32.5-12.7 42.8-29.3q0.3-0.4 0.6-0.8c3-5.1 5.1-10.6 5.8-16.3 0.6 5.6 2.8 11.2 5.8 16.3q0.3 0.4 0.5 0.8c10.4 16.6 30.7 28.6 42.9 29.2 0 0-7.7-22.3-13.4-40.7q-0.1-0.4-0.3-0.9c-2.7-8.7-4.9-16.4-5.6-20.3 0 0 4.5 7.2 12.3 16.4q0.3 0.3 0.6 0.6c5.6 6.6 12.9 14.1 21.5 20.8 3.4 2.6 7.1 5.1 10.9 7.2 7.1 4 14.8 7.1 22.3 8.8 0 0-25.1-40.7-28-52.3 0.2 0.2 6.3 5.2 15.3 10 10.7 5.6 25.6 10.8 39 6.4z"/>
			</g>
		</g>
	</g>
</svg>