<?xml version="1.0" encoding="UTF-8"?><svg id="a" xmlns="http://www.w3.org/2000/svg" width="4.52in" height="1.29in" viewBox="0 0 325.68 92.8"><path d="m219.04,27.69h2.18l3.28,7.1,3.28-7.1h2.18l-4.72,10.1h-1.46l-4.73-10.1Z" style="fill:#fdfefe; stroke-width:0px;"/><path d="m240.9,27.69v1.88h-5.37v2.24h5.17v1.88h-5.17v2.24h5.56v1.88h-7.58v-10.1h7.39Z" style="fill:#fdfefe; stroke-width:0px;"/><path d="m244.49,27.69h8.63v1.88h-3.3v8.23h-2.02v-8.23h-3.3v-1.88Z" style="fill:#fdfefe; stroke-width:0px;"/><path d="m264.6,27.69v1.88h-5.37v2.24h5.17v1.88h-5.17v2.24h5.56v1.88h-7.58v-10.1h7.39Z" style="fill:#fdfefe; stroke-width:0px;"/><path d="m269.24,27.69h4.27c.37,0,.78.04,1.23.12s.89.23,1.28.47c.4.24.73.57,1,1.01s.4,1.02.4,1.74-.17,1.37-.5,1.88c-.34.52-.81.89-1.43,1.13l2.65,3.75h-2.37l-2.45-3.43h-2.08v3.43h-2.02v-10.1Zm4.23,4.79c.4,0,.73-.03.98-.1.25-.07.45-.17.58-.3.14-.13.24-.28.29-.46.05-.18.08-.38.08-.6s-.03-.42-.08-.59c-.05-.17-.15-.32-.29-.45-.14-.13-.33-.23-.58-.3-.25-.07-.58-.1-.98-.1h-2.21v2.9h2.21Z" style="fill:#fdfefe; stroke-width:0px;"/><path d="m280.33,37.79l4.73-10.1h1.39l4.72,10.1h-2.05l-1.01-2.19h-4.7l-1.01,2.19h-2.06Zm3.88-3.95h3.09l-1.54-3.35-1.54,3.35Z" style="fill:#fdfefe; stroke-width:0px;"/><path d="m301.34,37.79l-5.27-6.45v6.45h-2.02v-10.1h1.54l5.28,6.45v-6.45h2.02v10.1h-1.56Z" style="fill:#fdfefe; stroke-width:0px;"/><path d="m220.09,52.43v-10.1h4.52c.17,0,.38,0,.64.01.25.01.51.04.79.09s.55.14.82.25c.28.12.52.28.74.49s.4.48.53.81.2.73.2,1.21c0,.32-.05.63-.16.94-.11.31-.27.56-.49.74.38.25.67.59.86,1.02.19.43.28.92.28,1.47,0,.35-.05.7-.16,1.07-.11.37-.3.7-.59.99-.29.29-.69.53-1.2.72-.51.19-1.17.28-1.98.28h-4.81Zm4.76-6.23c.56,0,.94-.07,1.15-.22.21-.14.32-.4.32-.78s-.12-.64-.35-.78c-.24-.14-.65-.22-1.25-.22h-2.61v1.99h2.74Zm-.01,4.36c.74,0,1.26-.09,1.55-.27.29-.18.44-.49.44-.95,0-.29-.04-.52-.12-.69s-.2-.3-.37-.38-.37-.14-.64-.17c-.26-.02-.57-.04-.92-.04h-2.67s0,2.48,0,2.48h2.73Z" style="fill:#fdfefe; stroke-width:0px;"/><path d="m240.9,42.32v1.88h-5.37v2.24h5.17v1.88h-5.17v2.24h5.56v1.88h-7.58v-10.1h7.39Z" style="fill:#fdfefe; stroke-width:0px;"/><path d="m252.97,52.43l-5.27-6.45v6.45h-2.02v-10.1h1.54l5.28,6.45v-6.45h2.02v10.1h-1.56Z" style="fill:#fdfefe; stroke-width:0px;"/><path d="m267.18,42.32v1.88h-5.37v2.24h5.17v1.88h-5.17v2.24h5.56v1.88h-7.58v-10.1h7.39Z" style="fill:#fdfefe; stroke-width:0px;"/><path d="m279.2,42.32v1.88h-5.35v2.24h5.17v1.88h-5.17v4.11h-2.02v-10.1h7.37Z" style="fill:#fdfefe; stroke-width:0px;"/><path d="m283.31,52.43v-10.1h2.02v10.1h-2.02Z" style="fill:#fdfefe; stroke-width:0px;"/><path d="m289.36,42.32h8.63v1.88h-3.3v8.23h-2.02v-8.23h-3.3v-1.88Z" style="fill:#fdfefe; stroke-width:0px;"/><path d="m302.77,49.35c.03.1.09.21.18.34.09.13.23.26.41.38.18.13.42.23.7.32.28.09.64.13,1.08.13.17,0,.38,0,.62-.02s.47-.05.69-.12c.22-.06.41-.16.57-.29.16-.13.25-.32.26-.56.01-.23-.08-.42-.26-.58-.11-.11-.33-.22-.64-.33-.31-.12-.8-.22-1.45-.32-.17-.03-.39-.06-.66-.11-.27-.04-.56-.11-.86-.2-.3-.09-.61-.21-.91-.37-.3-.15-.57-.35-.81-.58-.24-.23-.42-.51-.56-.83-.13-.32-.19-.7-.16-1.15.03-.43.15-.82.35-1.18.21-.35.48-.65.83-.9.35-.25.76-.43,1.24-.56.48-.13,1.01-.19,1.6-.19s1.15.07,1.63.22c.48.15.89.36,1.23.63.34.27.61.6.8.99s.3.81.33,1.28h-2.09c-.03-.25-.11-.45-.24-.6-.13-.15-.29-.27-.48-.35-.19-.08-.39-.14-.61-.17-.22-.03-.43-.05-.64-.05-.16,0-.35.01-.56.03-.21.02-.4.06-.58.12-.18.06-.34.15-.46.27-.12.12-.2.28-.22.47,0,.07,0,.15.02.26,0,.11.08.22.2.33.13.12.33.23.62.33.29.11.71.2,1.27.27,1.46.19,2.53.55,3.19,1.06.66.51.99,1.24.97,2.17,0,.37-.1.73-.27,1.08-.17.36-.43.67-.78.95-.35.28-.78.5-1.31.67-.53.17-1.15.25-1.88.25-.5,0-1.01-.06-1.54-.17-.52-.11-1-.29-1.44-.54s-.81-.57-1.1-.97c-.3-.4-.47-.89-.51-1.46h2.22Z" style="fill:#fdfefe; stroke-width:0px;"/><path d="m219.64,62.01c0-.8.12-1.52.36-2.15s.58-1.18,1.02-1.62c.44-.45.98-.79,1.62-1.02.64-.24,1.35-.35,2.14-.34.52,0,1.03.06,1.54.19.51.13.97.32,1.39.58.42.26.79.59,1.1.98s.54.86.69,1.4h-2.14c-.16-.3-.37-.53-.61-.7-.24-.17-.49-.3-.74-.38-.25-.09-.48-.14-.69-.16-.21-.02-.37-.03-.48-.03-1.03,0-1.82.27-2.36.81-.54.54-.82,1.36-.82,2.45,0,2.15,1.03,3.24,3.1,3.26.8,0,1.45-.17,1.96-.52.51-.35.85-.84,1.01-1.47v-.06s-3.51,0-3.51,0v-1.88h5.54c.1.58.11,1.15.05,1.72s-.25,1.15-.57,1.72c-.42.76-1.02,1.34-1.78,1.75-.76.4-1.67.61-2.7.61-.79,0-1.5-.12-2.14-.35-.64-.24-1.18-.58-1.62-1.02-.45-.45-.79-.99-1.02-1.62-.24-.64-.35-1.35-.35-2.14Z" style="fill:#fdfefe; stroke-width:0px;"/><path d="m233.5,62.2l.02-5.24h2.03l-.02,5.15c0,.58.04,1.07.12,1.47.08.4.21.72.4.97.18.25.42.42.71.53.29.11.66.17,1.09.17s.8-.06,1.09-.17.53-.29.71-.53c.18-.25.32-.57.4-.97.08-.4.12-.89.12-1.47l.02-5.15h2.03l-.02,5.24c0,3.29-1.45,4.93-4.36,4.93s-4.36-1.64-4.36-4.93Z" style="fill:#fdfefe; stroke-width:0px;"/><path d="m247.81,67.06v-10.1h2.02v10.1h-2.02Z" style="fill:#fdfefe; stroke-width:0px;"/><path d="m255.42,67.06v-10.1h4.26c.78,0,1.48.12,2.09.35.61.23,1.13.56,1.55,1,.42.43.75.96.97,1.59.23.63.34,1.33.34,2.12s-.11,1.5-.34,2.12c-.23.63-.55,1.15-.97,1.59-.42.43-.94.76-1.55,1-.61.23-1.31.35-2.09.35h-4.26Zm4.24-1.88c2,0,3-1.06,3-3.17s-.99-3.18-2.97-3.18h-2.25v6.35h2.22Z" style="fill:#fdfefe; stroke-width:0px;"/><path d="m276.5,56.96v1.88h-5.37v2.24h5.17v1.88h-5.17v2.24h5.56v1.88h-7.58v-10.1h7.39Z" style="fill:#fdfefe; stroke-width:0px;"/><path d="m146.4,45.38c4.56-2.16,6.44-6.89,6.53-9.55.36-11.22-8.5-17.94-20.57-17.94h-21.32l-4.08,11.29v47.53h25.84c14.04,0,20.92-5.73,22.53-15.2.81-4.49-.27-12.05-8.94-16.12Zm-23.34-14.95h9.3c8.05,0,7.78,9.7,0,9.7h-9.3v-9.7Zm9.3,33.23h-9.3v-12.05h9.3c9.48,0,9.66,12.05,0,12.05Z" style="fill:#fdfefe; stroke-width:0px;"/><path d="m181.7,39.3v14.32h12.61v2.89c0,4.24-5.1,6.39-10.19,6.39s-10.28-2.07-10.28-6.39v-20.11c0-4.32,5.01-6.65,10.01-6.65s9.55,1.77,10.31,5.59h16.09c-.68-12.74-13.43-19.13-26.23-19.13s-26.2,6.65-26.2,20.19v20.11c0,13.46,13.15,20.19,26.29,20.19s26.2-6.73,26.2-20.19v-17.21h-28.62Z" style="fill:#fdfefe; stroke-width:0px;"/><polygon points="67.94 17.87 50.77 17.87 57.37 37.81 73.39 37.81 67.94 17.87" style="fill:#fdfefe; stroke-width:0px;"/><polygon points="107.27 17.87 90.52 17.87 77.95 54.53 75.98 47.33 63.5 56.35 70.23 76.7 84.89 76.7 101.53 33.78 107.27 17.87" style="fill:#fdfefe; stroke-width:0px;"/><polygon points="77.9 41.45 54.62 41.45 47.05 18.17 39.49 41.45 16.21 41.45 35.04 55.13 27.99 76.84 46.46 63.42 47.05 62.99 47.65 63.42 66.12 76.84 59.06 55.13 77.9 41.45" style="fill:#079eda; stroke-width:0px;"/></svg>